G75*
%MOIN*%
%OFA0B0*%
%FSLAX25Y25*%
%IPPOS*%
%LPD*%
%AMOC8*
5,1,8,0,0,1.08239X$1,22.5*
%
%ADD10R,0.07887X0.07099*%
%ADD11R,0.06706X0.05918*%
%ADD12C,0.16942*%
%ADD13C,0.06000*%
%ADD14C,0.06400*%
%ADD15OC8,0.06400*%
%ADD16C,0.06800*%
%ADD17C,0.09461*%
%ADD18OC8,0.06800*%
%ADD19R,0.21800X0.08400*%
%ADD20OC8,0.09300*%
%ADD21R,0.02200X0.06600*%
%ADD22C,0.05950*%
%ADD23C,0.04762*%
D10*
X0069921Y0136272D03*
X0069921Y0147295D03*
D11*
X0079764Y0147492D03*
X0079764Y0140012D03*
X0111535Y0164500D03*
X0111535Y0171980D03*
X0119567Y0171862D03*
X0119567Y0164382D03*
D12*
X0193858Y0172020D03*
X0338976Y0029224D03*
D13*
X0032600Y0028280D02*
X0027400Y0028280D01*
X0027400Y0038280D02*
X0032600Y0038280D01*
X0032600Y0048280D02*
X0027400Y0048280D01*
X0027400Y0058280D02*
X0032600Y0058280D01*
X0032600Y0068280D02*
X0027400Y0068280D01*
X0027400Y0018280D02*
X0032600Y0018280D01*
D14*
X0076732Y0032099D03*
X0341024Y0206390D03*
D15*
X0351024Y0206390D03*
X0351024Y0196390D03*
X0341024Y0196390D03*
X0341024Y0186390D03*
X0351024Y0186390D03*
X0351024Y0176390D03*
X0341024Y0176390D03*
X0341024Y0166390D03*
X0351024Y0166390D03*
X0351024Y0156390D03*
X0341024Y0156390D03*
X0341024Y0146390D03*
X0351024Y0146390D03*
X0351024Y0136390D03*
X0341024Y0136390D03*
X0341024Y0126390D03*
X0351024Y0126390D03*
X0351024Y0116390D03*
X0341024Y0116390D03*
X0341024Y0106390D03*
X0351024Y0106390D03*
X0351024Y0096390D03*
X0341024Y0096390D03*
X0341024Y0086390D03*
X0351024Y0086390D03*
X0351024Y0076390D03*
X0341024Y0076390D03*
X0341024Y0066390D03*
X0351024Y0066390D03*
X0266732Y0042099D03*
X0256732Y0042099D03*
X0246732Y0042099D03*
X0236732Y0042099D03*
X0226732Y0042099D03*
X0216732Y0042099D03*
X0206732Y0042099D03*
X0196732Y0042099D03*
X0186732Y0042099D03*
X0176732Y0042099D03*
X0166732Y0042099D03*
X0156732Y0042099D03*
X0146732Y0042099D03*
X0136732Y0042099D03*
X0126732Y0042099D03*
X0116732Y0042099D03*
X0106732Y0042099D03*
X0096732Y0042099D03*
X0086732Y0042099D03*
X0076732Y0042099D03*
X0086732Y0032099D03*
X0096732Y0032099D03*
X0106732Y0032099D03*
X0116732Y0032099D03*
X0126732Y0032099D03*
X0136732Y0032099D03*
X0146732Y0032099D03*
X0156732Y0032099D03*
X0166732Y0032099D03*
X0176732Y0032099D03*
X0186732Y0032099D03*
X0196732Y0032099D03*
X0206732Y0032099D03*
X0216732Y0032099D03*
X0226732Y0032099D03*
X0236732Y0032099D03*
X0246732Y0032099D03*
X0256732Y0032099D03*
X0266732Y0032099D03*
D16*
X0016819Y0018280D02*
X0010819Y0018280D01*
X0010819Y0028280D02*
X0016819Y0028280D01*
X0016819Y0038280D02*
X0010819Y0038280D01*
X0010819Y0048280D02*
X0016819Y0048280D01*
X0016819Y0058280D02*
X0010819Y0058280D01*
X0010819Y0068280D02*
X0016819Y0068280D01*
X0042000Y0088516D02*
X0048000Y0088516D01*
X0048000Y0098516D02*
X0042000Y0098516D01*
X0042000Y0108516D02*
X0048000Y0108516D01*
X0048000Y0118516D02*
X0042000Y0118516D01*
X0076732Y0057815D02*
X0076732Y0051815D01*
X0086732Y0051815D02*
X0086732Y0057815D01*
X0096732Y0057815D02*
X0096732Y0051815D01*
X0106732Y0051815D02*
X0106732Y0057815D01*
X0116732Y0057815D02*
X0116732Y0051815D01*
X0126732Y0051815D02*
X0126732Y0057815D01*
X0136732Y0057815D02*
X0136732Y0051815D01*
X0146732Y0051815D02*
X0146732Y0057815D01*
X0156732Y0057815D02*
X0156732Y0051815D01*
X0166732Y0051815D02*
X0166732Y0057815D01*
X0176732Y0057815D02*
X0176732Y0051815D01*
X0186732Y0051815D02*
X0186732Y0057815D01*
X0196732Y0057815D02*
X0196732Y0051815D01*
X0206732Y0051815D02*
X0206732Y0057815D01*
X0216732Y0057815D02*
X0216732Y0051815D01*
X0226732Y0051815D02*
X0226732Y0057815D01*
X0236732Y0057815D02*
X0236732Y0051815D01*
X0246732Y0051815D02*
X0246732Y0057815D01*
X0256732Y0057815D02*
X0256732Y0051815D01*
X0266732Y0051815D02*
X0266732Y0057815D01*
X0286850Y0055280D02*
X0286850Y0061280D01*
X0296850Y0061280D02*
X0296850Y0055280D01*
X0306850Y0055280D02*
X0306850Y0061280D01*
X0319087Y0066390D02*
X0325087Y0066390D01*
X0325087Y0076390D02*
X0319087Y0076390D01*
X0319087Y0086390D02*
X0325087Y0086390D01*
X0325087Y0096390D02*
X0319087Y0096390D01*
X0319087Y0106390D02*
X0325087Y0106390D01*
X0325087Y0116390D02*
X0319087Y0116390D01*
X0319087Y0126390D02*
X0325087Y0126390D01*
X0325087Y0136390D02*
X0319087Y0136390D01*
X0319087Y0146390D02*
X0325087Y0146390D01*
X0325087Y0156390D02*
X0319087Y0156390D01*
X0319087Y0166390D02*
X0325087Y0166390D01*
X0325087Y0176390D02*
X0319087Y0176390D01*
X0319087Y0186390D02*
X0325087Y0186390D01*
X0325087Y0196390D02*
X0319087Y0196390D01*
X0319087Y0206390D02*
X0325087Y0206390D01*
X0296346Y0206429D02*
X0290346Y0206429D01*
X0290346Y0196429D02*
X0296346Y0196429D01*
X0296346Y0186429D02*
X0290346Y0186429D01*
X0290346Y0176429D02*
X0296346Y0176429D01*
X0296346Y0166429D02*
X0290346Y0166429D01*
X0290346Y0156429D02*
X0296346Y0156429D01*
X0296346Y0146429D02*
X0290346Y0146429D01*
X0290346Y0136429D02*
X0296346Y0136429D01*
X0296346Y0126429D02*
X0290346Y0126429D01*
X0290346Y0116429D02*
X0296346Y0116429D01*
X0241228Y0116469D02*
X0235228Y0116469D01*
X0235228Y0126469D02*
X0241228Y0126469D01*
X0241228Y0136469D02*
X0235228Y0136469D01*
X0235228Y0146469D02*
X0241228Y0146469D01*
X0241228Y0156469D02*
X0235228Y0156469D01*
X0235228Y0166469D02*
X0241228Y0166469D01*
X0241228Y0176469D02*
X0235228Y0176469D01*
X0235228Y0186469D02*
X0241228Y0186469D01*
X0241228Y0196469D02*
X0235228Y0196469D01*
X0235228Y0206469D02*
X0241228Y0206469D01*
X0158898Y0173878D02*
X0158898Y0167878D01*
X0148898Y0167878D02*
X0148898Y0173878D01*
X0138898Y0173878D02*
X0138898Y0167878D01*
X0143693Y0135681D02*
X0149693Y0135681D01*
X0149693Y0125681D02*
X0143693Y0125681D01*
X0143693Y0115681D02*
X0149693Y0115681D01*
X0149693Y0105681D02*
X0143693Y0105681D01*
X0143693Y0095681D02*
X0149693Y0095681D01*
X0149693Y0085681D02*
X0143693Y0085681D01*
X0143693Y0075681D02*
X0149693Y0075681D01*
X0146732Y0022382D02*
X0146732Y0016382D01*
X0156732Y0016382D02*
X0156732Y0022382D01*
X0166732Y0022382D02*
X0166732Y0016382D01*
X0176732Y0016382D02*
X0176732Y0022382D01*
X0186732Y0022382D02*
X0186732Y0016382D01*
X0196732Y0016382D02*
X0196732Y0022382D01*
X0206732Y0022382D02*
X0206732Y0016382D01*
X0216732Y0016382D02*
X0216732Y0022382D01*
X0226732Y0022382D02*
X0226732Y0016382D01*
X0236732Y0016382D02*
X0236732Y0022382D01*
X0246732Y0022382D02*
X0246732Y0016382D01*
X0256732Y0016382D02*
X0256732Y0022382D01*
X0266732Y0022382D02*
X0266732Y0016382D01*
X0366331Y0066390D02*
X0372331Y0066390D01*
X0372331Y0076390D02*
X0366331Y0076390D01*
X0366331Y0086390D02*
X0372331Y0086390D01*
X0372331Y0096390D02*
X0366331Y0096390D01*
X0366331Y0106390D02*
X0372331Y0106390D01*
X0372331Y0116390D02*
X0366331Y0116390D01*
X0366331Y0126390D02*
X0372331Y0126390D01*
X0372331Y0136390D02*
X0366331Y0136390D01*
X0366331Y0146390D02*
X0372331Y0146390D01*
X0372331Y0156390D02*
X0366331Y0156390D01*
X0366331Y0166390D02*
X0372331Y0166390D01*
X0372331Y0176390D02*
X0366331Y0176390D01*
X0366331Y0186390D02*
X0372331Y0186390D01*
X0372331Y0196390D02*
X0366331Y0196390D01*
X0366331Y0206390D02*
X0372331Y0206390D01*
X0136732Y0022382D02*
X0136732Y0016382D01*
X0126732Y0016382D02*
X0126732Y0022382D01*
X0116732Y0022382D02*
X0116732Y0016382D01*
X0106732Y0016382D02*
X0106732Y0022382D01*
X0096732Y0022382D02*
X0096732Y0016382D01*
X0086732Y0016382D02*
X0086732Y0022382D01*
X0076732Y0022382D02*
X0076732Y0016382D01*
D17*
X0201693Y0080681D03*
X0201693Y0130681D03*
D18*
X0158150Y0186547D03*
X0148150Y0186547D03*
X0138150Y0186547D03*
X0128150Y0186547D03*
X0118150Y0186547D03*
X0108150Y0186547D03*
X0098150Y0186547D03*
X0098150Y0196547D03*
X0108150Y0196547D03*
X0118150Y0196547D03*
X0128150Y0196547D03*
X0138150Y0196547D03*
X0148150Y0196547D03*
X0158150Y0196547D03*
D19*
X0123843Y0094028D03*
X0085843Y0094028D03*
D20*
X0125669Y0114106D03*
X0129291Y0125917D03*
X0012598Y0151508D03*
X0012835Y0165287D03*
D21*
X0095075Y0152732D03*
X0097575Y0152732D03*
X0100175Y0152732D03*
X0102775Y0152732D03*
X0105275Y0152732D03*
X0107875Y0152732D03*
X0110375Y0152732D03*
X0112975Y0152732D03*
X0115575Y0152732D03*
X0118075Y0152732D03*
X0118075Y0129732D03*
X0115575Y0129732D03*
X0112975Y0129732D03*
X0110375Y0129732D03*
X0107875Y0129732D03*
X0105275Y0129732D03*
X0102775Y0129732D03*
X0100175Y0129732D03*
X0097575Y0129732D03*
X0095075Y0129732D03*
D22*
X0220669Y0132217D03*
X0220669Y0140091D03*
X0220669Y0147965D03*
X0220669Y0155839D03*
X0220669Y0163713D03*
X0220669Y0171587D03*
X0220669Y0179461D03*
X0220669Y0187335D03*
X0220669Y0195209D03*
X0220669Y0203083D03*
X0307283Y0203083D03*
X0307283Y0195209D03*
X0307283Y0187335D03*
X0307283Y0179461D03*
X0307283Y0171587D03*
X0307283Y0163713D03*
X0307283Y0155839D03*
X0307283Y0147965D03*
X0307283Y0140091D03*
X0307283Y0132217D03*
D23*
X0228150Y0105681D03*
X0210433Y0101744D03*
X0127756Y0154500D03*
X0121850Y0155287D03*
X0098228Y0158831D03*
X0094291Y0162768D03*
X0112008Y0178516D03*
X0125787Y0172610D03*
X0075394Y0186390D03*
X0054921Y0188358D03*
X0016732Y0176547D03*
X0060827Y0137177D03*
X0072638Y0127335D03*
X0084449Y0133240D03*
X0108071Y0113555D03*
X0070669Y0105681D03*
X0068701Y0095839D03*
X0092323Y0085996D03*
X0115945Y0085996D03*
X0265551Y0180484D03*
X0273425Y0204106D03*
M02*
