%
M48
M72
T01C0.0236
T02C0.0315
T03C0.0320
T04C0.0360
T05C0.0400
T06C0.0520
T07C0.0866
T08C0.1614
%
T01
X6870Y8761
X7067Y9746
X10217Y8958
X10807Y10533
X8445Y12502
X7264Y11911
X6083Y12895
X5492Y15061
X7776Y16045
X9429Y15454
X9823Y15061
X12185Y14706
X12776Y14628
X12579Y16439
X11201Y17029
X16909Y16832
X26555Y17226
X27343Y19588
X22815Y9746
X21043Y9352
X1673Y14076
T02
X22067Y13974
X22067Y14761
X22067Y15549
X22067Y16336
X22067Y17124
X22067Y17911
X22067Y18698
X22067Y19486
X30728Y19486
X30728Y18698
X30728Y17911
X30728Y17124
X30728Y16336
X30728Y15549
X30728Y14761
X30728Y13974
X30728Y13187
X30728Y12399
X22067Y12399
X22067Y13187
T03
X2815Y6006
X2815Y5006
X2815Y4006
X2815Y3006
X2815Y2006
X2815Y1006
T04
X7673Y2387
X8673Y2387
X9673Y2387
X10673Y2387
X11673Y2387
X12673Y2387
X13673Y2387
X14673Y2387
X15673Y2387
X16673Y2387
X17673Y2387
X18673Y2387
X19673Y2387
X20673Y2387
X21673Y2387
X22673Y2387
X23673Y2387
X24673Y2387
X25673Y2387
X26673Y2387
X26673Y3387
X25673Y3387
X24673Y3387
X23673Y3387
X22673Y3387
X21673Y3387
X20673Y3387
X19673Y3387
X18673Y3387
X17673Y3387
X16673Y3387
X15673Y3387
X14673Y3387
X13673Y3387
X12673Y3387
X11673Y3387
X10673Y3387
X9673Y3387
X8673Y3387
X7673Y3387
X34102Y5817
X35102Y5817
X35102Y6817
X34102Y6817
X34102Y7817
X35102Y7817
X35102Y8817
X34102Y8817
X34102Y9817
X35102Y9817
X35102Y10817
X34102Y10817
X34102Y11817
X35102Y11817
X35102Y12817
X34102Y12817
X34102Y13817
X35102Y13817
X35102Y14817
X34102Y14817
X34102Y15817
X35102Y15817
X35102Y16817
X34102Y16817
X34102Y17817
X35102Y17817
X35102Y18817
X34102Y18817
X34102Y19817
X35102Y19817
T05
X1382Y1006
X1382Y2006
X1382Y3006
X1382Y4006
X1382Y5006
X1382Y6006
X4500Y8029
X4500Y9029
X4500Y10029
X4500Y11029
X13890Y16265
X14890Y16265
X15890Y16265
X15815Y17832
X14815Y17832
X13815Y17832
X12815Y17832
X11815Y17832
X10815Y17832
X9815Y17832
X9815Y18832
X10815Y18832
X11815Y18832
X12815Y18832
X13815Y18832
X14815Y18832
X15815Y18832
X17969Y19391
X18969Y19391
X19969Y19391
X20969Y19391
X23823Y19824
X23823Y18824
X23823Y17824
X23823Y16824
X23823Y15824
X23823Y14824
X23823Y13824
X23823Y12824
X23823Y11824
X23823Y10824
X29335Y10820
X29335Y11820
X29335Y12820
X29335Y13820
X29335Y14820
X29335Y15820
X29335Y16820
X29335Y17820
X29335Y18820
X29335Y19820
X32209Y19817
X32209Y18817
X32209Y17817
X32209Y16817
X32209Y15817
X32209Y14817
X32209Y13817
X32209Y12817
X32209Y11817
X32209Y10817
X32209Y9817
X32209Y8817
X32209Y7817
X32209Y6817
X32209Y5817
X31402Y4553
X30402Y4553
X29402Y4553
X28402Y4553
X26673Y4659
X25673Y4659
X24673Y4659
X23673Y4659
X22673Y4659
X21673Y4659
X20673Y4659
X19673Y4659
X18673Y4659
X17673Y4659
X16673Y4659
X15673Y4659
X14673Y4659
X13673Y4659
X12673Y4659
X11673Y4659
X10673Y4659
X9673Y4659
X8673Y4659
X7673Y4659
X7673Y1116
X8673Y1116
X9673Y1116
X10673Y1116
X11673Y1116
X12673Y1116
X13673Y1116
X14673Y1116
X15673Y1116
X16673Y1116
X17673Y1116
X18673Y1116
X19673Y1116
X20673Y1116
X21673Y1116
X22673Y1116
X23673Y1116
X24673Y1116
X25673Y1116
X26673Y1116
X36933Y5817
X36933Y6817
X36933Y7817
X36933Y8817
X36933Y9817
X36933Y10817
X36933Y11817
X36933Y12817
X36933Y13817
X36933Y14817
X36933Y15817
X36933Y16817
X36933Y17817
X36933Y18817
X36933Y19817
X14669Y12746
X14669Y11746
X14669Y10746
X14669Y9746
X14669Y8746
X14669Y7746
X14669Y6746
T06
X12567Y10588
X12929Y11769
X4016Y12557
X1677Y12557
T07
X20169Y12246
X20169Y7246
T08
X33898Y2100
X19386Y16380
M30
