G75*
%MOIN*%
%OFA0B0*%
%FSLAX25Y25*%
%IPPOS*%
%LPD*%
%AMOC8*
5,1,8,0,0,1.08239X$1,22.5*
%
%ADD10R,0.07887X0.07099*%
%ADD11R,0.06706X0.05918*%
%ADD12R,0.05524X0.06312*%
%ADD13C,0.16942*%
%ADD14C,0.06000*%
%ADD15C,0.06400*%
%ADD16OC8,0.06400*%
%ADD17C,0.06800*%
%ADD18C,0.09461*%
%ADD19OC8,0.06800*%
%ADD20R,0.05918X0.06706*%
%ADD21OC8,0.09300*%
%ADD22R,0.01981X0.04698*%
%ADD23C,0.05950*%
%ADD24C,0.04762*%
D10*
X0277677Y0138362D03*
X0277677Y0149386D03*
D11*
X0268268Y0147732D03*
X0268268Y0140252D03*
X0171378Y0179858D03*
X0171378Y0187339D03*
X0060512Y0112850D03*
X0060512Y0105370D03*
X0061142Y0077732D03*
X0061142Y0070252D03*
D12*
X0046969Y0150252D03*
X0035157Y0150252D03*
X0034843Y0162063D03*
X0046654Y0162063D03*
D13*
X0193858Y0163795D03*
X0338976Y0021000D03*
D14*
X0030750Y0020055D02*
X0025550Y0020055D01*
X0025550Y0010055D02*
X0030750Y0010055D01*
X0030750Y0030055D02*
X0025550Y0030055D01*
X0025550Y0040055D02*
X0030750Y0040055D01*
X0030750Y0050055D02*
X0025550Y0050055D01*
X0025550Y0060055D02*
X0030750Y0060055D01*
D15*
X0076732Y0023874D03*
X0341024Y0198165D03*
D16*
X0351024Y0198165D03*
X0351024Y0188165D03*
X0341024Y0188165D03*
X0341024Y0178165D03*
X0351024Y0178165D03*
X0351024Y0168165D03*
X0341024Y0168165D03*
X0341024Y0158165D03*
X0351024Y0158165D03*
X0351024Y0148165D03*
X0341024Y0148165D03*
X0341024Y0138165D03*
X0351024Y0138165D03*
X0351024Y0128165D03*
X0341024Y0128165D03*
X0341024Y0118165D03*
X0351024Y0118165D03*
X0351024Y0108165D03*
X0341024Y0108165D03*
X0341024Y0098165D03*
X0351024Y0098165D03*
X0351024Y0088165D03*
X0341024Y0088165D03*
X0341024Y0078165D03*
X0351024Y0078165D03*
X0351024Y0068165D03*
X0341024Y0068165D03*
X0341024Y0058165D03*
X0351024Y0058165D03*
X0266732Y0033874D03*
X0256732Y0033874D03*
X0246732Y0033874D03*
X0236732Y0033874D03*
X0226732Y0033874D03*
X0216732Y0033874D03*
X0206732Y0033874D03*
X0196732Y0033874D03*
X0186732Y0033874D03*
X0176732Y0033874D03*
X0166732Y0033874D03*
X0156732Y0033874D03*
X0146732Y0033874D03*
X0136732Y0033874D03*
X0126732Y0033874D03*
X0116732Y0033874D03*
X0106732Y0033874D03*
X0096732Y0033874D03*
X0086732Y0033874D03*
X0076732Y0033874D03*
X0086732Y0023874D03*
X0096732Y0023874D03*
X0106732Y0023874D03*
X0116732Y0023874D03*
X0126732Y0023874D03*
X0136732Y0023874D03*
X0146732Y0023874D03*
X0156732Y0023874D03*
X0166732Y0023874D03*
X0176732Y0023874D03*
X0186732Y0023874D03*
X0196732Y0023874D03*
X0206732Y0023874D03*
X0216732Y0023874D03*
X0226732Y0023874D03*
X0236732Y0023874D03*
X0246732Y0023874D03*
X0256732Y0023874D03*
X0266732Y0023874D03*
D17*
X0016819Y0010055D02*
X0010819Y0010055D01*
X0010819Y0020055D02*
X0016819Y0020055D01*
X0016819Y0030055D02*
X0010819Y0030055D01*
X0010819Y0040055D02*
X0016819Y0040055D01*
X0016819Y0050055D02*
X0010819Y0050055D01*
X0010819Y0060055D02*
X0016819Y0060055D01*
X0042000Y0080291D02*
X0048000Y0080291D01*
X0048000Y0090291D02*
X0042000Y0090291D01*
X0042000Y0100291D02*
X0048000Y0100291D01*
X0048000Y0110291D02*
X0042000Y0110291D01*
X0138898Y0159654D02*
X0138898Y0165654D01*
X0148898Y0165654D02*
X0148898Y0159654D01*
X0158898Y0159654D02*
X0158898Y0165654D01*
X0179685Y0190913D02*
X0179685Y0196913D01*
X0189685Y0196913D02*
X0189685Y0190913D01*
X0199685Y0190913D02*
X0199685Y0196913D01*
X0209685Y0196913D02*
X0209685Y0190913D01*
X0235228Y0188244D02*
X0241228Y0188244D01*
X0241228Y0198244D02*
X0235228Y0198244D01*
X0235228Y0178244D02*
X0241228Y0178244D01*
X0241228Y0168244D02*
X0235228Y0168244D01*
X0235228Y0158244D02*
X0241228Y0158244D01*
X0241228Y0148244D02*
X0235228Y0148244D01*
X0235228Y0138244D02*
X0241228Y0138244D01*
X0241228Y0128244D02*
X0235228Y0128244D01*
X0235228Y0118244D02*
X0241228Y0118244D01*
X0241228Y0108244D02*
X0235228Y0108244D01*
X0290346Y0108205D02*
X0296346Y0108205D01*
X0296346Y0118205D02*
X0290346Y0118205D01*
X0290346Y0128205D02*
X0296346Y0128205D01*
X0296346Y0138205D02*
X0290346Y0138205D01*
X0290346Y0148205D02*
X0296346Y0148205D01*
X0296346Y0158205D02*
X0290346Y0158205D01*
X0290346Y0168205D02*
X0296346Y0168205D01*
X0296346Y0178205D02*
X0290346Y0178205D01*
X0290346Y0188205D02*
X0296346Y0188205D01*
X0296346Y0198205D02*
X0290346Y0198205D01*
X0319087Y0198165D02*
X0325087Y0198165D01*
X0325087Y0188165D02*
X0319087Y0188165D01*
X0319087Y0178165D02*
X0325087Y0178165D01*
X0325087Y0168165D02*
X0319087Y0168165D01*
X0319087Y0158165D02*
X0325087Y0158165D01*
X0325087Y0148165D02*
X0319087Y0148165D01*
X0319087Y0138165D02*
X0325087Y0138165D01*
X0325087Y0128165D02*
X0319087Y0128165D01*
X0319087Y0118165D02*
X0325087Y0118165D01*
X0325087Y0108165D02*
X0319087Y0108165D01*
X0319087Y0098165D02*
X0325087Y0098165D01*
X0325087Y0088165D02*
X0319087Y0088165D01*
X0319087Y0078165D02*
X0325087Y0078165D01*
X0325087Y0068165D02*
X0319087Y0068165D01*
X0319087Y0058165D02*
X0325087Y0058165D01*
X0314016Y0048528D02*
X0314016Y0042528D01*
X0304016Y0042528D02*
X0304016Y0048528D01*
X0294016Y0048528D02*
X0294016Y0042528D01*
X0284016Y0042528D02*
X0284016Y0048528D01*
X0266732Y0049591D02*
X0266732Y0043591D01*
X0256732Y0043591D02*
X0256732Y0049591D01*
X0246732Y0049591D02*
X0246732Y0043591D01*
X0236732Y0043591D02*
X0236732Y0049591D01*
X0226732Y0049591D02*
X0226732Y0043591D01*
X0216732Y0043591D02*
X0216732Y0049591D01*
X0206732Y0049591D02*
X0206732Y0043591D01*
X0196732Y0043591D02*
X0196732Y0049591D01*
X0186732Y0049591D02*
X0186732Y0043591D01*
X0176732Y0043591D02*
X0176732Y0049591D01*
X0166732Y0049591D02*
X0166732Y0043591D01*
X0156732Y0043591D02*
X0156732Y0049591D01*
X0146732Y0049591D02*
X0146732Y0043591D01*
X0136732Y0043591D02*
X0136732Y0049591D01*
X0126732Y0049591D02*
X0126732Y0043591D01*
X0116732Y0043591D02*
X0116732Y0049591D01*
X0106732Y0049591D02*
X0106732Y0043591D01*
X0096732Y0043591D02*
X0096732Y0049591D01*
X0086732Y0049591D02*
X0086732Y0043591D01*
X0076732Y0043591D02*
X0076732Y0049591D01*
X0076732Y0014157D02*
X0076732Y0008157D01*
X0086732Y0008157D02*
X0086732Y0014157D01*
X0096732Y0014157D02*
X0096732Y0008157D01*
X0106732Y0008157D02*
X0106732Y0014157D01*
X0116732Y0014157D02*
X0116732Y0008157D01*
X0126732Y0008157D02*
X0126732Y0014157D01*
X0136732Y0014157D02*
X0136732Y0008157D01*
X0146732Y0008157D02*
X0146732Y0014157D01*
X0156732Y0014157D02*
X0156732Y0008157D01*
X0166732Y0008157D02*
X0166732Y0014157D01*
X0176732Y0014157D02*
X0176732Y0008157D01*
X0186732Y0008157D02*
X0186732Y0014157D01*
X0196732Y0014157D02*
X0196732Y0008157D01*
X0206732Y0008157D02*
X0206732Y0014157D01*
X0216732Y0014157D02*
X0216732Y0008157D01*
X0226732Y0008157D02*
X0226732Y0014157D01*
X0236732Y0014157D02*
X0236732Y0008157D01*
X0246732Y0008157D02*
X0246732Y0014157D01*
X0256732Y0014157D02*
X0256732Y0008157D01*
X0266732Y0008157D02*
X0266732Y0014157D01*
X0366331Y0058165D02*
X0372331Y0058165D01*
X0372331Y0068165D02*
X0366331Y0068165D01*
X0366331Y0078165D02*
X0372331Y0078165D01*
X0372331Y0088165D02*
X0366331Y0088165D01*
X0366331Y0098165D02*
X0372331Y0098165D01*
X0372331Y0108165D02*
X0366331Y0108165D01*
X0366331Y0118165D02*
X0372331Y0118165D01*
X0372331Y0128165D02*
X0366331Y0128165D01*
X0366331Y0138165D02*
X0372331Y0138165D01*
X0372331Y0148165D02*
X0366331Y0148165D01*
X0366331Y0158165D02*
X0372331Y0158165D01*
X0372331Y0168165D02*
X0366331Y0168165D01*
X0366331Y0178165D02*
X0372331Y0178165D01*
X0372331Y0188165D02*
X0366331Y0188165D01*
X0366331Y0198165D02*
X0372331Y0198165D01*
X0149693Y0127457D02*
X0143693Y0127457D01*
X0143693Y0117457D02*
X0149693Y0117457D01*
X0149693Y0107457D02*
X0143693Y0107457D01*
X0143693Y0097457D02*
X0149693Y0097457D01*
X0149693Y0087457D02*
X0143693Y0087457D01*
X0143693Y0077457D02*
X0149693Y0077457D01*
X0149693Y0067457D02*
X0143693Y0067457D01*
D18*
X0201693Y0072457D03*
X0201693Y0122457D03*
D19*
X0158150Y0178323D03*
X0148150Y0178323D03*
X0138150Y0178323D03*
X0128150Y0178323D03*
X0118150Y0178323D03*
X0108150Y0178323D03*
X0098150Y0178323D03*
X0098150Y0188323D03*
X0108150Y0188323D03*
X0118150Y0188323D03*
X0128150Y0188323D03*
X0138150Y0188323D03*
X0148150Y0188323D03*
X0158150Y0188323D03*
D20*
X0077559Y0174543D03*
X0070079Y0174543D03*
X0069764Y0150921D03*
X0077244Y0150921D03*
X0024094Y0150291D03*
X0016614Y0150291D03*
X0016929Y0162102D03*
X0024409Y0162102D03*
X0256063Y0180449D03*
X0263543Y0180449D03*
X0273071Y0180449D03*
X0280551Y0180449D03*
X0280551Y0189661D03*
X0273071Y0189661D03*
X0263425Y0189661D03*
X0255945Y0189661D03*
D21*
X0129291Y0117693D03*
X0125669Y0105882D03*
X0040157Y0125567D03*
X0016772Y0125567D03*
D22*
X0058268Y0094150D03*
X0060827Y0094150D03*
X0063386Y0094150D03*
X0063386Y0087811D03*
X0060827Y0087811D03*
X0058268Y0087811D03*
X0068110Y0159228D03*
X0070669Y0159228D03*
X0073228Y0159228D03*
X0073228Y0165567D03*
X0070669Y0165567D03*
X0068110Y0165567D03*
D23*
X0220669Y0163362D03*
X0220669Y0155488D03*
X0220669Y0147614D03*
X0220669Y0139740D03*
X0220669Y0131866D03*
X0220669Y0123992D03*
X0307283Y0123992D03*
X0307283Y0131866D03*
X0307283Y0139740D03*
X0307283Y0147614D03*
X0307283Y0155488D03*
X0307283Y0163362D03*
X0307283Y0171236D03*
X0307283Y0179110D03*
X0307283Y0186984D03*
X0307283Y0194858D03*
X0220669Y0194858D03*
X0220669Y0186984D03*
X0220669Y0179110D03*
X0220669Y0171236D03*
D24*
X0265551Y0172260D03*
X0273425Y0195882D03*
X0169094Y0168323D03*
X0127756Y0146276D03*
X0121850Y0147063D03*
X0098228Y0150606D03*
X0094291Y0154543D03*
X0077756Y0160449D03*
X0054921Y0150606D03*
X0016732Y0140764D03*
X0060827Y0128953D03*
X0072638Y0119110D03*
X0084449Y0125016D03*
X0108071Y0105331D03*
X0102165Y0089583D03*
X0070669Y0097457D03*
X0068701Y0087614D03*
X0176969Y0105331D03*
X0182874Y0091551D03*
X0182874Y0075803D03*
X0210433Y0093520D03*
X0228150Y0097457D03*
X0125787Y0164386D03*
X0112008Y0170291D03*
M02*
