G75*
%MOIN*%
%OFA0B0*%
%FSLAX25Y25*%
%IPPOS*%
%LPD*%
%AMOC8*
5,1,8,0,0,1.08239X$1,22.5*
%
%ADD10R,0.07087X0.06299*%
%ADD11R,0.05906X0.05118*%
%ADD12C,0.05200*%
%ADD13C,0.05600*%
%ADD14OC8,0.05600*%
%ADD15C,0.06000*%
%ADD16OC8,0.06000*%
%ADD17R,0.21000X0.07600*%
%ADD18OC8,0.08500*%
%ADD19R,0.01400X0.05800*%
%ADD20C,0.05150*%
%ADD21R,0.05118X0.05906*%
%ADD22C,0.01600*%
%ADD23C,0.03962*%
%ADD24C,0.01200*%
D10*
X0069921Y0128047D03*
X0069921Y0139071D03*
D11*
X0079764Y0139268D03*
X0079764Y0131787D03*
X0111535Y0156276D03*
X0111535Y0163756D03*
X0119567Y0163638D03*
X0119567Y0156157D03*
D12*
X0032600Y0060055D02*
X0027400Y0060055D01*
X0027400Y0050055D02*
X0032600Y0050055D01*
X0032600Y0040055D02*
X0027400Y0040055D01*
X0027400Y0030055D02*
X0032600Y0030055D01*
X0032600Y0020055D02*
X0027400Y0020055D01*
X0027400Y0010055D02*
X0032600Y0010055D01*
D13*
X0076732Y0023874D03*
X0341024Y0198165D03*
D14*
X0351024Y0198165D03*
X0351024Y0188165D03*
X0341024Y0188165D03*
X0341024Y0178165D03*
X0351024Y0178165D03*
X0351024Y0168165D03*
X0341024Y0168165D03*
X0341024Y0158165D03*
X0351024Y0158165D03*
X0351024Y0148165D03*
X0341024Y0148165D03*
X0341024Y0138165D03*
X0351024Y0138165D03*
X0351024Y0128165D03*
X0341024Y0128165D03*
X0341024Y0118165D03*
X0351024Y0118165D03*
X0351024Y0108165D03*
X0341024Y0108165D03*
X0341024Y0098165D03*
X0351024Y0098165D03*
X0351024Y0088165D03*
X0341024Y0088165D03*
X0341024Y0078165D03*
X0351024Y0078165D03*
X0351024Y0068165D03*
X0341024Y0068165D03*
X0341024Y0058165D03*
X0351024Y0058165D03*
X0266732Y0033874D03*
X0256732Y0033874D03*
X0246732Y0033874D03*
X0236732Y0033874D03*
X0226732Y0033874D03*
X0216732Y0033874D03*
X0206732Y0033874D03*
X0196732Y0033874D03*
X0186732Y0033874D03*
X0176732Y0033874D03*
X0166732Y0033874D03*
X0156732Y0033874D03*
X0146732Y0033874D03*
X0136732Y0033874D03*
X0126732Y0033874D03*
X0116732Y0033874D03*
X0106732Y0033874D03*
X0096732Y0033874D03*
X0086732Y0033874D03*
X0076732Y0033874D03*
X0086732Y0023874D03*
X0096732Y0023874D03*
X0106732Y0023874D03*
X0116732Y0023874D03*
X0126732Y0023874D03*
X0136732Y0023874D03*
X0146732Y0023874D03*
X0156732Y0023874D03*
X0166732Y0023874D03*
X0176732Y0023874D03*
X0186732Y0023874D03*
X0196732Y0023874D03*
X0206732Y0023874D03*
X0216732Y0023874D03*
X0226732Y0023874D03*
X0236732Y0023874D03*
X0246732Y0023874D03*
X0256732Y0023874D03*
X0266732Y0023874D03*
D15*
X0016819Y0010055D02*
X0010819Y0010055D01*
X0010819Y0020055D02*
X0016819Y0020055D01*
X0016819Y0030055D02*
X0010819Y0030055D01*
X0010819Y0040055D02*
X0016819Y0040055D01*
X0016819Y0050055D02*
X0010819Y0050055D01*
X0010819Y0060055D02*
X0016819Y0060055D01*
X0042000Y0080291D02*
X0048000Y0080291D01*
X0048000Y0090291D02*
X0042000Y0090291D01*
X0042000Y0100291D02*
X0048000Y0100291D01*
X0048000Y0110291D02*
X0042000Y0110291D01*
X0138898Y0159654D02*
X0138898Y0165654D01*
X0148898Y0165654D02*
X0148898Y0159654D01*
X0158898Y0159654D02*
X0158898Y0165654D01*
X0179685Y0190913D02*
X0179685Y0196913D01*
X0189685Y0196913D02*
X0189685Y0190913D01*
X0199685Y0190913D02*
X0199685Y0196913D01*
X0209685Y0196913D02*
X0209685Y0190913D01*
X0235228Y0188244D02*
X0241228Y0188244D01*
X0241228Y0178244D02*
X0235228Y0178244D01*
X0235228Y0168244D02*
X0241228Y0168244D01*
X0241228Y0158244D02*
X0235228Y0158244D01*
X0235228Y0148244D02*
X0241228Y0148244D01*
X0241228Y0138244D02*
X0235228Y0138244D01*
X0235228Y0128244D02*
X0241228Y0128244D01*
X0241228Y0118244D02*
X0235228Y0118244D01*
X0235228Y0108244D02*
X0241228Y0108244D01*
X0290346Y0108205D02*
X0296346Y0108205D01*
X0296346Y0118205D02*
X0290346Y0118205D01*
X0290346Y0128205D02*
X0296346Y0128205D01*
X0296346Y0138205D02*
X0290346Y0138205D01*
X0290346Y0148205D02*
X0296346Y0148205D01*
X0296346Y0158205D02*
X0290346Y0158205D01*
X0290346Y0168205D02*
X0296346Y0168205D01*
X0296346Y0178205D02*
X0290346Y0178205D01*
X0290346Y0188205D02*
X0296346Y0188205D01*
X0296346Y0198205D02*
X0290346Y0198205D01*
X0319087Y0198165D02*
X0325087Y0198165D01*
X0325087Y0188165D02*
X0319087Y0188165D01*
X0319087Y0178165D02*
X0325087Y0178165D01*
X0325087Y0168165D02*
X0319087Y0168165D01*
X0319087Y0158165D02*
X0325087Y0158165D01*
X0325087Y0148165D02*
X0319087Y0148165D01*
X0319087Y0138165D02*
X0325087Y0138165D01*
X0325087Y0128165D02*
X0319087Y0128165D01*
X0319087Y0118165D02*
X0325087Y0118165D01*
X0325087Y0108165D02*
X0319087Y0108165D01*
X0319087Y0098165D02*
X0325087Y0098165D01*
X0325087Y0088165D02*
X0319087Y0088165D01*
X0319087Y0078165D02*
X0325087Y0078165D01*
X0325087Y0068165D02*
X0319087Y0068165D01*
X0319087Y0058165D02*
X0325087Y0058165D01*
X0314016Y0048528D02*
X0314016Y0042528D01*
X0304016Y0042528D02*
X0304016Y0048528D01*
X0294016Y0048528D02*
X0294016Y0042528D01*
X0284016Y0042528D02*
X0284016Y0048528D01*
X0266732Y0049591D02*
X0266732Y0043591D01*
X0256732Y0043591D02*
X0256732Y0049591D01*
X0246732Y0049591D02*
X0246732Y0043591D01*
X0236732Y0043591D02*
X0236732Y0049591D01*
X0226732Y0049591D02*
X0226732Y0043591D01*
X0216732Y0043591D02*
X0216732Y0049591D01*
X0206732Y0049591D02*
X0206732Y0043591D01*
X0196732Y0043591D02*
X0196732Y0049591D01*
X0186732Y0049591D02*
X0186732Y0043591D01*
X0176732Y0043591D02*
X0176732Y0049591D01*
X0166732Y0049591D02*
X0166732Y0043591D01*
X0156732Y0043591D02*
X0156732Y0049591D01*
X0146732Y0049591D02*
X0146732Y0043591D01*
X0136732Y0043591D02*
X0136732Y0049591D01*
X0126732Y0049591D02*
X0126732Y0043591D01*
X0116732Y0043591D02*
X0116732Y0049591D01*
X0106732Y0049591D02*
X0106732Y0043591D01*
X0096732Y0043591D02*
X0096732Y0049591D01*
X0086732Y0049591D02*
X0086732Y0043591D01*
X0076732Y0043591D02*
X0076732Y0049591D01*
X0076732Y0014157D02*
X0076732Y0008157D01*
X0086732Y0008157D02*
X0086732Y0014157D01*
X0096732Y0014157D02*
X0096732Y0008157D01*
X0106732Y0008157D02*
X0106732Y0014157D01*
X0116732Y0014157D02*
X0116732Y0008157D01*
X0126732Y0008157D02*
X0126732Y0014157D01*
X0136732Y0014157D02*
X0136732Y0008157D01*
X0146732Y0008157D02*
X0146732Y0014157D01*
X0156732Y0014157D02*
X0156732Y0008157D01*
X0166732Y0008157D02*
X0166732Y0014157D01*
X0176732Y0014157D02*
X0176732Y0008157D01*
X0186732Y0008157D02*
X0186732Y0014157D01*
X0196732Y0014157D02*
X0196732Y0008157D01*
X0206732Y0008157D02*
X0206732Y0014157D01*
X0216732Y0014157D02*
X0216732Y0008157D01*
X0226732Y0008157D02*
X0226732Y0014157D01*
X0236732Y0014157D02*
X0236732Y0008157D01*
X0246732Y0008157D02*
X0246732Y0014157D01*
X0256732Y0014157D02*
X0256732Y0008157D01*
X0266732Y0008157D02*
X0266732Y0014157D01*
X0366331Y0058165D02*
X0372331Y0058165D01*
X0372331Y0068165D02*
X0366331Y0068165D01*
X0366331Y0078165D02*
X0372331Y0078165D01*
X0372331Y0088165D02*
X0366331Y0088165D01*
X0366331Y0098165D02*
X0372331Y0098165D01*
X0372331Y0108165D02*
X0366331Y0108165D01*
X0366331Y0118165D02*
X0372331Y0118165D01*
X0372331Y0128165D02*
X0366331Y0128165D01*
X0366331Y0138165D02*
X0372331Y0138165D01*
X0372331Y0148165D02*
X0366331Y0148165D01*
X0366331Y0158165D02*
X0372331Y0158165D01*
X0372331Y0168165D02*
X0366331Y0168165D01*
X0366331Y0178165D02*
X0372331Y0178165D01*
X0372331Y0188165D02*
X0366331Y0188165D01*
X0366331Y0198165D02*
X0372331Y0198165D01*
X0241228Y0198244D02*
X0235228Y0198244D01*
X0149693Y0127457D02*
X0143693Y0127457D01*
X0143693Y0117457D02*
X0149693Y0117457D01*
X0149693Y0107457D02*
X0143693Y0107457D01*
X0143693Y0097457D02*
X0149693Y0097457D01*
X0149693Y0087457D02*
X0143693Y0087457D01*
X0143693Y0077457D02*
X0149693Y0077457D01*
X0149693Y0067457D02*
X0143693Y0067457D01*
D16*
X0148150Y0178323D03*
X0158150Y0178323D03*
X0158150Y0188323D03*
X0148150Y0188323D03*
X0138150Y0188323D03*
X0128150Y0188323D03*
X0118150Y0188323D03*
X0108150Y0188323D03*
X0098150Y0188323D03*
X0098150Y0178323D03*
X0108150Y0178323D03*
X0118150Y0178323D03*
X0128150Y0178323D03*
X0138150Y0178323D03*
D17*
X0123843Y0085803D03*
X0085843Y0085803D03*
D18*
X0125669Y0105882D03*
X0129291Y0117693D03*
X0040157Y0125567D03*
X0016772Y0125567D03*
D19*
X0095075Y0121508D03*
X0097575Y0121508D03*
X0100175Y0121508D03*
X0102775Y0121508D03*
X0105275Y0121508D03*
X0107875Y0121508D03*
X0110375Y0121508D03*
X0112975Y0121508D03*
X0115575Y0121508D03*
X0118075Y0121508D03*
X0118075Y0144508D03*
X0115575Y0144508D03*
X0112975Y0144508D03*
X0110375Y0144508D03*
X0107875Y0144508D03*
X0105275Y0144508D03*
X0102775Y0144508D03*
X0100175Y0144508D03*
X0097575Y0144508D03*
X0095075Y0144508D03*
D20*
X0220669Y0147614D03*
X0220669Y0139740D03*
X0220669Y0131866D03*
X0220669Y0123992D03*
X0220669Y0155488D03*
X0220669Y0163362D03*
X0220669Y0171236D03*
X0220669Y0179110D03*
X0220669Y0186984D03*
X0220669Y0194858D03*
X0307283Y0194858D03*
X0307283Y0186984D03*
X0307283Y0179110D03*
X0307283Y0171236D03*
X0307283Y0163362D03*
X0307283Y0155488D03*
X0307283Y0147614D03*
X0307283Y0139740D03*
X0307283Y0131866D03*
X0307283Y0123992D03*
D21*
X0121654Y0069898D03*
X0114173Y0069898D03*
X0094094Y0069898D03*
X0086614Y0069898D03*
D22*
X0086417Y0070094D01*
X0086417Y0085646D01*
X0068701Y0087614D02*
X0061378Y0080291D01*
X0045000Y0080291D01*
X0045079Y0089583D02*
X0045079Y0090213D01*
X0045000Y0090291D01*
X0045079Y0089583D02*
X0062795Y0089583D01*
X0070669Y0097457D01*
X0078543Y0113205D02*
X0072638Y0119110D01*
X0078543Y0113205D02*
X0092323Y0113205D01*
X0091894Y0121508D02*
X0095075Y0121508D01*
X0091893Y0121508D02*
X0091749Y0121458D01*
X0091604Y0121413D01*
X0091458Y0121370D01*
X0091310Y0121332D01*
X0091162Y0121298D01*
X0091012Y0121268D01*
X0090862Y0121241D01*
X0090712Y0121218D01*
X0090561Y0121200D01*
X0090409Y0121185D01*
X0090257Y0121174D01*
X0090105Y0121168D01*
X0089953Y0121165D01*
X0089800Y0121166D01*
X0089648Y0121172D01*
X0089496Y0121181D01*
X0089344Y0121194D01*
X0089193Y0121211D01*
X0089042Y0121232D01*
X0088892Y0121257D01*
X0088742Y0121286D01*
X0088593Y0121319D01*
X0088446Y0121356D01*
X0088299Y0121397D01*
X0088153Y0121441D01*
X0088009Y0121490D01*
X0087865Y0121542D01*
X0087724Y0121597D01*
X0087583Y0121657D01*
X0087445Y0121720D01*
X0087308Y0121787D01*
X0087173Y0121857D01*
X0087039Y0121931D01*
X0086908Y0122008D01*
X0086779Y0122089D01*
X0086652Y0122173D01*
X0086527Y0122260D01*
X0086405Y0122351D01*
X0086284Y0122445D01*
X0086167Y0122541D01*
X0086052Y0122641D01*
X0085939Y0122744D01*
X0085830Y0122850D01*
X0085723Y0122959D01*
X0085619Y0123070D01*
X0085518Y0123184D01*
X0085420Y0123301D01*
X0085325Y0123420D01*
X0085234Y0123541D01*
X0085145Y0123665D01*
X0085060Y0123792D01*
X0084978Y0123920D01*
X0084899Y0124051D01*
X0084824Y0124183D01*
X0084753Y0124318D01*
X0084685Y0124454D01*
X0084620Y0124592D01*
X0084560Y0124732D01*
X0084502Y0124873D01*
X0084449Y0125016D01*
X0077598Y0128047D02*
X0079764Y0131787D01*
X0077598Y0128047D02*
X0069921Y0128047D01*
X0063701Y0128047D01*
X0060827Y0128953D01*
X0069921Y0139071D02*
X0042835Y0139071D01*
X0041142Y0140764D01*
X0016732Y0140764D01*
X0054921Y0150606D02*
X0064764Y0160449D01*
X0077756Y0160449D01*
X0093110Y0168717D02*
X0102165Y0157693D01*
X0102165Y0152575D01*
X0106102Y0152575D02*
X0106102Y0168323D01*
X0098150Y0176276D01*
X0098150Y0178323D01*
X0094291Y0183283D02*
X0093110Y0182102D01*
X0093110Y0168717D01*
X0103189Y0183283D02*
X0108150Y0178323D01*
X0103189Y0183283D02*
X0094291Y0183283D01*
X0088386Y0188008D02*
X0094291Y0193913D01*
X0122559Y0193913D01*
X0128150Y0188323D01*
X0148150Y0178323D02*
X0138898Y0162654D01*
X0125787Y0164386D02*
X0119882Y0164386D01*
X0119567Y0164071D01*
X0119567Y0163638D01*
X0117323Y0163362D01*
X0111963Y0163727D01*
X0111963Y0168278D01*
X0112008Y0170291D01*
X0111535Y0163756D02*
X0111963Y0163727D01*
X0119567Y0156157D02*
X0114016Y0150606D01*
X0113976Y0150606D01*
X0112975Y0149605D01*
X0112975Y0144508D01*
X0115575Y0144508D02*
X0115575Y0148268D01*
X0118701Y0151394D01*
X0126969Y0151394D01*
X0127756Y0150606D01*
X0157283Y0150606D01*
X0165157Y0158480D01*
X0165157Y0170291D01*
X0182874Y0188008D01*
X0186811Y0188008D01*
X0189685Y0190882D01*
X0189685Y0193913D01*
X0199685Y0193913D02*
X0199685Y0188283D01*
X0197441Y0186039D01*
X0184843Y0186039D01*
X0169094Y0170291D01*
X0169094Y0168323D01*
X0158898Y0162654D02*
X0158150Y0178323D01*
X0158150Y0188323D02*
X0158150Y0193047D01*
X0151378Y0199819D01*
X0092323Y0199819D01*
X0084449Y0191945D01*
X0084449Y0144701D01*
X0088386Y0144701D02*
X0088386Y0188008D01*
X0127756Y0150606D02*
X0127756Y0146276D01*
X0121850Y0147063D02*
X0120268Y0144701D01*
X0120075Y0144508D01*
X0118075Y0144508D01*
X0137598Y0146669D02*
X0163970Y0146669D01*
X0165551Y0145088D01*
X0212402Y0097457D01*
X0228150Y0097457D01*
X0210433Y0093520D02*
X0161220Y0142732D01*
X0139567Y0142732D01*
X0141535Y0138795D02*
X0159252Y0138795D01*
X0206496Y0089583D01*
X0247835Y0089583D01*
X0265551Y0111236D01*
X0265551Y0172260D01*
X0293346Y0168205D02*
X0296378Y0171236D01*
X0307283Y0171236D01*
X0306378Y0178205D02*
X0293346Y0178205D01*
X0306378Y0178205D02*
X0307283Y0179110D01*
X0307283Y0186984D02*
X0306063Y0188205D01*
X0293346Y0188205D01*
X0303937Y0198205D02*
X0307283Y0194858D01*
X0303937Y0198205D02*
X0293346Y0198205D01*
X0273425Y0195882D02*
X0273425Y0113205D01*
X0249803Y0085646D01*
X0204528Y0085646D01*
X0157283Y0134858D01*
X0141535Y0134858D01*
X0165157Y0145488D02*
X0165551Y0145088D01*
X0220669Y0155488D02*
X0227913Y0148244D01*
X0238228Y0148244D01*
X0238228Y0158244D02*
X0225787Y0158244D01*
X0220669Y0163362D01*
X0223661Y0168244D02*
X0220669Y0171236D01*
X0223661Y0168244D02*
X0238228Y0168244D01*
X0238228Y0178244D02*
X0221535Y0178244D01*
X0220669Y0179110D01*
X0220669Y0186984D02*
X0221929Y0188244D01*
X0238228Y0188244D01*
X0224055Y0198244D02*
X0220669Y0194858D01*
X0224055Y0198244D02*
X0238228Y0198244D01*
X0293346Y0158205D02*
X0298504Y0163362D01*
X0307283Y0163362D01*
X0307283Y0155488D02*
X0300630Y0155488D01*
X0293346Y0148205D01*
X0304882Y0139740D02*
X0307283Y0139740D01*
X0304882Y0139740D02*
X0293346Y0128205D01*
X0293346Y0118205D02*
X0307008Y0131866D01*
X0307283Y0123992D02*
X0307283Y0115567D01*
X0299921Y0108205D01*
X0293346Y0108205D01*
X0322087Y0108165D02*
X0341024Y0108165D01*
X0351024Y0108165D02*
X0369331Y0108165D01*
X0369331Y0098165D02*
X0351024Y0098165D01*
X0351024Y0088165D02*
X0369331Y0088165D01*
X0369331Y0078165D02*
X0351024Y0078165D01*
X0341024Y0078165D02*
X0322087Y0078165D01*
X0322087Y0088165D02*
X0341024Y0088165D01*
X0341024Y0068165D02*
X0322087Y0068165D01*
X0322087Y0058165D02*
X0341024Y0058165D01*
X0351024Y0058165D02*
X0369331Y0058165D01*
X0369331Y0118165D02*
X0351024Y0118165D01*
X0341024Y0118165D02*
X0322087Y0118165D01*
X0322087Y0128165D02*
X0341024Y0128165D01*
X0351024Y0128165D02*
X0369331Y0128165D01*
X0369331Y0138165D02*
X0351024Y0138165D01*
X0341024Y0138165D02*
X0322087Y0138165D01*
X0351024Y0148165D02*
X0369331Y0148165D01*
X0341024Y0158165D02*
X0322087Y0158165D01*
X0322087Y0168165D02*
X0341024Y0168165D01*
X0351024Y0168165D02*
X0369331Y0168165D01*
X0369331Y0178165D02*
X0352165Y0178165D01*
X0351024Y0178165D01*
X0341024Y0178165D02*
X0322087Y0178165D01*
X0322087Y0188165D02*
X0341024Y0188165D01*
X0351024Y0188165D02*
X0369331Y0188165D01*
X0369331Y0178165D02*
X0369882Y0178165D01*
X0369331Y0198165D02*
X0351024Y0198165D01*
X0341024Y0198165D02*
X0322087Y0198165D01*
X0234921Y0118244D02*
X0221299Y0131866D01*
X0234921Y0118244D02*
X0238228Y0118244D01*
X0159252Y0089583D02*
X0151378Y0097457D01*
X0146693Y0097457D01*
X0159252Y0089583D02*
X0159252Y0063992D01*
X0153346Y0058087D01*
X0105709Y0058087D01*
X0101772Y0054150D01*
X0101772Y0028913D01*
X0096732Y0023874D01*
X0096732Y0011157D01*
X0106732Y0011157D02*
X0106732Y0023874D01*
X0091535Y0029071D02*
X0091535Y0056906D01*
X0097047Y0062024D01*
X0129724Y0062024D01*
X0145472Y0077772D01*
X0147008Y0077772D01*
X0146693Y0077457D01*
X0147008Y0077772D02*
X0147441Y0077772D01*
X0121850Y0077772D02*
X0121654Y0069898D01*
X0114173Y0069898D02*
X0104134Y0069898D01*
X0094094Y0069898D01*
X0121850Y0077772D02*
X0121850Y0087614D01*
X0107875Y0105135D02*
X0108071Y0105331D01*
X0079764Y0139268D02*
X0077598Y0139268D01*
X0069921Y0139071D01*
X0030000Y0060055D02*
X0013819Y0060055D01*
X0013819Y0050055D02*
X0030000Y0050055D01*
X0030000Y0040055D02*
X0013819Y0040055D01*
X0013819Y0020055D02*
X0030000Y0020055D01*
X0076732Y0023874D02*
X0076732Y0011157D01*
X0086732Y0011157D02*
X0086732Y0023874D01*
X0091535Y0029071D01*
X0086732Y0033874D02*
X0086732Y0046591D01*
X0076732Y0046591D02*
X0076732Y0033874D01*
X0106732Y0033874D02*
X0106732Y0046591D01*
X0116732Y0046591D02*
X0116732Y0033874D01*
X0126732Y0033874D02*
X0126732Y0046591D01*
X0146732Y0046591D02*
X0146732Y0033874D01*
X0156732Y0033874D02*
X0156732Y0046591D01*
X0176732Y0046591D02*
X0176732Y0033874D01*
X0186732Y0033874D02*
X0186732Y0046591D01*
X0196732Y0046591D02*
X0196732Y0033874D01*
X0206732Y0033874D02*
X0206732Y0046591D01*
X0226732Y0046591D02*
X0226732Y0033874D01*
X0226732Y0023874D02*
X0226732Y0011157D01*
X0216732Y0011157D02*
X0216732Y0023874D01*
X0206732Y0023874D02*
X0206732Y0011157D01*
X0186732Y0011157D02*
X0186732Y0023874D01*
X0176732Y0023874D02*
X0176732Y0011157D01*
X0166732Y0011157D02*
X0166732Y0023874D01*
X0156732Y0023874D02*
X0156732Y0011157D01*
X0146732Y0011157D02*
X0146732Y0023874D01*
X0136732Y0023874D02*
X0136732Y0011157D01*
X0126732Y0011157D02*
X0126732Y0023874D01*
X0236732Y0023874D02*
X0236732Y0011157D01*
X0246732Y0011157D02*
X0246732Y0023874D01*
X0256732Y0023874D02*
X0256732Y0011157D01*
X0256732Y0033874D02*
X0256732Y0046591D01*
X0246732Y0046591D02*
X0246732Y0033874D01*
X0266732Y0033874D02*
X0266732Y0046591D01*
D23*
X0210433Y0093520D03*
X0228150Y0097457D03*
X0127756Y0146276D03*
X0121850Y0147063D03*
X0098228Y0150606D03*
X0094291Y0154543D03*
X0077756Y0160449D03*
X0054921Y0150606D03*
X0060827Y0128953D03*
X0072638Y0119110D03*
X0084449Y0125016D03*
X0108071Y0105331D03*
X0070669Y0097457D03*
X0068701Y0087614D03*
X0104134Y0069898D03*
X0016732Y0140764D03*
X0112008Y0170291D03*
X0125787Y0164386D03*
X0169094Y0168323D03*
X0265551Y0172260D03*
X0273425Y0195882D03*
D24*
X0307008Y0131866D02*
X0307283Y0131866D01*
X0221299Y0131866D02*
X0220669Y0131866D01*
X0141535Y0134858D02*
X0133661Y0126984D01*
X0119882Y0126984D01*
X0118075Y0125177D01*
X0118075Y0121508D01*
X0115575Y0121508D02*
X0115575Y0128583D01*
X0117913Y0130921D01*
X0133661Y0130921D01*
X0141535Y0138795D01*
X0139567Y0142732D02*
X0134055Y0137614D01*
X0102559Y0137614D01*
X0100175Y0139998D01*
X0100175Y0144508D01*
X0102775Y0144508D02*
X0102775Y0141335D01*
X0104134Y0139976D01*
X0130906Y0139976D01*
X0137598Y0146669D01*
X0110375Y0144508D02*
X0110375Y0153893D01*
X0111535Y0156276D01*
X0106102Y0152575D02*
X0107875Y0150802D01*
X0107875Y0144508D01*
X0105275Y0144508D02*
X0105275Y0149465D01*
X0102165Y0152575D01*
X0098228Y0150606D02*
X0097575Y0149953D01*
X0097575Y0144508D01*
X0095075Y0144508D02*
X0094291Y0145291D01*
X0094291Y0154543D01*
X0088386Y0144701D02*
X0098228Y0135252D01*
X0108071Y0135252D01*
X0112975Y0129954D01*
X0112975Y0121508D01*
X0110375Y0121508D02*
X0110375Y0128617D01*
X0106102Y0132890D01*
X0096260Y0132890D01*
X0084449Y0144701D01*
X0085157Y0139268D02*
X0079764Y0139268D01*
X0085157Y0139268D02*
X0094291Y0130134D01*
X0104528Y0130134D01*
X0107875Y0126787D01*
X0107875Y0121508D01*
X0107875Y0105135D01*
X0100175Y0107277D02*
X0086417Y0093520D01*
X0086417Y0085646D01*
X0086000Y0085646D01*
X0085843Y0085803D01*
X0102775Y0096847D02*
X0121850Y0087614D01*
X0123661Y0085803D01*
X0123843Y0085803D01*
X0123819Y0085780D01*
X0123819Y0085646D01*
X0102775Y0096847D02*
X0102775Y0121508D01*
X0105275Y0121508D02*
X0105275Y0125843D01*
X0104134Y0126984D01*
X0092323Y0126984D01*
X0087520Y0131787D01*
X0079764Y0131787D01*
X0097575Y0121508D02*
X0097575Y0118457D01*
X0100175Y0121508D02*
X0100175Y0107277D01*
X0092323Y0113205D02*
X0092465Y0113207D01*
X0092607Y0113213D01*
X0092749Y0113222D01*
X0092891Y0113236D01*
X0093032Y0113253D01*
X0093173Y0113274D01*
X0093313Y0113299D01*
X0093452Y0113328D01*
X0093591Y0113360D01*
X0093728Y0113396D01*
X0093865Y0113436D01*
X0094000Y0113480D01*
X0094134Y0113527D01*
X0094267Y0113578D01*
X0094398Y0113632D01*
X0094528Y0113690D01*
X0094657Y0113752D01*
X0094783Y0113817D01*
X0094908Y0113885D01*
X0095031Y0113957D01*
X0095152Y0114032D01*
X0095270Y0114110D01*
X0095387Y0114191D01*
X0095501Y0114276D01*
X0095613Y0114364D01*
X0095723Y0114454D01*
X0095830Y0114548D01*
X0095935Y0114644D01*
X0096037Y0114743D01*
X0096136Y0114845D01*
X0096232Y0114950D01*
X0096326Y0115057D01*
X0096416Y0115167D01*
X0096504Y0115279D01*
X0096589Y0115393D01*
X0096670Y0115510D01*
X0096748Y0115628D01*
X0096823Y0115749D01*
X0096895Y0115872D01*
X0096963Y0115997D01*
X0097028Y0116123D01*
X0097090Y0116252D01*
X0097148Y0116382D01*
X0097202Y0116513D01*
X0097253Y0116646D01*
X0097300Y0116780D01*
X0097344Y0116915D01*
X0097384Y0117052D01*
X0097420Y0117189D01*
X0097452Y0117328D01*
X0097481Y0117467D01*
X0097506Y0117607D01*
X0097527Y0117748D01*
X0097544Y0117889D01*
X0097558Y0118031D01*
X0097567Y0118173D01*
X0097573Y0118315D01*
X0097575Y0118457D01*
M02*
