G75*
%MOIN*%
%OFA0B0*%
%FSLAX25Y25*%
%IPPOS*%
%LPD*%
%AMOC8*
5,1,8,0,0,1.08239X$1,22.5*
%
%ADD10C,0.00000*%
%ADD11C,0.00400*%
%ADD12C,0.00800*%
%ADD13C,0.00100*%
%ADD14C,0.00600*%
%ADD15C,0.00500*%
%ADD16C,0.03000*%
%ADD17R,0.02000X0.03000*%
%ADD18R,0.04000X0.03000*%
%ADD19R,0.03000X0.02000*%
%ADD20R,0.03000X0.04000*%
D10*
X0001772Y0001000D02*
X0001772Y0205724D01*
X0383661Y0205724D01*
X0383661Y0001000D01*
X0001772Y0001000D01*
X0197362Y0072457D02*
X0197364Y0072588D01*
X0197370Y0072720D01*
X0197380Y0072851D01*
X0197394Y0072982D01*
X0197412Y0073112D01*
X0197434Y0073241D01*
X0197459Y0073370D01*
X0197489Y0073498D01*
X0197523Y0073625D01*
X0197560Y0073752D01*
X0197601Y0073876D01*
X0197646Y0074000D01*
X0197695Y0074122D01*
X0197747Y0074243D01*
X0197803Y0074361D01*
X0197863Y0074479D01*
X0197926Y0074594D01*
X0197993Y0074707D01*
X0198063Y0074819D01*
X0198136Y0074928D01*
X0198212Y0075034D01*
X0198292Y0075139D01*
X0198375Y0075241D01*
X0198461Y0075340D01*
X0198550Y0075437D01*
X0198642Y0075531D01*
X0198737Y0075622D01*
X0198834Y0075711D01*
X0198934Y0075796D01*
X0199037Y0075878D01*
X0199142Y0075957D01*
X0199249Y0076033D01*
X0199359Y0076105D01*
X0199471Y0076174D01*
X0199585Y0076240D01*
X0199700Y0076302D01*
X0199818Y0076361D01*
X0199937Y0076416D01*
X0200058Y0076468D01*
X0200181Y0076515D01*
X0200305Y0076559D01*
X0200430Y0076600D01*
X0200556Y0076636D01*
X0200684Y0076669D01*
X0200812Y0076697D01*
X0200941Y0076722D01*
X0201071Y0076743D01*
X0201201Y0076760D01*
X0201332Y0076773D01*
X0201463Y0076782D01*
X0201594Y0076787D01*
X0201726Y0076788D01*
X0201857Y0076785D01*
X0201989Y0076778D01*
X0202120Y0076767D01*
X0202250Y0076752D01*
X0202380Y0076733D01*
X0202510Y0076710D01*
X0202638Y0076684D01*
X0202766Y0076653D01*
X0202893Y0076618D01*
X0203019Y0076580D01*
X0203143Y0076538D01*
X0203267Y0076492D01*
X0203388Y0076442D01*
X0203508Y0076389D01*
X0203627Y0076332D01*
X0203744Y0076272D01*
X0203858Y0076208D01*
X0203971Y0076140D01*
X0204082Y0076069D01*
X0204191Y0075995D01*
X0204297Y0075918D01*
X0204401Y0075837D01*
X0204502Y0075754D01*
X0204601Y0075667D01*
X0204697Y0075577D01*
X0204790Y0075484D01*
X0204881Y0075389D01*
X0204968Y0075291D01*
X0205053Y0075190D01*
X0205134Y0075087D01*
X0205212Y0074981D01*
X0205287Y0074873D01*
X0205359Y0074763D01*
X0205427Y0074651D01*
X0205492Y0074537D01*
X0205553Y0074420D01*
X0205611Y0074302D01*
X0205665Y0074182D01*
X0205716Y0074061D01*
X0205763Y0073938D01*
X0205806Y0073814D01*
X0205845Y0073689D01*
X0205881Y0073562D01*
X0205912Y0073434D01*
X0205940Y0073306D01*
X0205964Y0073177D01*
X0205984Y0073047D01*
X0206000Y0072916D01*
X0206012Y0072785D01*
X0206020Y0072654D01*
X0206024Y0072523D01*
X0206024Y0072391D01*
X0206020Y0072260D01*
X0206012Y0072129D01*
X0206000Y0071998D01*
X0205984Y0071867D01*
X0205964Y0071737D01*
X0205940Y0071608D01*
X0205912Y0071480D01*
X0205881Y0071352D01*
X0205845Y0071225D01*
X0205806Y0071100D01*
X0205763Y0070976D01*
X0205716Y0070853D01*
X0205665Y0070732D01*
X0205611Y0070612D01*
X0205553Y0070494D01*
X0205492Y0070377D01*
X0205427Y0070263D01*
X0205359Y0070151D01*
X0205287Y0070041D01*
X0205212Y0069933D01*
X0205134Y0069827D01*
X0205053Y0069724D01*
X0204968Y0069623D01*
X0204881Y0069525D01*
X0204790Y0069430D01*
X0204697Y0069337D01*
X0204601Y0069247D01*
X0204502Y0069160D01*
X0204401Y0069077D01*
X0204297Y0068996D01*
X0204191Y0068919D01*
X0204082Y0068845D01*
X0203971Y0068774D01*
X0203859Y0068706D01*
X0203744Y0068642D01*
X0203627Y0068582D01*
X0203508Y0068525D01*
X0203388Y0068472D01*
X0203267Y0068422D01*
X0203143Y0068376D01*
X0203019Y0068334D01*
X0202893Y0068296D01*
X0202766Y0068261D01*
X0202638Y0068230D01*
X0202510Y0068204D01*
X0202380Y0068181D01*
X0202250Y0068162D01*
X0202120Y0068147D01*
X0201989Y0068136D01*
X0201857Y0068129D01*
X0201726Y0068126D01*
X0201594Y0068127D01*
X0201463Y0068132D01*
X0201332Y0068141D01*
X0201201Y0068154D01*
X0201071Y0068171D01*
X0200941Y0068192D01*
X0200812Y0068217D01*
X0200684Y0068245D01*
X0200556Y0068278D01*
X0200430Y0068314D01*
X0200305Y0068355D01*
X0200181Y0068399D01*
X0200058Y0068446D01*
X0199937Y0068498D01*
X0199818Y0068553D01*
X0199700Y0068612D01*
X0199585Y0068674D01*
X0199471Y0068740D01*
X0199359Y0068809D01*
X0199249Y0068881D01*
X0199142Y0068957D01*
X0199037Y0069036D01*
X0198934Y0069118D01*
X0198834Y0069203D01*
X0198737Y0069292D01*
X0198642Y0069383D01*
X0198550Y0069477D01*
X0198461Y0069574D01*
X0198375Y0069673D01*
X0198292Y0069775D01*
X0198212Y0069880D01*
X0198136Y0069986D01*
X0198063Y0070095D01*
X0197993Y0070207D01*
X0197926Y0070320D01*
X0197863Y0070435D01*
X0197803Y0070553D01*
X0197747Y0070671D01*
X0197695Y0070792D01*
X0197646Y0070914D01*
X0197601Y0071038D01*
X0197560Y0071162D01*
X0197523Y0071289D01*
X0197489Y0071416D01*
X0197459Y0071544D01*
X0197434Y0071673D01*
X0197412Y0071802D01*
X0197394Y0071932D01*
X0197380Y0072063D01*
X0197370Y0072194D01*
X0197364Y0072326D01*
X0197362Y0072457D01*
X0197362Y0122457D02*
X0197364Y0122588D01*
X0197370Y0122720D01*
X0197380Y0122851D01*
X0197394Y0122982D01*
X0197412Y0123112D01*
X0197434Y0123241D01*
X0197459Y0123370D01*
X0197489Y0123498D01*
X0197523Y0123625D01*
X0197560Y0123752D01*
X0197601Y0123876D01*
X0197646Y0124000D01*
X0197695Y0124122D01*
X0197747Y0124243D01*
X0197803Y0124361D01*
X0197863Y0124479D01*
X0197926Y0124594D01*
X0197993Y0124707D01*
X0198063Y0124819D01*
X0198136Y0124928D01*
X0198212Y0125034D01*
X0198292Y0125139D01*
X0198375Y0125241D01*
X0198461Y0125340D01*
X0198550Y0125437D01*
X0198642Y0125531D01*
X0198737Y0125622D01*
X0198834Y0125711D01*
X0198934Y0125796D01*
X0199037Y0125878D01*
X0199142Y0125957D01*
X0199249Y0126033D01*
X0199359Y0126105D01*
X0199471Y0126174D01*
X0199585Y0126240D01*
X0199700Y0126302D01*
X0199818Y0126361D01*
X0199937Y0126416D01*
X0200058Y0126468D01*
X0200181Y0126515D01*
X0200305Y0126559D01*
X0200430Y0126600D01*
X0200556Y0126636D01*
X0200684Y0126669D01*
X0200812Y0126697D01*
X0200941Y0126722D01*
X0201071Y0126743D01*
X0201201Y0126760D01*
X0201332Y0126773D01*
X0201463Y0126782D01*
X0201594Y0126787D01*
X0201726Y0126788D01*
X0201857Y0126785D01*
X0201989Y0126778D01*
X0202120Y0126767D01*
X0202250Y0126752D01*
X0202380Y0126733D01*
X0202510Y0126710D01*
X0202638Y0126684D01*
X0202766Y0126653D01*
X0202893Y0126618D01*
X0203019Y0126580D01*
X0203143Y0126538D01*
X0203267Y0126492D01*
X0203388Y0126442D01*
X0203508Y0126389D01*
X0203627Y0126332D01*
X0203744Y0126272D01*
X0203858Y0126208D01*
X0203971Y0126140D01*
X0204082Y0126069D01*
X0204191Y0125995D01*
X0204297Y0125918D01*
X0204401Y0125837D01*
X0204502Y0125754D01*
X0204601Y0125667D01*
X0204697Y0125577D01*
X0204790Y0125484D01*
X0204881Y0125389D01*
X0204968Y0125291D01*
X0205053Y0125190D01*
X0205134Y0125087D01*
X0205212Y0124981D01*
X0205287Y0124873D01*
X0205359Y0124763D01*
X0205427Y0124651D01*
X0205492Y0124537D01*
X0205553Y0124420D01*
X0205611Y0124302D01*
X0205665Y0124182D01*
X0205716Y0124061D01*
X0205763Y0123938D01*
X0205806Y0123814D01*
X0205845Y0123689D01*
X0205881Y0123562D01*
X0205912Y0123434D01*
X0205940Y0123306D01*
X0205964Y0123177D01*
X0205984Y0123047D01*
X0206000Y0122916D01*
X0206012Y0122785D01*
X0206020Y0122654D01*
X0206024Y0122523D01*
X0206024Y0122391D01*
X0206020Y0122260D01*
X0206012Y0122129D01*
X0206000Y0121998D01*
X0205984Y0121867D01*
X0205964Y0121737D01*
X0205940Y0121608D01*
X0205912Y0121480D01*
X0205881Y0121352D01*
X0205845Y0121225D01*
X0205806Y0121100D01*
X0205763Y0120976D01*
X0205716Y0120853D01*
X0205665Y0120732D01*
X0205611Y0120612D01*
X0205553Y0120494D01*
X0205492Y0120377D01*
X0205427Y0120263D01*
X0205359Y0120151D01*
X0205287Y0120041D01*
X0205212Y0119933D01*
X0205134Y0119827D01*
X0205053Y0119724D01*
X0204968Y0119623D01*
X0204881Y0119525D01*
X0204790Y0119430D01*
X0204697Y0119337D01*
X0204601Y0119247D01*
X0204502Y0119160D01*
X0204401Y0119077D01*
X0204297Y0118996D01*
X0204191Y0118919D01*
X0204082Y0118845D01*
X0203971Y0118774D01*
X0203859Y0118706D01*
X0203744Y0118642D01*
X0203627Y0118582D01*
X0203508Y0118525D01*
X0203388Y0118472D01*
X0203267Y0118422D01*
X0203143Y0118376D01*
X0203019Y0118334D01*
X0202893Y0118296D01*
X0202766Y0118261D01*
X0202638Y0118230D01*
X0202510Y0118204D01*
X0202380Y0118181D01*
X0202250Y0118162D01*
X0202120Y0118147D01*
X0201989Y0118136D01*
X0201857Y0118129D01*
X0201726Y0118126D01*
X0201594Y0118127D01*
X0201463Y0118132D01*
X0201332Y0118141D01*
X0201201Y0118154D01*
X0201071Y0118171D01*
X0200941Y0118192D01*
X0200812Y0118217D01*
X0200684Y0118245D01*
X0200556Y0118278D01*
X0200430Y0118314D01*
X0200305Y0118355D01*
X0200181Y0118399D01*
X0200058Y0118446D01*
X0199937Y0118498D01*
X0199818Y0118553D01*
X0199700Y0118612D01*
X0199585Y0118674D01*
X0199471Y0118740D01*
X0199359Y0118809D01*
X0199249Y0118881D01*
X0199142Y0118957D01*
X0199037Y0119036D01*
X0198934Y0119118D01*
X0198834Y0119203D01*
X0198737Y0119292D01*
X0198642Y0119383D01*
X0198550Y0119477D01*
X0198461Y0119574D01*
X0198375Y0119673D01*
X0198292Y0119775D01*
X0198212Y0119880D01*
X0198136Y0119986D01*
X0198063Y0120095D01*
X0197993Y0120207D01*
X0197926Y0120320D01*
X0197863Y0120435D01*
X0197803Y0120553D01*
X0197747Y0120671D01*
X0197695Y0120792D01*
X0197646Y0120914D01*
X0197601Y0121038D01*
X0197560Y0121162D01*
X0197523Y0121289D01*
X0197489Y0121416D01*
X0197459Y0121544D01*
X0197434Y0121673D01*
X0197412Y0121802D01*
X0197394Y0121932D01*
X0197380Y0122063D01*
X0197370Y0122194D01*
X0197364Y0122326D01*
X0197362Y0122457D01*
X0185787Y0163795D02*
X0185789Y0163993D01*
X0185797Y0164191D01*
X0185809Y0164389D01*
X0185826Y0164586D01*
X0185848Y0164783D01*
X0185874Y0164979D01*
X0185906Y0165175D01*
X0185942Y0165370D01*
X0185983Y0165563D01*
X0186029Y0165756D01*
X0186079Y0165948D01*
X0186135Y0166138D01*
X0186194Y0166327D01*
X0186259Y0166514D01*
X0186328Y0166700D01*
X0186401Y0166884D01*
X0186479Y0167066D01*
X0186562Y0167246D01*
X0186649Y0167424D01*
X0186740Y0167600D01*
X0186836Y0167773D01*
X0186935Y0167944D01*
X0187039Y0168113D01*
X0187147Y0168279D01*
X0187259Y0168442D01*
X0187375Y0168603D01*
X0187495Y0168761D01*
X0187619Y0168915D01*
X0187747Y0169067D01*
X0187878Y0169215D01*
X0188013Y0169360D01*
X0188151Y0169502D01*
X0188293Y0169640D01*
X0188438Y0169775D01*
X0188586Y0169906D01*
X0188738Y0170034D01*
X0188892Y0170158D01*
X0189050Y0170278D01*
X0189211Y0170394D01*
X0189374Y0170506D01*
X0189540Y0170614D01*
X0189709Y0170718D01*
X0189880Y0170817D01*
X0190053Y0170913D01*
X0190229Y0171004D01*
X0190407Y0171091D01*
X0190587Y0171174D01*
X0190769Y0171252D01*
X0190953Y0171325D01*
X0191139Y0171394D01*
X0191326Y0171459D01*
X0191515Y0171518D01*
X0191705Y0171574D01*
X0191897Y0171624D01*
X0192090Y0171670D01*
X0192283Y0171711D01*
X0192478Y0171747D01*
X0192674Y0171779D01*
X0192870Y0171805D01*
X0193067Y0171827D01*
X0193264Y0171844D01*
X0193462Y0171856D01*
X0193660Y0171864D01*
X0193858Y0171866D01*
X0194056Y0171864D01*
X0194254Y0171856D01*
X0194452Y0171844D01*
X0194649Y0171827D01*
X0194846Y0171805D01*
X0195042Y0171779D01*
X0195238Y0171747D01*
X0195433Y0171711D01*
X0195626Y0171670D01*
X0195819Y0171624D01*
X0196011Y0171574D01*
X0196201Y0171518D01*
X0196390Y0171459D01*
X0196577Y0171394D01*
X0196763Y0171325D01*
X0196947Y0171252D01*
X0197129Y0171174D01*
X0197309Y0171091D01*
X0197487Y0171004D01*
X0197663Y0170913D01*
X0197836Y0170817D01*
X0198007Y0170718D01*
X0198176Y0170614D01*
X0198342Y0170506D01*
X0198505Y0170394D01*
X0198666Y0170278D01*
X0198824Y0170158D01*
X0198978Y0170034D01*
X0199130Y0169906D01*
X0199278Y0169775D01*
X0199423Y0169640D01*
X0199565Y0169502D01*
X0199703Y0169360D01*
X0199838Y0169215D01*
X0199969Y0169067D01*
X0200097Y0168915D01*
X0200221Y0168761D01*
X0200341Y0168603D01*
X0200457Y0168442D01*
X0200569Y0168279D01*
X0200677Y0168113D01*
X0200781Y0167944D01*
X0200880Y0167773D01*
X0200976Y0167600D01*
X0201067Y0167424D01*
X0201154Y0167246D01*
X0201237Y0167066D01*
X0201315Y0166884D01*
X0201388Y0166700D01*
X0201457Y0166514D01*
X0201522Y0166327D01*
X0201581Y0166138D01*
X0201637Y0165948D01*
X0201687Y0165756D01*
X0201733Y0165563D01*
X0201774Y0165370D01*
X0201810Y0165175D01*
X0201842Y0164979D01*
X0201868Y0164783D01*
X0201890Y0164586D01*
X0201907Y0164389D01*
X0201919Y0164191D01*
X0201927Y0163993D01*
X0201929Y0163795D01*
X0201927Y0163597D01*
X0201919Y0163399D01*
X0201907Y0163201D01*
X0201890Y0163004D01*
X0201868Y0162807D01*
X0201842Y0162611D01*
X0201810Y0162415D01*
X0201774Y0162220D01*
X0201733Y0162027D01*
X0201687Y0161834D01*
X0201637Y0161642D01*
X0201581Y0161452D01*
X0201522Y0161263D01*
X0201457Y0161076D01*
X0201388Y0160890D01*
X0201315Y0160706D01*
X0201237Y0160524D01*
X0201154Y0160344D01*
X0201067Y0160166D01*
X0200976Y0159990D01*
X0200880Y0159817D01*
X0200781Y0159646D01*
X0200677Y0159477D01*
X0200569Y0159311D01*
X0200457Y0159148D01*
X0200341Y0158987D01*
X0200221Y0158829D01*
X0200097Y0158675D01*
X0199969Y0158523D01*
X0199838Y0158375D01*
X0199703Y0158230D01*
X0199565Y0158088D01*
X0199423Y0157950D01*
X0199278Y0157815D01*
X0199130Y0157684D01*
X0198978Y0157556D01*
X0198824Y0157432D01*
X0198666Y0157312D01*
X0198505Y0157196D01*
X0198342Y0157084D01*
X0198176Y0156976D01*
X0198007Y0156872D01*
X0197836Y0156773D01*
X0197663Y0156677D01*
X0197487Y0156586D01*
X0197309Y0156499D01*
X0197129Y0156416D01*
X0196947Y0156338D01*
X0196763Y0156265D01*
X0196577Y0156196D01*
X0196390Y0156131D01*
X0196201Y0156072D01*
X0196011Y0156016D01*
X0195819Y0155966D01*
X0195626Y0155920D01*
X0195433Y0155879D01*
X0195238Y0155843D01*
X0195042Y0155811D01*
X0194846Y0155785D01*
X0194649Y0155763D01*
X0194452Y0155746D01*
X0194254Y0155734D01*
X0194056Y0155726D01*
X0193858Y0155724D01*
X0193660Y0155726D01*
X0193462Y0155734D01*
X0193264Y0155746D01*
X0193067Y0155763D01*
X0192870Y0155785D01*
X0192674Y0155811D01*
X0192478Y0155843D01*
X0192283Y0155879D01*
X0192090Y0155920D01*
X0191897Y0155966D01*
X0191705Y0156016D01*
X0191515Y0156072D01*
X0191326Y0156131D01*
X0191139Y0156196D01*
X0190953Y0156265D01*
X0190769Y0156338D01*
X0190587Y0156416D01*
X0190407Y0156499D01*
X0190229Y0156586D01*
X0190053Y0156677D01*
X0189880Y0156773D01*
X0189709Y0156872D01*
X0189540Y0156976D01*
X0189374Y0157084D01*
X0189211Y0157196D01*
X0189050Y0157312D01*
X0188892Y0157432D01*
X0188738Y0157556D01*
X0188586Y0157684D01*
X0188438Y0157815D01*
X0188293Y0157950D01*
X0188151Y0158088D01*
X0188013Y0158230D01*
X0187878Y0158375D01*
X0187747Y0158523D01*
X0187619Y0158675D01*
X0187495Y0158829D01*
X0187375Y0158987D01*
X0187259Y0159148D01*
X0187147Y0159311D01*
X0187039Y0159477D01*
X0186935Y0159646D01*
X0186836Y0159817D01*
X0186740Y0159990D01*
X0186649Y0160166D01*
X0186562Y0160344D01*
X0186479Y0160524D01*
X0186401Y0160706D01*
X0186328Y0160890D01*
X0186259Y0161076D01*
X0186194Y0161263D01*
X0186135Y0161452D01*
X0186079Y0161642D01*
X0186029Y0161834D01*
X0185983Y0162027D01*
X0185942Y0162220D01*
X0185906Y0162415D01*
X0185874Y0162611D01*
X0185848Y0162807D01*
X0185826Y0163004D01*
X0185809Y0163201D01*
X0185797Y0163399D01*
X0185789Y0163597D01*
X0185787Y0163795D01*
X0330905Y0021000D02*
X0330907Y0021198D01*
X0330915Y0021396D01*
X0330927Y0021594D01*
X0330944Y0021791D01*
X0330966Y0021988D01*
X0330992Y0022184D01*
X0331024Y0022380D01*
X0331060Y0022575D01*
X0331101Y0022768D01*
X0331147Y0022961D01*
X0331197Y0023153D01*
X0331253Y0023343D01*
X0331312Y0023532D01*
X0331377Y0023719D01*
X0331446Y0023905D01*
X0331519Y0024089D01*
X0331597Y0024271D01*
X0331680Y0024451D01*
X0331767Y0024629D01*
X0331858Y0024805D01*
X0331954Y0024978D01*
X0332053Y0025149D01*
X0332157Y0025318D01*
X0332265Y0025484D01*
X0332377Y0025647D01*
X0332493Y0025808D01*
X0332613Y0025966D01*
X0332737Y0026120D01*
X0332865Y0026272D01*
X0332996Y0026420D01*
X0333131Y0026565D01*
X0333269Y0026707D01*
X0333411Y0026845D01*
X0333556Y0026980D01*
X0333704Y0027111D01*
X0333856Y0027239D01*
X0334010Y0027363D01*
X0334168Y0027483D01*
X0334329Y0027599D01*
X0334492Y0027711D01*
X0334658Y0027819D01*
X0334827Y0027923D01*
X0334998Y0028022D01*
X0335171Y0028118D01*
X0335347Y0028209D01*
X0335525Y0028296D01*
X0335705Y0028379D01*
X0335887Y0028457D01*
X0336071Y0028530D01*
X0336257Y0028599D01*
X0336444Y0028664D01*
X0336633Y0028723D01*
X0336823Y0028779D01*
X0337015Y0028829D01*
X0337208Y0028875D01*
X0337401Y0028916D01*
X0337596Y0028952D01*
X0337792Y0028984D01*
X0337988Y0029010D01*
X0338185Y0029032D01*
X0338382Y0029049D01*
X0338580Y0029061D01*
X0338778Y0029069D01*
X0338976Y0029071D01*
X0339174Y0029069D01*
X0339372Y0029061D01*
X0339570Y0029049D01*
X0339767Y0029032D01*
X0339964Y0029010D01*
X0340160Y0028984D01*
X0340356Y0028952D01*
X0340551Y0028916D01*
X0340744Y0028875D01*
X0340937Y0028829D01*
X0341129Y0028779D01*
X0341319Y0028723D01*
X0341508Y0028664D01*
X0341695Y0028599D01*
X0341881Y0028530D01*
X0342065Y0028457D01*
X0342247Y0028379D01*
X0342427Y0028296D01*
X0342605Y0028209D01*
X0342781Y0028118D01*
X0342954Y0028022D01*
X0343125Y0027923D01*
X0343294Y0027819D01*
X0343460Y0027711D01*
X0343623Y0027599D01*
X0343784Y0027483D01*
X0343942Y0027363D01*
X0344096Y0027239D01*
X0344248Y0027111D01*
X0344396Y0026980D01*
X0344541Y0026845D01*
X0344683Y0026707D01*
X0344821Y0026565D01*
X0344956Y0026420D01*
X0345087Y0026272D01*
X0345215Y0026120D01*
X0345339Y0025966D01*
X0345459Y0025808D01*
X0345575Y0025647D01*
X0345687Y0025484D01*
X0345795Y0025318D01*
X0345899Y0025149D01*
X0345998Y0024978D01*
X0346094Y0024805D01*
X0346185Y0024629D01*
X0346272Y0024451D01*
X0346355Y0024271D01*
X0346433Y0024089D01*
X0346506Y0023905D01*
X0346575Y0023719D01*
X0346640Y0023532D01*
X0346699Y0023343D01*
X0346755Y0023153D01*
X0346805Y0022961D01*
X0346851Y0022768D01*
X0346892Y0022575D01*
X0346928Y0022380D01*
X0346960Y0022184D01*
X0346986Y0021988D01*
X0347008Y0021791D01*
X0347025Y0021594D01*
X0347037Y0021396D01*
X0347045Y0021198D01*
X0347047Y0021000D01*
X0347045Y0020802D01*
X0347037Y0020604D01*
X0347025Y0020406D01*
X0347008Y0020209D01*
X0346986Y0020012D01*
X0346960Y0019816D01*
X0346928Y0019620D01*
X0346892Y0019425D01*
X0346851Y0019232D01*
X0346805Y0019039D01*
X0346755Y0018847D01*
X0346699Y0018657D01*
X0346640Y0018468D01*
X0346575Y0018281D01*
X0346506Y0018095D01*
X0346433Y0017911D01*
X0346355Y0017729D01*
X0346272Y0017549D01*
X0346185Y0017371D01*
X0346094Y0017195D01*
X0345998Y0017022D01*
X0345899Y0016851D01*
X0345795Y0016682D01*
X0345687Y0016516D01*
X0345575Y0016353D01*
X0345459Y0016192D01*
X0345339Y0016034D01*
X0345215Y0015880D01*
X0345087Y0015728D01*
X0344956Y0015580D01*
X0344821Y0015435D01*
X0344683Y0015293D01*
X0344541Y0015155D01*
X0344396Y0015020D01*
X0344248Y0014889D01*
X0344096Y0014761D01*
X0343942Y0014637D01*
X0343784Y0014517D01*
X0343623Y0014401D01*
X0343460Y0014289D01*
X0343294Y0014181D01*
X0343125Y0014077D01*
X0342954Y0013978D01*
X0342781Y0013882D01*
X0342605Y0013791D01*
X0342427Y0013704D01*
X0342247Y0013621D01*
X0342065Y0013543D01*
X0341881Y0013470D01*
X0341695Y0013401D01*
X0341508Y0013336D01*
X0341319Y0013277D01*
X0341129Y0013221D01*
X0340937Y0013171D01*
X0340744Y0013125D01*
X0340551Y0013084D01*
X0340356Y0013048D01*
X0340160Y0013016D01*
X0339964Y0012990D01*
X0339767Y0012968D01*
X0339570Y0012951D01*
X0339372Y0012939D01*
X0339174Y0012931D01*
X0338976Y0012929D01*
X0338778Y0012931D01*
X0338580Y0012939D01*
X0338382Y0012951D01*
X0338185Y0012968D01*
X0337988Y0012990D01*
X0337792Y0013016D01*
X0337596Y0013048D01*
X0337401Y0013084D01*
X0337208Y0013125D01*
X0337015Y0013171D01*
X0336823Y0013221D01*
X0336633Y0013277D01*
X0336444Y0013336D01*
X0336257Y0013401D01*
X0336071Y0013470D01*
X0335887Y0013543D01*
X0335705Y0013621D01*
X0335525Y0013704D01*
X0335347Y0013791D01*
X0335171Y0013882D01*
X0334998Y0013978D01*
X0334827Y0014077D01*
X0334658Y0014181D01*
X0334492Y0014289D01*
X0334329Y0014401D01*
X0334168Y0014517D01*
X0334010Y0014637D01*
X0333856Y0014761D01*
X0333704Y0014889D01*
X0333556Y0015020D01*
X0333411Y0015155D01*
X0333269Y0015293D01*
X0333131Y0015435D01*
X0332996Y0015580D01*
X0332865Y0015728D01*
X0332737Y0015880D01*
X0332613Y0016034D01*
X0332493Y0016192D01*
X0332377Y0016353D01*
X0332265Y0016516D01*
X0332157Y0016682D01*
X0332053Y0016851D01*
X0331954Y0017022D01*
X0331858Y0017195D01*
X0331767Y0017371D01*
X0331680Y0017549D01*
X0331597Y0017729D01*
X0331519Y0017911D01*
X0331446Y0018095D01*
X0331377Y0018281D01*
X0331312Y0018468D01*
X0331253Y0018657D01*
X0331197Y0018847D01*
X0331147Y0019039D01*
X0331101Y0019232D01*
X0331060Y0019425D01*
X0331024Y0019620D01*
X0330992Y0019816D01*
X0330966Y0020012D01*
X0330944Y0020209D01*
X0330927Y0020406D01*
X0330915Y0020604D01*
X0330907Y0020802D01*
X0330905Y0021000D01*
D11*
X0286710Y0139866D02*
X0283641Y0139866D01*
X0282873Y0140633D01*
X0282873Y0142168D01*
X0283641Y0142935D01*
X0283641Y0144470D02*
X0282873Y0145237D01*
X0282873Y0146772D01*
X0283641Y0147539D01*
X0284408Y0147539D01*
X0287477Y0144470D01*
X0287477Y0147539D01*
X0286710Y0142935D02*
X0287477Y0142168D01*
X0287477Y0140633D01*
X0286710Y0139866D01*
X0278068Y0140752D02*
X0278068Y0142286D01*
X0277300Y0143054D01*
X0275766Y0144588D02*
X0275766Y0147657D01*
X0278068Y0146890D02*
X0273464Y0146890D01*
X0275766Y0144588D01*
X0274231Y0143054D02*
X0273464Y0142286D01*
X0273464Y0140752D01*
X0274231Y0139984D01*
X0277300Y0139984D01*
X0278068Y0140752D01*
X0276421Y0152791D02*
X0265566Y0152791D01*
X0265127Y0152901D01*
X0264689Y0153230D01*
X0264415Y0153614D01*
X0264250Y0154217D01*
X0264250Y0154765D01*
X0264360Y0155642D01*
X0265456Y0160522D01*
X0265621Y0161124D01*
X0266279Y0162440D01*
X0266772Y0163153D01*
X0267649Y0163701D01*
X0268307Y0163920D01*
X0268636Y0163975D01*
X0277243Y0163975D01*
X0277846Y0163756D01*
X0278559Y0163208D01*
X0278778Y0162989D01*
X0278778Y0161070D01*
X0277846Y0157287D01*
X0268855Y0157287D01*
X0268417Y0155423D01*
X0268307Y0155094D01*
X0268362Y0154710D01*
X0268581Y0154546D01*
X0276476Y0154546D01*
X0277188Y0154656D01*
X0276421Y0152791D01*
X0278997Y0153614D02*
X0278833Y0154217D01*
X0278833Y0154765D01*
X0278943Y0155642D01*
X0280039Y0160522D01*
X0280204Y0161124D01*
X0280861Y0162440D01*
X0281355Y0163153D01*
X0282232Y0163701D01*
X0282890Y0163920D01*
X0283219Y0163975D01*
X0291826Y0163975D01*
X0292429Y0163756D01*
X0293142Y0163208D01*
X0293361Y0162989D01*
X0293361Y0161070D01*
X0292429Y0157287D01*
X0283438Y0157287D01*
X0282999Y0155423D01*
X0282890Y0155094D01*
X0282944Y0154710D01*
X0283164Y0154546D01*
X0291058Y0154546D01*
X0291771Y0154656D01*
X0291004Y0152791D01*
X0280148Y0152791D01*
X0279710Y0152901D01*
X0279271Y0153230D01*
X0278997Y0153614D01*
X0274118Y0158987D02*
X0269404Y0158987D01*
X0269349Y0159041D01*
X0269732Y0161289D01*
X0269897Y0161728D01*
X0270116Y0162111D01*
X0270445Y0162276D01*
X0274337Y0162276D01*
X0274557Y0162221D01*
X0274721Y0162057D01*
X0274721Y0161344D01*
X0274118Y0158987D01*
X0283931Y0159041D02*
X0283986Y0158987D01*
X0288701Y0158987D01*
X0289304Y0161344D01*
X0289304Y0162057D01*
X0289139Y0162221D01*
X0288920Y0162276D01*
X0285028Y0162276D01*
X0284699Y0162111D01*
X0284480Y0161728D01*
X0284315Y0161289D01*
X0283931Y0159041D01*
X0283016Y0170019D02*
X0279946Y0170019D01*
X0278412Y0170019D02*
X0275343Y0170019D01*
X0276877Y0170019D02*
X0276877Y0174623D01*
X0275343Y0173088D01*
X0273808Y0173855D02*
X0273808Y0172321D01*
X0273041Y0171554D01*
X0270739Y0171554D01*
X0272273Y0171554D02*
X0273808Y0170019D01*
X0270739Y0170019D02*
X0270739Y0174623D01*
X0273041Y0174623D01*
X0273808Y0173855D01*
X0279946Y0173088D02*
X0281481Y0174623D01*
X0281481Y0170019D01*
X0264853Y0166387D02*
X0264853Y0165456D01*
X0264689Y0165017D01*
X0264031Y0162276D01*
X0263811Y0161728D01*
X0262989Y0160905D01*
X0262331Y0160631D01*
X0261454Y0160412D01*
X0260358Y0160412D01*
X0261948Y0160193D01*
X0263099Y0159644D01*
X0263154Y0159535D01*
X0263154Y0158054D01*
X0262551Y0155642D01*
X0262167Y0155039D01*
X0262057Y0154381D01*
X0261235Y0153449D01*
X0260577Y0153120D01*
X0259535Y0152791D01*
X0240512Y0152791D01*
X0240841Y0153394D01*
X0240841Y0153778D01*
X0239087Y0158109D01*
X0234536Y0153669D01*
X0234043Y0152791D01*
X0230808Y0152791D01*
X0232179Y0153778D01*
X0238538Y0159754D01*
X0235413Y0167374D01*
X0234810Y0167978D01*
X0240841Y0167978D01*
X0240841Y0167648D01*
X0240676Y0167320D01*
X0240841Y0167045D01*
X0240841Y0166771D01*
X0242211Y0163317D01*
X0246104Y0167155D01*
X0246323Y0167429D01*
X0246487Y0167758D01*
X0246543Y0167978D01*
X0249996Y0167978D01*
X0249283Y0167484D01*
X0248735Y0167100D01*
X0247968Y0166443D01*
X0242815Y0161618D01*
X0245885Y0154052D01*
X0246762Y0152846D01*
X0246926Y0152846D01*
X0247255Y0153175D01*
X0247694Y0154491D01*
X0248352Y0156958D01*
X0249119Y0160083D01*
X0250544Y0165894D01*
X0250764Y0166881D01*
X0250764Y0167978D01*
X0263209Y0167978D01*
X0263867Y0167813D01*
X0264305Y0167539D01*
X0264634Y0166936D01*
X0264853Y0166387D01*
X0260467Y0165839D02*
X0260522Y0164962D01*
X0259755Y0162057D01*
X0259590Y0161673D01*
X0259261Y0161454D01*
X0253779Y0161454D01*
X0254930Y0166113D01*
X0259974Y0166113D01*
X0260467Y0165839D01*
X0259886Y0170019D02*
X0258352Y0170019D01*
X0257584Y0170786D01*
X0256050Y0170019D02*
X0254515Y0171554D01*
X0255282Y0171554D02*
X0252980Y0171554D01*
X0252980Y0170019D02*
X0252980Y0174623D01*
X0255282Y0174623D01*
X0256050Y0173855D01*
X0256050Y0172321D01*
X0255282Y0171554D01*
X0257584Y0173855D02*
X0258352Y0174623D01*
X0259886Y0174623D01*
X0260654Y0173855D01*
X0260654Y0173088D01*
X0259886Y0172321D01*
X0260654Y0171554D01*
X0260654Y0170786D01*
X0259886Y0170019D01*
X0259886Y0172321D02*
X0259119Y0172321D01*
X0258384Y0159480D02*
X0253395Y0159480D01*
X0252134Y0154656D01*
X0257452Y0154656D01*
X0257671Y0154765D01*
X0258055Y0155204D01*
X0258274Y0155533D01*
X0259097Y0158767D01*
X0259097Y0158931D01*
X0258823Y0159315D01*
X0258384Y0159480D01*
X0258649Y0193641D02*
X0258649Y0198245D01*
X0257114Y0196710D01*
X0255580Y0195943D02*
X0254812Y0195176D01*
X0252510Y0195176D01*
X0254045Y0195176D02*
X0255580Y0193641D01*
X0257114Y0193641D02*
X0260183Y0193641D01*
X0261718Y0194408D02*
X0264787Y0197478D01*
X0264787Y0194408D01*
X0264020Y0193641D01*
X0262485Y0193641D01*
X0261718Y0194408D01*
X0261718Y0197478D01*
X0262485Y0198245D01*
X0264020Y0198245D01*
X0264787Y0197478D01*
X0255580Y0197478D02*
X0255580Y0195943D01*
X0255580Y0197478D02*
X0254812Y0198245D01*
X0252510Y0198245D01*
X0252510Y0193641D01*
X0276209Y0193641D02*
X0276209Y0198245D01*
X0278511Y0198245D01*
X0279278Y0197478D01*
X0279278Y0195943D01*
X0278511Y0195176D01*
X0276209Y0195176D01*
X0277743Y0195176D02*
X0279278Y0193641D01*
X0280813Y0193641D02*
X0283882Y0196710D01*
X0283882Y0197478D01*
X0283115Y0198245D01*
X0281580Y0198245D01*
X0280813Y0197478D01*
X0280813Y0193641D02*
X0283882Y0193641D01*
X0181178Y0184764D02*
X0181178Y0181694D01*
X0181178Y0180160D02*
X0179643Y0178625D01*
X0179643Y0179393D02*
X0179643Y0177091D01*
X0181178Y0177091D02*
X0176574Y0177091D01*
X0176574Y0179393D01*
X0177341Y0180160D01*
X0178876Y0180160D01*
X0179643Y0179393D01*
X0178109Y0181694D02*
X0176574Y0183229D01*
X0181178Y0183229D01*
X0065154Y0178047D02*
X0065154Y0176512D01*
X0064387Y0175745D01*
X0062852Y0175745D01*
X0062852Y0178047D01*
X0063620Y0178814D01*
X0064387Y0178814D01*
X0065154Y0178047D01*
X0062852Y0175745D02*
X0061318Y0177280D01*
X0060550Y0178814D01*
X0061318Y0174210D02*
X0062852Y0174210D01*
X0063620Y0173443D01*
X0063620Y0171141D01*
X0065154Y0171141D02*
X0060550Y0171141D01*
X0060550Y0173443D01*
X0061318Y0174210D01*
X0063620Y0172676D02*
X0065154Y0174210D01*
X0064387Y0154877D02*
X0065154Y0154110D01*
X0065154Y0152575D01*
X0064387Y0151808D01*
X0063620Y0151808D01*
X0062852Y0152575D01*
X0062852Y0154110D01*
X0063620Y0154877D01*
X0064387Y0154877D01*
X0062852Y0154110D02*
X0062085Y0154877D01*
X0061318Y0154877D01*
X0060550Y0154110D01*
X0060550Y0152575D01*
X0061318Y0151808D01*
X0062085Y0151808D01*
X0062852Y0152575D01*
X0062852Y0150273D02*
X0061318Y0150273D01*
X0060550Y0149506D01*
X0060550Y0147204D01*
X0065154Y0147204D01*
X0063620Y0147204D02*
X0063620Y0149506D01*
X0062852Y0150273D01*
X0063620Y0148739D02*
X0065154Y0150273D01*
X0012005Y0150076D02*
X0011237Y0150076D01*
X0008168Y0153145D01*
X0007401Y0153145D01*
X0007401Y0150076D01*
X0008168Y0148541D02*
X0007401Y0147774D01*
X0007401Y0145472D01*
X0012005Y0145472D01*
X0010470Y0145472D02*
X0010470Y0147774D01*
X0009703Y0148541D01*
X0008168Y0148541D01*
X0010470Y0147006D02*
X0012005Y0148541D01*
X0012005Y0158936D02*
X0007401Y0158936D01*
X0007401Y0161238D01*
X0008168Y0162005D01*
X0009703Y0162005D01*
X0010470Y0161238D01*
X0010470Y0158936D01*
X0010470Y0160471D02*
X0012005Y0162005D01*
X0011237Y0163540D02*
X0012005Y0164307D01*
X0012005Y0165842D01*
X0011237Y0166609D01*
X0008168Y0166609D01*
X0007401Y0165842D01*
X0007401Y0164307D01*
X0008168Y0163540D01*
X0008935Y0163540D01*
X0009703Y0164307D01*
X0009703Y0166609D01*
X0066338Y0111792D02*
X0068640Y0109490D01*
X0068640Y0112559D01*
X0070942Y0111792D02*
X0066338Y0111792D01*
X0067105Y0107955D02*
X0068640Y0107955D01*
X0069407Y0107188D01*
X0069407Y0104886D01*
X0069407Y0106420D02*
X0070942Y0107955D01*
X0070942Y0104886D02*
X0066338Y0104886D01*
X0066338Y0107188D01*
X0067105Y0107955D01*
X0066338Y0075157D02*
X0066338Y0072088D01*
X0068640Y0072088D01*
X0067872Y0073623D01*
X0067872Y0074390D01*
X0068640Y0075157D01*
X0070174Y0075157D01*
X0070942Y0074390D01*
X0070942Y0072855D01*
X0070174Y0072088D01*
X0070942Y0070554D02*
X0069407Y0069019D01*
X0069407Y0069786D02*
X0069407Y0067484D01*
X0070942Y0067484D02*
X0066338Y0067484D01*
X0066338Y0069786D01*
X0067105Y0070554D01*
X0068640Y0070554D01*
X0069407Y0069786D01*
D12*
X0065551Y0087850D02*
X0065551Y0094150D01*
X0066569Y0093756D02*
X0066571Y0093803D01*
X0066577Y0093849D01*
X0066586Y0093895D01*
X0066600Y0093939D01*
X0066617Y0093983D01*
X0066638Y0094024D01*
X0066662Y0094064D01*
X0066689Y0094102D01*
X0066720Y0094137D01*
X0066753Y0094170D01*
X0066789Y0094200D01*
X0066828Y0094226D01*
X0066868Y0094250D01*
X0066910Y0094269D01*
X0066954Y0094286D01*
X0066999Y0094298D01*
X0067045Y0094307D01*
X0067091Y0094312D01*
X0067138Y0094313D01*
X0067184Y0094310D01*
X0067230Y0094303D01*
X0067276Y0094292D01*
X0067320Y0094278D01*
X0067363Y0094260D01*
X0067404Y0094238D01*
X0067444Y0094213D01*
X0067481Y0094185D01*
X0067516Y0094154D01*
X0067548Y0094120D01*
X0067577Y0094083D01*
X0067602Y0094045D01*
X0067625Y0094004D01*
X0067644Y0093961D01*
X0067659Y0093917D01*
X0067671Y0093872D01*
X0067679Y0093826D01*
X0067683Y0093779D01*
X0067683Y0093733D01*
X0067679Y0093686D01*
X0067671Y0093640D01*
X0067659Y0093595D01*
X0067644Y0093551D01*
X0067625Y0093508D01*
X0067602Y0093467D01*
X0067577Y0093429D01*
X0067548Y0093392D01*
X0067516Y0093358D01*
X0067481Y0093327D01*
X0067444Y0093299D01*
X0067405Y0093274D01*
X0067363Y0093252D01*
X0067320Y0093234D01*
X0067276Y0093220D01*
X0067230Y0093209D01*
X0067184Y0093202D01*
X0067138Y0093199D01*
X0067091Y0093200D01*
X0067045Y0093205D01*
X0066999Y0093214D01*
X0066954Y0093226D01*
X0066910Y0093243D01*
X0066868Y0093262D01*
X0066828Y0093286D01*
X0066789Y0093312D01*
X0066753Y0093342D01*
X0066720Y0093375D01*
X0066689Y0093410D01*
X0066662Y0093448D01*
X0066638Y0093488D01*
X0066617Y0093529D01*
X0066600Y0093573D01*
X0066586Y0093617D01*
X0066577Y0093663D01*
X0066571Y0093709D01*
X0066569Y0093756D01*
X0056102Y0094150D02*
X0056102Y0087850D01*
X0050512Y0146315D02*
X0045000Y0146315D01*
X0042244Y0147496D02*
X0042244Y0150252D01*
X0039882Y0147890D01*
X0039882Y0152614D01*
X0042244Y0150252D01*
X0042244Y0153008D01*
X0045000Y0154189D02*
X0050512Y0154189D01*
X0050512Y0146315D01*
X0037126Y0146315D02*
X0031614Y0146315D01*
X0031614Y0154189D01*
X0037126Y0154189D01*
X0036811Y0158126D02*
X0031299Y0158126D01*
X0031299Y0166000D01*
X0036811Y0166000D01*
X0039567Y0164425D02*
X0041929Y0162063D01*
X0039567Y0159701D01*
X0039567Y0164425D01*
X0041929Y0164819D02*
X0041929Y0162063D01*
X0041929Y0159307D01*
X0044685Y0158126D02*
X0050197Y0158126D01*
X0050197Y0166000D01*
X0044685Y0166000D01*
X0065945Y0165567D02*
X0065945Y0159268D01*
X0075394Y0159268D02*
X0075394Y0165567D01*
X0076412Y0165173D02*
X0076414Y0165220D01*
X0076420Y0165266D01*
X0076429Y0165312D01*
X0076443Y0165356D01*
X0076460Y0165400D01*
X0076481Y0165441D01*
X0076505Y0165481D01*
X0076532Y0165519D01*
X0076563Y0165554D01*
X0076596Y0165587D01*
X0076632Y0165617D01*
X0076671Y0165643D01*
X0076711Y0165667D01*
X0076753Y0165686D01*
X0076797Y0165703D01*
X0076842Y0165715D01*
X0076888Y0165724D01*
X0076934Y0165729D01*
X0076981Y0165730D01*
X0077027Y0165727D01*
X0077073Y0165720D01*
X0077119Y0165709D01*
X0077163Y0165695D01*
X0077206Y0165677D01*
X0077247Y0165655D01*
X0077287Y0165630D01*
X0077324Y0165602D01*
X0077359Y0165571D01*
X0077391Y0165537D01*
X0077420Y0165500D01*
X0077445Y0165462D01*
X0077468Y0165421D01*
X0077487Y0165378D01*
X0077502Y0165334D01*
X0077514Y0165289D01*
X0077522Y0165243D01*
X0077526Y0165196D01*
X0077526Y0165150D01*
X0077522Y0165103D01*
X0077514Y0165057D01*
X0077502Y0165012D01*
X0077487Y0164968D01*
X0077468Y0164925D01*
X0077445Y0164884D01*
X0077420Y0164846D01*
X0077391Y0164809D01*
X0077359Y0164775D01*
X0077324Y0164744D01*
X0077287Y0164716D01*
X0077248Y0164691D01*
X0077206Y0164669D01*
X0077163Y0164651D01*
X0077119Y0164637D01*
X0077073Y0164626D01*
X0077027Y0164619D01*
X0076981Y0164616D01*
X0076934Y0164617D01*
X0076888Y0164622D01*
X0076842Y0164631D01*
X0076797Y0164643D01*
X0076753Y0164660D01*
X0076711Y0164679D01*
X0076671Y0164703D01*
X0076632Y0164729D01*
X0076596Y0164759D01*
X0076563Y0164792D01*
X0076532Y0164827D01*
X0076505Y0164865D01*
X0076481Y0164905D01*
X0076460Y0164946D01*
X0076443Y0164990D01*
X0076429Y0165034D01*
X0076420Y0165080D01*
X0076414Y0165126D01*
X0076412Y0165173D01*
X0216339Y0195252D02*
X0216339Y0112280D01*
X0311614Y0112280D01*
X0311614Y0195252D01*
X0286713Y0220154D01*
X0241240Y0220154D01*
X0216339Y0195252D01*
D13*
X0039772Y0168864D02*
X0039522Y0169114D01*
X0039021Y0169114D01*
X0038771Y0168864D01*
X0038299Y0168864D02*
X0038299Y0167863D01*
X0038049Y0167613D01*
X0037298Y0167613D01*
X0037298Y0169114D01*
X0038049Y0169114D01*
X0038299Y0168864D01*
X0038771Y0167613D02*
X0039772Y0168614D01*
X0039772Y0168864D01*
X0039772Y0167613D02*
X0038771Y0167613D01*
X0038364Y0157303D02*
X0037613Y0157303D01*
X0037613Y0155802D01*
X0038364Y0155802D01*
X0038614Y0156052D01*
X0038614Y0157053D01*
X0038364Y0157303D01*
X0039086Y0156803D02*
X0039587Y0157303D01*
X0039587Y0155802D01*
X0040087Y0155802D02*
X0039086Y0155802D01*
D14*
X0093150Y0175823D02*
X0095650Y0173323D01*
X0100650Y0173323D01*
X0103150Y0175823D01*
X0103150Y0190823D01*
X0100650Y0193323D01*
X0095650Y0193323D01*
X0093150Y0190823D01*
X0093150Y0175823D01*
X0103150Y0175823D02*
X0105650Y0173323D01*
X0110650Y0173323D01*
X0113150Y0175823D01*
X0113150Y0190823D01*
X0110650Y0193323D01*
X0105650Y0193323D01*
X0103150Y0190823D01*
X0113150Y0190823D02*
X0115650Y0193323D01*
X0120650Y0193323D01*
X0123150Y0190823D01*
X0123150Y0175823D01*
X0120650Y0173323D01*
X0115650Y0173323D01*
X0113150Y0175823D01*
X0123150Y0175823D02*
X0125650Y0173323D01*
X0130650Y0173323D01*
X0133150Y0175823D01*
X0133150Y0190823D01*
X0130650Y0193323D01*
X0125650Y0193323D01*
X0123150Y0190823D01*
X0133150Y0190823D02*
X0135650Y0193323D01*
X0140650Y0193323D01*
X0143150Y0190823D01*
X0143150Y0175823D01*
X0140650Y0173323D01*
X0135650Y0173323D01*
X0133150Y0175823D01*
X0143150Y0175823D02*
X0145650Y0173323D01*
X0150650Y0173323D01*
X0153150Y0175823D01*
X0153150Y0190823D01*
X0150650Y0193323D01*
X0145650Y0193323D01*
X0143150Y0190823D01*
X0153150Y0190823D02*
X0155650Y0193323D01*
X0160650Y0193323D01*
X0163150Y0190823D01*
X0163150Y0175823D01*
X0160650Y0173323D01*
X0155650Y0173323D01*
X0153150Y0175823D01*
X0151398Y0167654D02*
X0146398Y0167654D01*
X0143898Y0165154D01*
X0143898Y0160154D01*
X0146398Y0157654D01*
X0151398Y0157654D01*
X0153898Y0160154D01*
X0156398Y0157654D01*
X0161398Y0157654D01*
X0163898Y0160154D01*
X0163898Y0165154D01*
X0161398Y0167654D01*
X0156398Y0167654D01*
X0153898Y0165154D01*
X0153898Y0160154D01*
X0153898Y0165154D02*
X0151398Y0167654D01*
X0143898Y0165154D02*
X0141398Y0167654D01*
X0136398Y0167654D01*
X0133898Y0165154D01*
X0133898Y0160154D01*
X0136398Y0157654D01*
X0141398Y0157654D01*
X0143898Y0160154D01*
X0144193Y0132457D02*
X0141693Y0129957D01*
X0141693Y0124957D01*
X0144193Y0122457D01*
X0141693Y0119957D01*
X0141693Y0114957D01*
X0144193Y0112457D01*
X0149193Y0112457D01*
X0151693Y0114957D01*
X0151693Y0119957D01*
X0149193Y0122457D01*
X0144193Y0122457D01*
X0149193Y0122457D02*
X0151693Y0124957D01*
X0151693Y0129957D01*
X0149193Y0132457D01*
X0144193Y0132457D01*
X0144193Y0112457D02*
X0141693Y0109957D01*
X0141693Y0104957D01*
X0144193Y0102457D01*
X0141693Y0099957D01*
X0141693Y0094957D01*
X0144193Y0092457D01*
X0141693Y0089957D01*
X0141693Y0084957D01*
X0144193Y0082457D01*
X0149193Y0082457D01*
X0151693Y0084957D01*
X0151693Y0089957D01*
X0149193Y0092457D01*
X0144193Y0092457D01*
X0149193Y0092457D02*
X0151693Y0094957D01*
X0151693Y0099957D01*
X0149193Y0102457D01*
X0144193Y0102457D01*
X0149193Y0102457D02*
X0151693Y0104957D01*
X0151693Y0109957D01*
X0149193Y0112457D01*
X0149193Y0082457D02*
X0151693Y0079957D01*
X0151693Y0074957D01*
X0149193Y0072457D01*
X0151693Y0069957D01*
X0151693Y0064957D01*
X0149193Y0062457D01*
X0144193Y0062457D01*
X0141693Y0064957D01*
X0141693Y0069957D01*
X0144193Y0072457D01*
X0141693Y0074957D01*
X0141693Y0079957D01*
X0144193Y0082457D01*
X0144193Y0072457D02*
X0149193Y0072457D01*
X0149232Y0051591D02*
X0144232Y0051591D01*
X0141732Y0049091D01*
X0141732Y0044091D01*
X0144232Y0041591D01*
X0149232Y0041591D01*
X0151732Y0044091D01*
X0151732Y0049091D01*
X0149232Y0051591D01*
X0151732Y0049091D02*
X0154232Y0051591D01*
X0159232Y0051591D01*
X0161732Y0049091D01*
X0164232Y0051591D01*
X0169232Y0051591D01*
X0171732Y0049091D01*
X0174232Y0051591D01*
X0179232Y0051591D01*
X0181732Y0049091D01*
X0181732Y0044091D01*
X0179232Y0041591D01*
X0174232Y0041591D01*
X0171732Y0044091D01*
X0169232Y0041591D01*
X0164232Y0041591D01*
X0161732Y0044091D01*
X0159232Y0041591D01*
X0154232Y0041591D01*
X0151732Y0044091D01*
X0141732Y0044091D02*
X0139232Y0041591D01*
X0134232Y0041591D01*
X0131732Y0044091D01*
X0129232Y0041591D01*
X0124232Y0041591D01*
X0121732Y0044091D01*
X0119232Y0041591D01*
X0114232Y0041591D01*
X0111732Y0044091D01*
X0109232Y0041591D01*
X0104232Y0041591D01*
X0101732Y0044091D01*
X0099232Y0041591D01*
X0094232Y0041591D01*
X0091732Y0044091D01*
X0089232Y0041591D01*
X0084232Y0041591D01*
X0081732Y0044091D01*
X0079232Y0041591D01*
X0074232Y0041591D01*
X0071732Y0044091D01*
X0071732Y0049091D01*
X0074232Y0051591D01*
X0079232Y0051591D01*
X0081732Y0049091D01*
X0084232Y0051591D01*
X0089232Y0051591D01*
X0091732Y0049091D01*
X0091732Y0044091D01*
X0081732Y0044091D02*
X0081732Y0049091D01*
X0091732Y0049091D02*
X0094232Y0051591D01*
X0099232Y0051591D01*
X0101732Y0049091D01*
X0104232Y0051591D01*
X0109232Y0051591D01*
X0111732Y0049091D01*
X0114232Y0051591D01*
X0119232Y0051591D01*
X0121732Y0049091D01*
X0121732Y0044091D01*
X0111732Y0044091D02*
X0111732Y0049091D01*
X0121732Y0049091D02*
X0124232Y0051591D01*
X0129232Y0051591D01*
X0131732Y0049091D01*
X0134232Y0051591D01*
X0139232Y0051591D01*
X0141732Y0049091D01*
X0131732Y0049091D02*
X0131732Y0044091D01*
X0101732Y0044091D02*
X0101732Y0049091D01*
X0099232Y0016157D02*
X0094232Y0016157D01*
X0091732Y0013657D01*
X0091732Y0008657D01*
X0089232Y0006157D01*
X0084232Y0006157D01*
X0081732Y0008657D01*
X0079232Y0006157D01*
X0074232Y0006157D01*
X0071732Y0008657D01*
X0071732Y0013657D01*
X0074232Y0016157D01*
X0079232Y0016157D01*
X0081732Y0013657D01*
X0084232Y0016157D01*
X0089232Y0016157D01*
X0091732Y0013657D01*
X0099232Y0016157D02*
X0101732Y0013657D01*
X0104232Y0016157D01*
X0109232Y0016157D01*
X0111732Y0013657D01*
X0114232Y0016157D01*
X0119232Y0016157D01*
X0121732Y0013657D01*
X0121732Y0008657D01*
X0119232Y0006157D01*
X0114232Y0006157D01*
X0111732Y0008657D01*
X0109232Y0006157D01*
X0104232Y0006157D01*
X0101732Y0008657D01*
X0099232Y0006157D01*
X0094232Y0006157D01*
X0091732Y0008657D01*
X0081732Y0008657D02*
X0081732Y0013657D01*
X0101732Y0013657D02*
X0101732Y0008657D01*
X0111732Y0008657D02*
X0111732Y0013657D01*
X0121732Y0013657D02*
X0124232Y0016157D01*
X0129232Y0016157D01*
X0131732Y0013657D01*
X0134232Y0016157D01*
X0139232Y0016157D01*
X0141732Y0013657D01*
X0144232Y0016157D01*
X0149232Y0016157D01*
X0151732Y0013657D01*
X0151732Y0008657D01*
X0149232Y0006157D01*
X0144232Y0006157D01*
X0141732Y0008657D01*
X0139232Y0006157D01*
X0134232Y0006157D01*
X0131732Y0008657D01*
X0129232Y0006157D01*
X0124232Y0006157D01*
X0121732Y0008657D01*
X0131732Y0008657D02*
X0131732Y0013657D01*
X0141732Y0013657D02*
X0141732Y0008657D01*
X0151732Y0008657D02*
X0154232Y0006157D01*
X0159232Y0006157D01*
X0161732Y0008657D01*
X0164232Y0006157D01*
X0169232Y0006157D01*
X0171732Y0008657D01*
X0174232Y0006157D01*
X0179232Y0006157D01*
X0181732Y0008657D01*
X0181732Y0013657D01*
X0179232Y0016157D01*
X0174232Y0016157D01*
X0171732Y0013657D01*
X0171732Y0008657D01*
X0161732Y0008657D02*
X0161732Y0013657D01*
X0164232Y0016157D01*
X0169232Y0016157D01*
X0171732Y0013657D01*
X0161732Y0013657D02*
X0159232Y0016157D01*
X0154232Y0016157D01*
X0151732Y0013657D01*
X0181732Y0013657D02*
X0184232Y0016157D01*
X0189232Y0016157D01*
X0191732Y0013657D01*
X0194232Y0016157D01*
X0199232Y0016157D01*
X0201732Y0013657D01*
X0204232Y0016157D01*
X0209232Y0016157D01*
X0211732Y0013657D01*
X0211732Y0008657D01*
X0209232Y0006157D01*
X0204232Y0006157D01*
X0201732Y0008657D01*
X0199232Y0006157D01*
X0194232Y0006157D01*
X0191732Y0008657D01*
X0189232Y0006157D01*
X0184232Y0006157D01*
X0181732Y0008657D01*
X0191732Y0008657D02*
X0191732Y0013657D01*
X0201732Y0013657D02*
X0201732Y0008657D01*
X0211732Y0008657D02*
X0214232Y0006157D01*
X0219232Y0006157D01*
X0221732Y0008657D01*
X0224232Y0006157D01*
X0229232Y0006157D01*
X0231732Y0008657D01*
X0234232Y0006157D01*
X0239232Y0006157D01*
X0241732Y0008657D01*
X0241732Y0013657D01*
X0239232Y0016157D01*
X0234232Y0016157D01*
X0231732Y0013657D01*
X0231732Y0008657D01*
X0241732Y0008657D02*
X0244232Y0006157D01*
X0249232Y0006157D01*
X0251732Y0008657D01*
X0254232Y0006157D01*
X0259232Y0006157D01*
X0261732Y0008657D01*
X0264232Y0006157D01*
X0269232Y0006157D01*
X0271732Y0008657D01*
X0271732Y0013657D01*
X0269232Y0016157D01*
X0264232Y0016157D01*
X0261732Y0013657D01*
X0261732Y0008657D01*
X0261732Y0013657D02*
X0259232Y0016157D01*
X0254232Y0016157D01*
X0251732Y0013657D01*
X0251732Y0008657D01*
X0251732Y0013657D02*
X0249232Y0016157D01*
X0244232Y0016157D01*
X0241732Y0013657D01*
X0231732Y0013657D02*
X0229232Y0016157D01*
X0224232Y0016157D01*
X0221732Y0013657D01*
X0221732Y0008657D01*
X0221732Y0013657D02*
X0219232Y0016157D01*
X0214232Y0016157D01*
X0211732Y0013657D01*
X0209232Y0041591D02*
X0204232Y0041591D01*
X0201732Y0044091D01*
X0199232Y0041591D01*
X0194232Y0041591D01*
X0191732Y0044091D01*
X0189232Y0041591D01*
X0184232Y0041591D01*
X0181732Y0044091D01*
X0191732Y0044091D02*
X0191732Y0049091D01*
X0194232Y0051591D01*
X0199232Y0051591D01*
X0201732Y0049091D01*
X0204232Y0051591D01*
X0209232Y0051591D01*
X0211732Y0049091D01*
X0211732Y0044091D01*
X0209232Y0041591D01*
X0211732Y0044091D02*
X0214232Y0041591D01*
X0219232Y0041591D01*
X0221732Y0044091D01*
X0224232Y0041591D01*
X0229232Y0041591D01*
X0231732Y0044091D01*
X0234232Y0041591D01*
X0239232Y0041591D01*
X0241732Y0044091D01*
X0241732Y0049091D01*
X0239232Y0051591D01*
X0234232Y0051591D01*
X0231732Y0049091D01*
X0231732Y0044091D01*
X0241732Y0044091D02*
X0244232Y0041591D01*
X0249232Y0041591D01*
X0251732Y0044091D01*
X0254232Y0041591D01*
X0259232Y0041591D01*
X0261732Y0044091D01*
X0264232Y0041591D01*
X0269232Y0041591D01*
X0271732Y0044091D01*
X0271732Y0049091D01*
X0269232Y0051591D01*
X0264232Y0051591D01*
X0261732Y0049091D01*
X0261732Y0044091D01*
X0261732Y0049091D02*
X0259232Y0051591D01*
X0254232Y0051591D01*
X0251732Y0049091D01*
X0251732Y0044091D01*
X0251732Y0049091D02*
X0249232Y0051591D01*
X0244232Y0051591D01*
X0241732Y0049091D01*
X0231732Y0049091D02*
X0229232Y0051591D01*
X0224232Y0051591D01*
X0221732Y0049091D01*
X0221732Y0044091D01*
X0221732Y0049091D02*
X0219232Y0051591D01*
X0214232Y0051591D01*
X0211732Y0049091D01*
X0201732Y0049091D02*
X0201732Y0044091D01*
X0191732Y0049091D02*
X0189232Y0051591D01*
X0184232Y0051591D01*
X0181732Y0049091D01*
X0171732Y0049091D02*
X0171732Y0044091D01*
X0161732Y0044091D02*
X0161732Y0049091D01*
X0233228Y0105744D02*
X0235728Y0103244D01*
X0240728Y0103244D01*
X0243228Y0105744D01*
X0243228Y0110744D01*
X0240728Y0113244D01*
X0235728Y0113244D01*
X0233228Y0110744D01*
X0233228Y0105744D01*
X0235728Y0113244D02*
X0233228Y0115744D01*
X0233228Y0120744D01*
X0235728Y0123244D01*
X0233228Y0125744D01*
X0233228Y0130744D01*
X0235728Y0133244D01*
X0233228Y0135744D01*
X0233228Y0140744D01*
X0235728Y0143244D01*
X0233228Y0145744D01*
X0233228Y0150744D01*
X0235728Y0153244D01*
X0233228Y0155744D01*
X0233228Y0160744D01*
X0235728Y0163244D01*
X0233228Y0165744D01*
X0233228Y0170744D01*
X0235728Y0173244D01*
X0233228Y0175744D01*
X0233228Y0180744D01*
X0235728Y0183244D01*
X0233228Y0185744D01*
X0233228Y0190744D01*
X0235728Y0193244D01*
X0233228Y0195744D01*
X0233228Y0200744D01*
X0235728Y0203244D01*
X0240728Y0203244D01*
X0243228Y0200744D01*
X0243228Y0195744D01*
X0240728Y0193244D01*
X0243228Y0190744D01*
X0243228Y0185744D01*
X0240728Y0183244D01*
X0235728Y0183244D01*
X0240728Y0183244D02*
X0243228Y0180744D01*
X0243228Y0175744D01*
X0240728Y0173244D01*
X0243228Y0170744D01*
X0243228Y0165744D01*
X0240728Y0163244D01*
X0243228Y0160744D01*
X0243228Y0155744D01*
X0240728Y0153244D01*
X0235728Y0153244D01*
X0240728Y0153244D02*
X0243228Y0150744D01*
X0243228Y0145744D01*
X0240728Y0143244D01*
X0243228Y0140744D01*
X0243228Y0135744D01*
X0240728Y0133244D01*
X0243228Y0130744D01*
X0243228Y0125744D01*
X0240728Y0123244D01*
X0235728Y0123244D01*
X0240728Y0123244D02*
X0243228Y0120744D01*
X0243228Y0115744D01*
X0240728Y0113244D01*
X0240728Y0133244D02*
X0235728Y0133244D01*
X0235728Y0143244D02*
X0240728Y0143244D01*
X0230973Y0149831D02*
X0293252Y0149831D01*
X0317087Y0150665D02*
X0317087Y0145665D01*
X0319587Y0143165D01*
X0317087Y0140665D01*
X0317087Y0135665D01*
X0319587Y0133165D01*
X0317087Y0130665D01*
X0317087Y0125665D01*
X0319587Y0123165D01*
X0324587Y0123165D01*
X0327087Y0125665D01*
X0327087Y0130665D01*
X0324587Y0133165D01*
X0319587Y0133165D01*
X0324587Y0133165D02*
X0327087Y0135665D01*
X0327087Y0140665D01*
X0324587Y0143165D01*
X0319587Y0143165D01*
X0324587Y0143165D02*
X0327087Y0145665D01*
X0327087Y0150665D01*
X0324587Y0153165D01*
X0319587Y0153165D01*
X0317087Y0155665D01*
X0317087Y0160665D01*
X0319587Y0163165D01*
X0317087Y0165665D01*
X0317087Y0170665D01*
X0319587Y0173165D01*
X0317087Y0175665D01*
X0317087Y0180665D01*
X0319587Y0183165D01*
X0317087Y0185665D01*
X0317087Y0190665D01*
X0319587Y0193165D01*
X0317087Y0195665D01*
X0317087Y0200665D01*
X0319587Y0203165D01*
X0324587Y0203165D01*
X0327087Y0200665D01*
X0327087Y0195665D01*
X0324587Y0193165D01*
X0327087Y0190665D01*
X0327087Y0185665D01*
X0324587Y0183165D01*
X0319587Y0183165D01*
X0324587Y0183165D02*
X0327087Y0180665D01*
X0327087Y0175665D01*
X0324587Y0173165D01*
X0327087Y0170665D01*
X0327087Y0165665D01*
X0324587Y0163165D01*
X0327087Y0160665D01*
X0327087Y0155665D01*
X0324587Y0153165D01*
X0319587Y0153165D02*
X0317087Y0150665D01*
X0319587Y0163165D02*
X0324587Y0163165D01*
X0324587Y0173165D02*
X0319587Y0173165D01*
X0293252Y0170719D02*
X0230973Y0170719D01*
X0235728Y0173244D02*
X0240728Y0173244D01*
X0240728Y0163244D02*
X0235728Y0163244D01*
X0185393Y0163795D02*
X0185396Y0164003D01*
X0185403Y0164210D01*
X0185416Y0164418D01*
X0185434Y0164625D01*
X0185457Y0164831D01*
X0185485Y0165037D01*
X0185518Y0165242D01*
X0185556Y0165446D01*
X0185599Y0165650D01*
X0185647Y0165852D01*
X0185700Y0166053D01*
X0185758Y0166252D01*
X0185820Y0166450D01*
X0185888Y0166647D01*
X0185960Y0166842D01*
X0186037Y0167034D01*
X0186119Y0167225D01*
X0186206Y0167414D01*
X0186297Y0167601D01*
X0186393Y0167785D01*
X0186493Y0167967D01*
X0186597Y0168147D01*
X0186706Y0168324D01*
X0186820Y0168498D01*
X0186937Y0168669D01*
X0187059Y0168838D01*
X0187185Y0169003D01*
X0187314Y0169165D01*
X0187448Y0169324D01*
X0187586Y0169480D01*
X0187727Y0169632D01*
X0187872Y0169781D01*
X0188021Y0169926D01*
X0188173Y0170067D01*
X0188329Y0170205D01*
X0188488Y0170339D01*
X0188650Y0170468D01*
X0188815Y0170594D01*
X0188984Y0170716D01*
X0189155Y0170833D01*
X0189329Y0170947D01*
X0189506Y0171056D01*
X0189686Y0171160D01*
X0189868Y0171260D01*
X0190052Y0171356D01*
X0190239Y0171447D01*
X0190428Y0171534D01*
X0190619Y0171616D01*
X0190811Y0171693D01*
X0191006Y0171765D01*
X0191203Y0171833D01*
X0191401Y0171895D01*
X0191600Y0171953D01*
X0191801Y0172006D01*
X0192003Y0172054D01*
X0192207Y0172097D01*
X0192411Y0172135D01*
X0192616Y0172168D01*
X0192822Y0172196D01*
X0193028Y0172219D01*
X0193235Y0172237D01*
X0193443Y0172250D01*
X0193650Y0172257D01*
X0193858Y0172260D01*
X0194066Y0172257D01*
X0194273Y0172250D01*
X0194481Y0172237D01*
X0194688Y0172219D01*
X0194894Y0172196D01*
X0195100Y0172168D01*
X0195305Y0172135D01*
X0195509Y0172097D01*
X0195713Y0172054D01*
X0195915Y0172006D01*
X0196116Y0171953D01*
X0196315Y0171895D01*
X0196513Y0171833D01*
X0196710Y0171765D01*
X0196905Y0171693D01*
X0197097Y0171616D01*
X0197288Y0171534D01*
X0197477Y0171447D01*
X0197664Y0171356D01*
X0197848Y0171260D01*
X0198030Y0171160D01*
X0198210Y0171056D01*
X0198387Y0170947D01*
X0198561Y0170833D01*
X0198732Y0170716D01*
X0198901Y0170594D01*
X0199066Y0170468D01*
X0199228Y0170339D01*
X0199387Y0170205D01*
X0199543Y0170067D01*
X0199695Y0169926D01*
X0199844Y0169781D01*
X0199989Y0169632D01*
X0200130Y0169480D01*
X0200268Y0169324D01*
X0200402Y0169165D01*
X0200531Y0169003D01*
X0200657Y0168838D01*
X0200779Y0168669D01*
X0200896Y0168498D01*
X0201010Y0168324D01*
X0201119Y0168147D01*
X0201223Y0167967D01*
X0201323Y0167785D01*
X0201419Y0167601D01*
X0201510Y0167414D01*
X0201597Y0167225D01*
X0201679Y0167034D01*
X0201756Y0166842D01*
X0201828Y0166647D01*
X0201896Y0166450D01*
X0201958Y0166252D01*
X0202016Y0166053D01*
X0202069Y0165852D01*
X0202117Y0165650D01*
X0202160Y0165446D01*
X0202198Y0165242D01*
X0202231Y0165037D01*
X0202259Y0164831D01*
X0202282Y0164625D01*
X0202300Y0164418D01*
X0202313Y0164210D01*
X0202320Y0164003D01*
X0202323Y0163795D01*
X0202320Y0163587D01*
X0202313Y0163380D01*
X0202300Y0163172D01*
X0202282Y0162965D01*
X0202259Y0162759D01*
X0202231Y0162553D01*
X0202198Y0162348D01*
X0202160Y0162144D01*
X0202117Y0161940D01*
X0202069Y0161738D01*
X0202016Y0161537D01*
X0201958Y0161338D01*
X0201896Y0161140D01*
X0201828Y0160943D01*
X0201756Y0160748D01*
X0201679Y0160556D01*
X0201597Y0160365D01*
X0201510Y0160176D01*
X0201419Y0159989D01*
X0201323Y0159805D01*
X0201223Y0159623D01*
X0201119Y0159443D01*
X0201010Y0159266D01*
X0200896Y0159092D01*
X0200779Y0158921D01*
X0200657Y0158752D01*
X0200531Y0158587D01*
X0200402Y0158425D01*
X0200268Y0158266D01*
X0200130Y0158110D01*
X0199989Y0157958D01*
X0199844Y0157809D01*
X0199695Y0157664D01*
X0199543Y0157523D01*
X0199387Y0157385D01*
X0199228Y0157251D01*
X0199066Y0157122D01*
X0198901Y0156996D01*
X0198732Y0156874D01*
X0198561Y0156757D01*
X0198387Y0156643D01*
X0198210Y0156534D01*
X0198030Y0156430D01*
X0197848Y0156330D01*
X0197664Y0156234D01*
X0197477Y0156143D01*
X0197288Y0156056D01*
X0197097Y0155974D01*
X0196905Y0155897D01*
X0196710Y0155825D01*
X0196513Y0155757D01*
X0196315Y0155695D01*
X0196116Y0155637D01*
X0195915Y0155584D01*
X0195713Y0155536D01*
X0195509Y0155493D01*
X0195305Y0155455D01*
X0195100Y0155422D01*
X0194894Y0155394D01*
X0194688Y0155371D01*
X0194481Y0155353D01*
X0194273Y0155340D01*
X0194066Y0155333D01*
X0193858Y0155330D01*
X0193650Y0155333D01*
X0193443Y0155340D01*
X0193235Y0155353D01*
X0193028Y0155371D01*
X0192822Y0155394D01*
X0192616Y0155422D01*
X0192411Y0155455D01*
X0192207Y0155493D01*
X0192003Y0155536D01*
X0191801Y0155584D01*
X0191600Y0155637D01*
X0191401Y0155695D01*
X0191203Y0155757D01*
X0191006Y0155825D01*
X0190811Y0155897D01*
X0190619Y0155974D01*
X0190428Y0156056D01*
X0190239Y0156143D01*
X0190052Y0156234D01*
X0189868Y0156330D01*
X0189686Y0156430D01*
X0189506Y0156534D01*
X0189329Y0156643D01*
X0189155Y0156757D01*
X0188984Y0156874D01*
X0188815Y0156996D01*
X0188650Y0157122D01*
X0188488Y0157251D01*
X0188329Y0157385D01*
X0188173Y0157523D01*
X0188021Y0157664D01*
X0187872Y0157809D01*
X0187727Y0157958D01*
X0187586Y0158110D01*
X0187448Y0158266D01*
X0187314Y0158425D01*
X0187185Y0158587D01*
X0187059Y0158752D01*
X0186937Y0158921D01*
X0186820Y0159092D01*
X0186706Y0159266D01*
X0186597Y0159443D01*
X0186493Y0159623D01*
X0186393Y0159805D01*
X0186297Y0159989D01*
X0186206Y0160176D01*
X0186119Y0160365D01*
X0186037Y0160556D01*
X0185960Y0160748D01*
X0185888Y0160943D01*
X0185820Y0161140D01*
X0185758Y0161338D01*
X0185700Y0161537D01*
X0185647Y0161738D01*
X0185599Y0161940D01*
X0185556Y0162144D01*
X0185518Y0162348D01*
X0185485Y0162553D01*
X0185457Y0162759D01*
X0185434Y0162965D01*
X0185416Y0163172D01*
X0185403Y0163380D01*
X0185396Y0163587D01*
X0185393Y0163795D01*
X0176158Y0163795D02*
X0176163Y0164229D01*
X0176179Y0164663D01*
X0176206Y0165097D01*
X0176243Y0165530D01*
X0176291Y0165962D01*
X0176350Y0166392D01*
X0176419Y0166821D01*
X0176498Y0167248D01*
X0176588Y0167673D01*
X0176688Y0168096D01*
X0176799Y0168516D01*
X0176920Y0168933D01*
X0177051Y0169347D01*
X0177193Y0169758D01*
X0177344Y0170165D01*
X0177505Y0170568D01*
X0177676Y0170968D01*
X0177857Y0171363D01*
X0178048Y0171753D01*
X0178248Y0172139D01*
X0178457Y0172519D01*
X0178676Y0172895D01*
X0178904Y0173264D01*
X0179141Y0173629D01*
X0179387Y0173987D01*
X0179641Y0174339D01*
X0179904Y0174685D01*
X0180176Y0175024D01*
X0180455Y0175356D01*
X0180743Y0175682D01*
X0181039Y0176000D01*
X0181342Y0176311D01*
X0181653Y0176614D01*
X0181971Y0176910D01*
X0182297Y0177198D01*
X0182629Y0177477D01*
X0182968Y0177749D01*
X0183314Y0178012D01*
X0183666Y0178266D01*
X0184024Y0178512D01*
X0184389Y0178749D01*
X0184758Y0178977D01*
X0185134Y0179196D01*
X0185514Y0179405D01*
X0185900Y0179605D01*
X0186290Y0179796D01*
X0186685Y0179977D01*
X0187085Y0180148D01*
X0187488Y0180309D01*
X0187895Y0180460D01*
X0188306Y0180602D01*
X0188720Y0180733D01*
X0189137Y0180854D01*
X0189557Y0180965D01*
X0189980Y0181065D01*
X0190405Y0181155D01*
X0190832Y0181234D01*
X0191261Y0181303D01*
X0191691Y0181362D01*
X0192123Y0181410D01*
X0192556Y0181447D01*
X0192990Y0181474D01*
X0193424Y0181490D01*
X0193858Y0181495D01*
X0194292Y0181490D01*
X0194726Y0181474D01*
X0195160Y0181447D01*
X0195593Y0181410D01*
X0196025Y0181362D01*
X0196455Y0181303D01*
X0196884Y0181234D01*
X0197311Y0181155D01*
X0197736Y0181065D01*
X0198159Y0180965D01*
X0198579Y0180854D01*
X0198996Y0180733D01*
X0199410Y0180602D01*
X0199821Y0180460D01*
X0200228Y0180309D01*
X0200631Y0180148D01*
X0201031Y0179977D01*
X0201426Y0179796D01*
X0201816Y0179605D01*
X0202202Y0179405D01*
X0202582Y0179196D01*
X0202958Y0178977D01*
X0203327Y0178749D01*
X0203692Y0178512D01*
X0204050Y0178266D01*
X0204402Y0178012D01*
X0204748Y0177749D01*
X0205087Y0177477D01*
X0205419Y0177198D01*
X0205745Y0176910D01*
X0206063Y0176614D01*
X0206374Y0176311D01*
X0206677Y0176000D01*
X0206973Y0175682D01*
X0207261Y0175356D01*
X0207540Y0175024D01*
X0207812Y0174685D01*
X0208075Y0174339D01*
X0208329Y0173987D01*
X0208575Y0173629D01*
X0208812Y0173264D01*
X0209040Y0172895D01*
X0209259Y0172519D01*
X0209468Y0172139D01*
X0209668Y0171753D01*
X0209859Y0171363D01*
X0210040Y0170968D01*
X0210211Y0170568D01*
X0210372Y0170165D01*
X0210523Y0169758D01*
X0210665Y0169347D01*
X0210796Y0168933D01*
X0210917Y0168516D01*
X0211028Y0168096D01*
X0211128Y0167673D01*
X0211218Y0167248D01*
X0211297Y0166821D01*
X0211366Y0166392D01*
X0211425Y0165962D01*
X0211473Y0165530D01*
X0211510Y0165097D01*
X0211537Y0164663D01*
X0211553Y0164229D01*
X0211558Y0163795D01*
X0211553Y0163361D01*
X0211537Y0162927D01*
X0211510Y0162493D01*
X0211473Y0162060D01*
X0211425Y0161628D01*
X0211366Y0161198D01*
X0211297Y0160769D01*
X0211218Y0160342D01*
X0211128Y0159917D01*
X0211028Y0159494D01*
X0210917Y0159074D01*
X0210796Y0158657D01*
X0210665Y0158243D01*
X0210523Y0157832D01*
X0210372Y0157425D01*
X0210211Y0157022D01*
X0210040Y0156622D01*
X0209859Y0156227D01*
X0209668Y0155837D01*
X0209468Y0155451D01*
X0209259Y0155071D01*
X0209040Y0154695D01*
X0208812Y0154326D01*
X0208575Y0153961D01*
X0208329Y0153603D01*
X0208075Y0153251D01*
X0207812Y0152905D01*
X0207540Y0152566D01*
X0207261Y0152234D01*
X0206973Y0151908D01*
X0206677Y0151590D01*
X0206374Y0151279D01*
X0206063Y0150976D01*
X0205745Y0150680D01*
X0205419Y0150392D01*
X0205087Y0150113D01*
X0204748Y0149841D01*
X0204402Y0149578D01*
X0204050Y0149324D01*
X0203692Y0149078D01*
X0203327Y0148841D01*
X0202958Y0148613D01*
X0202582Y0148394D01*
X0202202Y0148185D01*
X0201816Y0147985D01*
X0201426Y0147794D01*
X0201031Y0147613D01*
X0200631Y0147442D01*
X0200228Y0147281D01*
X0199821Y0147130D01*
X0199410Y0146988D01*
X0198996Y0146857D01*
X0198579Y0146736D01*
X0198159Y0146625D01*
X0197736Y0146525D01*
X0197311Y0146435D01*
X0196884Y0146356D01*
X0196455Y0146287D01*
X0196025Y0146228D01*
X0195593Y0146180D01*
X0195160Y0146143D01*
X0194726Y0146116D01*
X0194292Y0146100D01*
X0193858Y0146095D01*
X0193424Y0146100D01*
X0192990Y0146116D01*
X0192556Y0146143D01*
X0192123Y0146180D01*
X0191691Y0146228D01*
X0191261Y0146287D01*
X0190832Y0146356D01*
X0190405Y0146435D01*
X0189980Y0146525D01*
X0189557Y0146625D01*
X0189137Y0146736D01*
X0188720Y0146857D01*
X0188306Y0146988D01*
X0187895Y0147130D01*
X0187488Y0147281D01*
X0187085Y0147442D01*
X0186685Y0147613D01*
X0186290Y0147794D01*
X0185900Y0147985D01*
X0185514Y0148185D01*
X0185134Y0148394D01*
X0184758Y0148613D01*
X0184389Y0148841D01*
X0184024Y0149078D01*
X0183666Y0149324D01*
X0183314Y0149578D01*
X0182968Y0149841D01*
X0182629Y0150113D01*
X0182297Y0150392D01*
X0181971Y0150680D01*
X0181653Y0150976D01*
X0181342Y0151279D01*
X0181039Y0151590D01*
X0180743Y0151908D01*
X0180455Y0152234D01*
X0180176Y0152566D01*
X0179904Y0152905D01*
X0179641Y0153251D01*
X0179387Y0153603D01*
X0179141Y0153961D01*
X0178904Y0154326D01*
X0178676Y0154695D01*
X0178457Y0155071D01*
X0178248Y0155451D01*
X0178048Y0155837D01*
X0177857Y0156227D01*
X0177676Y0156622D01*
X0177505Y0157022D01*
X0177344Y0157425D01*
X0177193Y0157832D01*
X0177051Y0158243D01*
X0176920Y0158657D01*
X0176799Y0159074D01*
X0176688Y0159494D01*
X0176588Y0159917D01*
X0176498Y0160342D01*
X0176419Y0160769D01*
X0176350Y0161198D01*
X0176291Y0161628D01*
X0176243Y0162060D01*
X0176206Y0162493D01*
X0176179Y0162927D01*
X0176163Y0163361D01*
X0176158Y0163795D01*
X0177185Y0188913D02*
X0182185Y0188913D01*
X0184685Y0191413D01*
X0187185Y0188913D01*
X0192185Y0188913D01*
X0194685Y0191413D01*
X0194685Y0196413D01*
X0192185Y0198913D01*
X0187185Y0198913D01*
X0184685Y0196413D01*
X0184685Y0191413D01*
X0184685Y0196413D02*
X0182185Y0198913D01*
X0177185Y0198913D01*
X0174685Y0196413D01*
X0174685Y0191413D01*
X0177185Y0188913D01*
X0194685Y0191413D02*
X0197185Y0188913D01*
X0202185Y0188913D01*
X0204685Y0191413D01*
X0207185Y0188913D01*
X0212185Y0188913D01*
X0214685Y0191413D01*
X0214685Y0196413D01*
X0212185Y0198913D01*
X0207185Y0198913D01*
X0204685Y0196413D01*
X0204685Y0191413D01*
X0204685Y0196413D02*
X0202185Y0198913D01*
X0197185Y0198913D01*
X0194685Y0196413D01*
X0235728Y0193244D02*
X0240728Y0193244D01*
X0319587Y0193165D02*
X0324587Y0193165D01*
X0364331Y0190665D02*
X0364331Y0185665D01*
X0366831Y0183165D01*
X0371831Y0183165D01*
X0374331Y0185665D01*
X0374331Y0190665D01*
X0371831Y0193165D01*
X0366831Y0193165D01*
X0364331Y0190665D01*
X0366831Y0193165D02*
X0364331Y0195665D01*
X0364331Y0200665D01*
X0366831Y0203165D01*
X0371831Y0203165D01*
X0374331Y0200665D01*
X0374331Y0195665D01*
X0371831Y0193165D01*
X0371831Y0183165D02*
X0374331Y0180665D01*
X0374331Y0175665D01*
X0371831Y0173165D01*
X0374331Y0170665D01*
X0374331Y0165665D01*
X0371831Y0163165D01*
X0374331Y0160665D01*
X0374331Y0155665D01*
X0371831Y0153165D01*
X0366831Y0153165D01*
X0364331Y0155665D01*
X0364331Y0160665D01*
X0366831Y0163165D01*
X0364331Y0165665D01*
X0364331Y0170665D01*
X0366831Y0173165D01*
X0364331Y0175665D01*
X0364331Y0180665D01*
X0366831Y0183165D01*
X0366831Y0173165D02*
X0371831Y0173165D01*
X0371831Y0163165D02*
X0366831Y0163165D01*
X0366831Y0153165D02*
X0364331Y0150665D01*
X0364331Y0145665D01*
X0366831Y0143165D01*
X0364331Y0140665D01*
X0364331Y0135665D01*
X0366831Y0133165D01*
X0364331Y0130665D01*
X0364331Y0125665D01*
X0366831Y0123165D01*
X0371831Y0123165D01*
X0374331Y0125665D01*
X0374331Y0130665D01*
X0371831Y0133165D01*
X0366831Y0133165D01*
X0371831Y0133165D02*
X0374331Y0135665D01*
X0374331Y0140665D01*
X0371831Y0143165D01*
X0366831Y0143165D01*
X0371831Y0143165D02*
X0374331Y0145665D01*
X0374331Y0150665D01*
X0371831Y0153165D01*
X0371831Y0123165D02*
X0374331Y0120665D01*
X0374331Y0115665D01*
X0371831Y0113165D01*
X0374331Y0110665D01*
X0374331Y0105665D01*
X0371831Y0103165D01*
X0374331Y0100665D01*
X0374331Y0095665D01*
X0371831Y0093165D01*
X0366831Y0093165D01*
X0364331Y0095665D01*
X0364331Y0100665D01*
X0366831Y0103165D01*
X0364331Y0105665D01*
X0364331Y0110665D01*
X0366831Y0113165D01*
X0364331Y0115665D01*
X0364331Y0120665D01*
X0366831Y0123165D01*
X0366831Y0113165D02*
X0371831Y0113165D01*
X0371831Y0103165D02*
X0366831Y0103165D01*
X0366831Y0093165D02*
X0364331Y0090665D01*
X0364331Y0085665D01*
X0366831Y0083165D01*
X0364331Y0080665D01*
X0364331Y0075665D01*
X0366831Y0073165D01*
X0364331Y0070665D01*
X0364331Y0065665D01*
X0366831Y0063165D01*
X0364331Y0060665D01*
X0364331Y0055665D01*
X0366831Y0053165D01*
X0371831Y0053165D01*
X0374331Y0055665D01*
X0374331Y0060665D01*
X0371831Y0063165D01*
X0366831Y0063165D01*
X0371831Y0063165D02*
X0374331Y0065665D01*
X0374331Y0070665D01*
X0371831Y0073165D01*
X0366831Y0073165D01*
X0371831Y0073165D02*
X0374331Y0075665D01*
X0374331Y0080665D01*
X0371831Y0083165D01*
X0366831Y0083165D01*
X0371831Y0083165D02*
X0374331Y0085665D01*
X0374331Y0090665D01*
X0371831Y0093165D01*
X0327087Y0090665D02*
X0327087Y0085665D01*
X0324587Y0083165D01*
X0327087Y0080665D01*
X0327087Y0075665D01*
X0324587Y0073165D01*
X0327087Y0070665D01*
X0327087Y0065665D01*
X0324587Y0063165D01*
X0327087Y0060665D01*
X0327087Y0055665D01*
X0324587Y0053165D01*
X0319587Y0053165D01*
X0317087Y0055665D01*
X0317087Y0060665D01*
X0319587Y0063165D01*
X0317087Y0065665D01*
X0317087Y0070665D01*
X0319587Y0073165D01*
X0317087Y0075665D01*
X0317087Y0080665D01*
X0319587Y0083165D01*
X0317087Y0085665D01*
X0317087Y0090665D01*
X0319587Y0093165D01*
X0317087Y0095665D01*
X0317087Y0100665D01*
X0319587Y0103165D01*
X0317087Y0105665D01*
X0317087Y0110665D01*
X0319587Y0113165D01*
X0317087Y0115665D01*
X0317087Y0120665D01*
X0319587Y0123165D01*
X0324587Y0123165D02*
X0327087Y0120665D01*
X0327087Y0115665D01*
X0324587Y0113165D01*
X0327087Y0110665D01*
X0327087Y0105665D01*
X0324587Y0103165D01*
X0327087Y0100665D01*
X0327087Y0095665D01*
X0324587Y0093165D01*
X0319587Y0093165D01*
X0324587Y0093165D02*
X0327087Y0090665D01*
X0324587Y0083165D02*
X0319587Y0083165D01*
X0319587Y0073165D02*
X0324587Y0073165D01*
X0324587Y0063165D02*
X0319587Y0063165D01*
X0319016Y0038028D02*
X0309016Y0038028D01*
X0299016Y0038028D01*
X0289016Y0038028D01*
X0279016Y0038028D01*
X0279016Y0028028D01*
X0289016Y0028028D01*
X0299016Y0028028D01*
X0309016Y0028028D01*
X0319016Y0028028D01*
X0319016Y0038028D01*
X0309016Y0038028D02*
X0309016Y0028028D01*
X0299016Y0028028D02*
X0299016Y0038028D01*
X0289016Y0038028D02*
X0289016Y0028028D01*
X0330511Y0021000D02*
X0330514Y0021208D01*
X0330521Y0021415D01*
X0330534Y0021623D01*
X0330552Y0021830D01*
X0330575Y0022036D01*
X0330603Y0022242D01*
X0330636Y0022447D01*
X0330674Y0022651D01*
X0330717Y0022855D01*
X0330765Y0023057D01*
X0330818Y0023258D01*
X0330876Y0023457D01*
X0330938Y0023655D01*
X0331006Y0023852D01*
X0331078Y0024047D01*
X0331155Y0024239D01*
X0331237Y0024430D01*
X0331324Y0024619D01*
X0331415Y0024806D01*
X0331511Y0024990D01*
X0331611Y0025172D01*
X0331715Y0025352D01*
X0331824Y0025529D01*
X0331938Y0025703D01*
X0332055Y0025874D01*
X0332177Y0026043D01*
X0332303Y0026208D01*
X0332432Y0026370D01*
X0332566Y0026529D01*
X0332704Y0026685D01*
X0332845Y0026837D01*
X0332990Y0026986D01*
X0333139Y0027131D01*
X0333291Y0027272D01*
X0333447Y0027410D01*
X0333606Y0027544D01*
X0333768Y0027673D01*
X0333933Y0027799D01*
X0334102Y0027921D01*
X0334273Y0028038D01*
X0334447Y0028152D01*
X0334624Y0028261D01*
X0334804Y0028365D01*
X0334986Y0028465D01*
X0335170Y0028561D01*
X0335357Y0028652D01*
X0335546Y0028739D01*
X0335737Y0028821D01*
X0335929Y0028898D01*
X0336124Y0028970D01*
X0336321Y0029038D01*
X0336519Y0029100D01*
X0336718Y0029158D01*
X0336919Y0029211D01*
X0337121Y0029259D01*
X0337325Y0029302D01*
X0337529Y0029340D01*
X0337734Y0029373D01*
X0337940Y0029401D01*
X0338146Y0029424D01*
X0338353Y0029442D01*
X0338561Y0029455D01*
X0338768Y0029462D01*
X0338976Y0029465D01*
X0339184Y0029462D01*
X0339391Y0029455D01*
X0339599Y0029442D01*
X0339806Y0029424D01*
X0340012Y0029401D01*
X0340218Y0029373D01*
X0340423Y0029340D01*
X0340627Y0029302D01*
X0340831Y0029259D01*
X0341033Y0029211D01*
X0341234Y0029158D01*
X0341433Y0029100D01*
X0341631Y0029038D01*
X0341828Y0028970D01*
X0342023Y0028898D01*
X0342215Y0028821D01*
X0342406Y0028739D01*
X0342595Y0028652D01*
X0342782Y0028561D01*
X0342966Y0028465D01*
X0343148Y0028365D01*
X0343328Y0028261D01*
X0343505Y0028152D01*
X0343679Y0028038D01*
X0343850Y0027921D01*
X0344019Y0027799D01*
X0344184Y0027673D01*
X0344346Y0027544D01*
X0344505Y0027410D01*
X0344661Y0027272D01*
X0344813Y0027131D01*
X0344962Y0026986D01*
X0345107Y0026837D01*
X0345248Y0026685D01*
X0345386Y0026529D01*
X0345520Y0026370D01*
X0345649Y0026208D01*
X0345775Y0026043D01*
X0345897Y0025874D01*
X0346014Y0025703D01*
X0346128Y0025529D01*
X0346237Y0025352D01*
X0346341Y0025172D01*
X0346441Y0024990D01*
X0346537Y0024806D01*
X0346628Y0024619D01*
X0346715Y0024430D01*
X0346797Y0024239D01*
X0346874Y0024047D01*
X0346946Y0023852D01*
X0347014Y0023655D01*
X0347076Y0023457D01*
X0347134Y0023258D01*
X0347187Y0023057D01*
X0347235Y0022855D01*
X0347278Y0022651D01*
X0347316Y0022447D01*
X0347349Y0022242D01*
X0347377Y0022036D01*
X0347400Y0021830D01*
X0347418Y0021623D01*
X0347431Y0021415D01*
X0347438Y0021208D01*
X0347441Y0021000D01*
X0347438Y0020792D01*
X0347431Y0020585D01*
X0347418Y0020377D01*
X0347400Y0020170D01*
X0347377Y0019964D01*
X0347349Y0019758D01*
X0347316Y0019553D01*
X0347278Y0019349D01*
X0347235Y0019145D01*
X0347187Y0018943D01*
X0347134Y0018742D01*
X0347076Y0018543D01*
X0347014Y0018345D01*
X0346946Y0018148D01*
X0346874Y0017953D01*
X0346797Y0017761D01*
X0346715Y0017570D01*
X0346628Y0017381D01*
X0346537Y0017194D01*
X0346441Y0017010D01*
X0346341Y0016828D01*
X0346237Y0016648D01*
X0346128Y0016471D01*
X0346014Y0016297D01*
X0345897Y0016126D01*
X0345775Y0015957D01*
X0345649Y0015792D01*
X0345520Y0015630D01*
X0345386Y0015471D01*
X0345248Y0015315D01*
X0345107Y0015163D01*
X0344962Y0015014D01*
X0344813Y0014869D01*
X0344661Y0014728D01*
X0344505Y0014590D01*
X0344346Y0014456D01*
X0344184Y0014327D01*
X0344019Y0014201D01*
X0343850Y0014079D01*
X0343679Y0013962D01*
X0343505Y0013848D01*
X0343328Y0013739D01*
X0343148Y0013635D01*
X0342966Y0013535D01*
X0342782Y0013439D01*
X0342595Y0013348D01*
X0342406Y0013261D01*
X0342215Y0013179D01*
X0342023Y0013102D01*
X0341828Y0013030D01*
X0341631Y0012962D01*
X0341433Y0012900D01*
X0341234Y0012842D01*
X0341033Y0012789D01*
X0340831Y0012741D01*
X0340627Y0012698D01*
X0340423Y0012660D01*
X0340218Y0012627D01*
X0340012Y0012599D01*
X0339806Y0012576D01*
X0339599Y0012558D01*
X0339391Y0012545D01*
X0339184Y0012538D01*
X0338976Y0012535D01*
X0338768Y0012538D01*
X0338561Y0012545D01*
X0338353Y0012558D01*
X0338146Y0012576D01*
X0337940Y0012599D01*
X0337734Y0012627D01*
X0337529Y0012660D01*
X0337325Y0012698D01*
X0337121Y0012741D01*
X0336919Y0012789D01*
X0336718Y0012842D01*
X0336519Y0012900D01*
X0336321Y0012962D01*
X0336124Y0013030D01*
X0335929Y0013102D01*
X0335737Y0013179D01*
X0335546Y0013261D01*
X0335357Y0013348D01*
X0335170Y0013439D01*
X0334986Y0013535D01*
X0334804Y0013635D01*
X0334624Y0013739D01*
X0334447Y0013848D01*
X0334273Y0013962D01*
X0334102Y0014079D01*
X0333933Y0014201D01*
X0333768Y0014327D01*
X0333606Y0014456D01*
X0333447Y0014590D01*
X0333291Y0014728D01*
X0333139Y0014869D01*
X0332990Y0015014D01*
X0332845Y0015163D01*
X0332704Y0015315D01*
X0332566Y0015471D01*
X0332432Y0015630D01*
X0332303Y0015792D01*
X0332177Y0015957D01*
X0332055Y0016126D01*
X0331938Y0016297D01*
X0331824Y0016471D01*
X0331715Y0016648D01*
X0331611Y0016828D01*
X0331511Y0017010D01*
X0331415Y0017194D01*
X0331324Y0017381D01*
X0331237Y0017570D01*
X0331155Y0017761D01*
X0331078Y0017953D01*
X0331006Y0018148D01*
X0330938Y0018345D01*
X0330876Y0018543D01*
X0330818Y0018742D01*
X0330765Y0018943D01*
X0330717Y0019145D01*
X0330674Y0019349D01*
X0330636Y0019553D01*
X0330603Y0019758D01*
X0330575Y0019964D01*
X0330552Y0020170D01*
X0330534Y0020377D01*
X0330521Y0020585D01*
X0330514Y0020792D01*
X0330511Y0021000D01*
X0321276Y0021000D02*
X0321281Y0021434D01*
X0321297Y0021868D01*
X0321324Y0022302D01*
X0321361Y0022735D01*
X0321409Y0023167D01*
X0321468Y0023597D01*
X0321537Y0024026D01*
X0321616Y0024453D01*
X0321706Y0024878D01*
X0321806Y0025301D01*
X0321917Y0025721D01*
X0322038Y0026138D01*
X0322169Y0026552D01*
X0322311Y0026963D01*
X0322462Y0027370D01*
X0322623Y0027773D01*
X0322794Y0028173D01*
X0322975Y0028568D01*
X0323166Y0028958D01*
X0323366Y0029344D01*
X0323575Y0029724D01*
X0323794Y0030100D01*
X0324022Y0030469D01*
X0324259Y0030834D01*
X0324505Y0031192D01*
X0324759Y0031544D01*
X0325022Y0031890D01*
X0325294Y0032229D01*
X0325573Y0032561D01*
X0325861Y0032887D01*
X0326157Y0033205D01*
X0326460Y0033516D01*
X0326771Y0033819D01*
X0327089Y0034115D01*
X0327415Y0034403D01*
X0327747Y0034682D01*
X0328086Y0034954D01*
X0328432Y0035217D01*
X0328784Y0035471D01*
X0329142Y0035717D01*
X0329507Y0035954D01*
X0329876Y0036182D01*
X0330252Y0036401D01*
X0330632Y0036610D01*
X0331018Y0036810D01*
X0331408Y0037001D01*
X0331803Y0037182D01*
X0332203Y0037353D01*
X0332606Y0037514D01*
X0333013Y0037665D01*
X0333424Y0037807D01*
X0333838Y0037938D01*
X0334255Y0038059D01*
X0334675Y0038170D01*
X0335098Y0038270D01*
X0335523Y0038360D01*
X0335950Y0038439D01*
X0336379Y0038508D01*
X0336809Y0038567D01*
X0337241Y0038615D01*
X0337674Y0038652D01*
X0338108Y0038679D01*
X0338542Y0038695D01*
X0338976Y0038700D01*
X0339410Y0038695D01*
X0339844Y0038679D01*
X0340278Y0038652D01*
X0340711Y0038615D01*
X0341143Y0038567D01*
X0341573Y0038508D01*
X0342002Y0038439D01*
X0342429Y0038360D01*
X0342854Y0038270D01*
X0343277Y0038170D01*
X0343697Y0038059D01*
X0344114Y0037938D01*
X0344528Y0037807D01*
X0344939Y0037665D01*
X0345346Y0037514D01*
X0345749Y0037353D01*
X0346149Y0037182D01*
X0346544Y0037001D01*
X0346934Y0036810D01*
X0347320Y0036610D01*
X0347700Y0036401D01*
X0348076Y0036182D01*
X0348445Y0035954D01*
X0348810Y0035717D01*
X0349168Y0035471D01*
X0349520Y0035217D01*
X0349866Y0034954D01*
X0350205Y0034682D01*
X0350537Y0034403D01*
X0350863Y0034115D01*
X0351181Y0033819D01*
X0351492Y0033516D01*
X0351795Y0033205D01*
X0352091Y0032887D01*
X0352379Y0032561D01*
X0352658Y0032229D01*
X0352930Y0031890D01*
X0353193Y0031544D01*
X0353447Y0031192D01*
X0353693Y0030834D01*
X0353930Y0030469D01*
X0354158Y0030100D01*
X0354377Y0029724D01*
X0354586Y0029344D01*
X0354786Y0028958D01*
X0354977Y0028568D01*
X0355158Y0028173D01*
X0355329Y0027773D01*
X0355490Y0027370D01*
X0355641Y0026963D01*
X0355783Y0026552D01*
X0355914Y0026138D01*
X0356035Y0025721D01*
X0356146Y0025301D01*
X0356246Y0024878D01*
X0356336Y0024453D01*
X0356415Y0024026D01*
X0356484Y0023597D01*
X0356543Y0023167D01*
X0356591Y0022735D01*
X0356628Y0022302D01*
X0356655Y0021868D01*
X0356671Y0021434D01*
X0356676Y0021000D01*
X0356671Y0020566D01*
X0356655Y0020132D01*
X0356628Y0019698D01*
X0356591Y0019265D01*
X0356543Y0018833D01*
X0356484Y0018403D01*
X0356415Y0017974D01*
X0356336Y0017547D01*
X0356246Y0017122D01*
X0356146Y0016699D01*
X0356035Y0016279D01*
X0355914Y0015862D01*
X0355783Y0015448D01*
X0355641Y0015037D01*
X0355490Y0014630D01*
X0355329Y0014227D01*
X0355158Y0013827D01*
X0354977Y0013432D01*
X0354786Y0013042D01*
X0354586Y0012656D01*
X0354377Y0012276D01*
X0354158Y0011900D01*
X0353930Y0011531D01*
X0353693Y0011166D01*
X0353447Y0010808D01*
X0353193Y0010456D01*
X0352930Y0010110D01*
X0352658Y0009771D01*
X0352379Y0009439D01*
X0352091Y0009113D01*
X0351795Y0008795D01*
X0351492Y0008484D01*
X0351181Y0008181D01*
X0350863Y0007885D01*
X0350537Y0007597D01*
X0350205Y0007318D01*
X0349866Y0007046D01*
X0349520Y0006783D01*
X0349168Y0006529D01*
X0348810Y0006283D01*
X0348445Y0006046D01*
X0348076Y0005818D01*
X0347700Y0005599D01*
X0347320Y0005390D01*
X0346934Y0005190D01*
X0346544Y0004999D01*
X0346149Y0004818D01*
X0345749Y0004647D01*
X0345346Y0004486D01*
X0344939Y0004335D01*
X0344528Y0004193D01*
X0344114Y0004062D01*
X0343697Y0003941D01*
X0343277Y0003830D01*
X0342854Y0003730D01*
X0342429Y0003640D01*
X0342002Y0003561D01*
X0341573Y0003492D01*
X0341143Y0003433D01*
X0340711Y0003385D01*
X0340278Y0003348D01*
X0339844Y0003321D01*
X0339410Y0003305D01*
X0338976Y0003300D01*
X0338542Y0003305D01*
X0338108Y0003321D01*
X0337674Y0003348D01*
X0337241Y0003385D01*
X0336809Y0003433D01*
X0336379Y0003492D01*
X0335950Y0003561D01*
X0335523Y0003640D01*
X0335098Y0003730D01*
X0334675Y0003830D01*
X0334255Y0003941D01*
X0333838Y0004062D01*
X0333424Y0004193D01*
X0333013Y0004335D01*
X0332606Y0004486D01*
X0332203Y0004647D01*
X0331803Y0004818D01*
X0331408Y0004999D01*
X0331018Y0005190D01*
X0330632Y0005390D01*
X0330252Y0005599D01*
X0329876Y0005818D01*
X0329507Y0006046D01*
X0329142Y0006283D01*
X0328784Y0006529D01*
X0328432Y0006783D01*
X0328086Y0007046D01*
X0327747Y0007318D01*
X0327415Y0007597D01*
X0327089Y0007885D01*
X0326771Y0008181D01*
X0326460Y0008484D01*
X0326157Y0008795D01*
X0325861Y0009113D01*
X0325573Y0009439D01*
X0325294Y0009771D01*
X0325022Y0010110D01*
X0324759Y0010456D01*
X0324505Y0010808D01*
X0324259Y0011166D01*
X0324022Y0011531D01*
X0323794Y0011900D01*
X0323575Y0012276D01*
X0323366Y0012656D01*
X0323166Y0013042D01*
X0322975Y0013432D01*
X0322794Y0013827D01*
X0322623Y0014227D01*
X0322462Y0014630D01*
X0322311Y0015037D01*
X0322169Y0015448D01*
X0322038Y0015862D01*
X0321917Y0016279D01*
X0321806Y0016699D01*
X0321706Y0017122D01*
X0321616Y0017547D01*
X0321537Y0017974D01*
X0321468Y0018403D01*
X0321409Y0018833D01*
X0321361Y0019265D01*
X0321324Y0019698D01*
X0321297Y0020132D01*
X0321281Y0020566D01*
X0321276Y0021000D01*
X0319587Y0103165D02*
X0324587Y0103165D01*
X0324587Y0113165D02*
X0319587Y0113165D01*
X0037500Y0115291D02*
X0037500Y0105291D01*
X0027500Y0105291D01*
X0027500Y0115291D01*
X0037500Y0115291D01*
X0037500Y0105291D02*
X0037500Y0095291D01*
X0027500Y0095291D01*
X0027500Y0105291D01*
X0027500Y0095291D02*
X0027500Y0085291D01*
X0027500Y0075291D01*
X0037500Y0075291D01*
X0037500Y0085291D01*
X0037500Y0095291D01*
X0037500Y0085291D02*
X0027500Y0085291D01*
X0025000Y0065055D02*
X0025000Y0056055D01*
X0026000Y0055055D01*
X0025000Y0054055D01*
X0025000Y0046055D01*
X0026000Y0045055D01*
X0025000Y0044055D01*
X0025000Y0036055D01*
X0026000Y0035055D01*
X0025000Y0034055D01*
X0025000Y0026055D01*
X0026000Y0025055D01*
X0025000Y0024055D01*
X0025000Y0016055D01*
X0026000Y0015055D01*
X0025000Y0014055D01*
X0025000Y0005055D01*
X0035000Y0005055D01*
X0035000Y0014055D01*
X0034000Y0015055D01*
X0035000Y0016055D01*
X0035000Y0024055D01*
X0034000Y0025055D01*
X0035000Y0026055D01*
X0035000Y0034055D01*
X0034000Y0035055D01*
X0035000Y0036055D01*
X0035000Y0044055D01*
X0034000Y0045055D01*
X0035000Y0046055D01*
X0035000Y0054055D01*
X0034000Y0055055D01*
X0035000Y0056055D01*
X0035000Y0065055D01*
X0025000Y0065055D01*
D15*
X0022999Y0061308D02*
X0022249Y0061308D01*
X0021498Y0060557D01*
X0021498Y0058305D01*
X0022999Y0058305D01*
X0023750Y0059056D01*
X0023750Y0060557D01*
X0022999Y0061308D01*
X0019997Y0059806D02*
X0019246Y0061308D01*
X0019997Y0059806D02*
X0021498Y0058305D01*
X0066732Y0093756D02*
X0066732Y0094150D01*
X0066732Y0093756D02*
X0067126Y0093756D01*
X0112077Y0095384D02*
X0113578Y0095384D01*
X0112827Y0095384D02*
X0112827Y0099888D01*
X0112077Y0099888D02*
X0113578Y0099888D01*
X0115146Y0099137D02*
X0115897Y0099888D01*
X0117398Y0099888D01*
X0118149Y0099137D01*
X0118149Y0098386D01*
X0115146Y0095384D01*
X0118149Y0095384D01*
X0119750Y0096134D02*
X0119750Y0099137D01*
X0120501Y0099888D01*
X0122002Y0099888D01*
X0122753Y0099137D01*
X0122753Y0096134D02*
X0122002Y0095384D01*
X0120501Y0095384D01*
X0119750Y0096134D01*
X0124354Y0094633D02*
X0127356Y0094633D01*
X0128958Y0095384D02*
X0131210Y0095384D01*
X0131960Y0096134D01*
X0131960Y0099137D01*
X0131210Y0099888D01*
X0128958Y0099888D01*
X0128958Y0095384D01*
X0133562Y0095384D02*
X0133562Y0098386D01*
X0135063Y0099888D01*
X0136564Y0098386D01*
X0136564Y0095384D01*
X0136564Y0097636D02*
X0133562Y0097636D01*
X0138166Y0099888D02*
X0141168Y0099888D01*
X0139667Y0099888D02*
X0139667Y0095384D01*
X0154890Y0076287D02*
X0157892Y0073285D01*
X0158643Y0074035D01*
X0158643Y0075537D01*
X0157892Y0076287D01*
X0154890Y0076287D01*
X0154139Y0075537D01*
X0154139Y0074035D01*
X0154890Y0073285D01*
X0157892Y0073285D01*
X0158643Y0071683D02*
X0158643Y0068681D01*
X0158643Y0070182D02*
X0154139Y0070182D01*
X0155640Y0068681D01*
X0154890Y0067079D02*
X0156391Y0067079D01*
X0157142Y0066329D01*
X0157142Y0064077D01*
X0158643Y0064077D02*
X0154139Y0064077D01*
X0154139Y0066329D01*
X0154890Y0067079D01*
X0154139Y0062475D02*
X0154139Y0060974D01*
X0154139Y0061725D02*
X0157892Y0061725D01*
X0158643Y0060974D01*
X0158643Y0060223D01*
X0157892Y0059473D01*
X0136693Y0062457D02*
X0136693Y0132457D01*
X0211693Y0132457D01*
X0211693Y0062457D01*
X0136693Y0062457D01*
X0127041Y0124161D02*
X0124039Y0124161D01*
X0122438Y0125662D02*
X0121687Y0124911D01*
X0120186Y0124911D01*
X0119435Y0125662D01*
X0119435Y0128665D01*
X0120186Y0129415D01*
X0121687Y0129415D01*
X0122438Y0128665D01*
X0117834Y0128665D02*
X0117834Y0127914D01*
X0114831Y0124911D01*
X0117834Y0124911D01*
X0113263Y0124911D02*
X0111762Y0124911D01*
X0112512Y0124911D02*
X0112512Y0129415D01*
X0111762Y0129415D02*
X0113263Y0129415D01*
X0114831Y0128665D02*
X0115582Y0129415D01*
X0117083Y0129415D01*
X0117834Y0128665D01*
X0128643Y0128665D02*
X0128643Y0125662D01*
X0129394Y0124911D01*
X0130895Y0124911D01*
X0131645Y0125662D01*
X0133247Y0124911D02*
X0136249Y0124911D01*
X0137851Y0124911D02*
X0137851Y0129415D01*
X0138601Y0127163D02*
X0140853Y0124911D01*
X0137851Y0126413D02*
X0140853Y0129415D01*
X0133247Y0129415D02*
X0133247Y0124911D01*
X0131645Y0128665D02*
X0130895Y0129415D01*
X0129394Y0129415D01*
X0128643Y0128665D01*
X0076969Y0165173D02*
X0076575Y0165173D01*
X0076575Y0165567D01*
X0174635Y0202114D02*
X0175386Y0201363D01*
X0176136Y0201363D01*
X0176887Y0202114D01*
X0176887Y0205867D01*
X0176136Y0205867D02*
X0177638Y0205867D01*
X0179239Y0205867D02*
X0181491Y0205867D01*
X0182242Y0205117D01*
X0182242Y0203615D01*
X0181491Y0202865D01*
X0179239Y0202865D01*
X0179239Y0201363D02*
X0179239Y0205867D01*
X0183843Y0205867D02*
X0186845Y0205867D01*
X0186845Y0205117D01*
X0183843Y0202114D01*
X0183843Y0201363D01*
X0329533Y0200613D02*
X0334037Y0200613D01*
X0334037Y0202114D02*
X0334037Y0199111D01*
X0331785Y0197510D02*
X0332535Y0196759D01*
X0332535Y0194507D01*
X0334037Y0194507D02*
X0329533Y0194507D01*
X0329533Y0196759D01*
X0330283Y0197510D01*
X0331785Y0197510D01*
X0331034Y0199111D02*
X0329533Y0200613D01*
X0329533Y0192906D02*
X0329533Y0191405D01*
X0329533Y0192155D02*
X0333286Y0192155D01*
X0334037Y0191405D01*
X0334037Y0190654D01*
X0333286Y0189904D01*
X0325515Y0044176D02*
X0324764Y0044176D01*
X0324014Y0043426D01*
X0324014Y0041174D01*
X0325515Y0041174D01*
X0326266Y0041924D01*
X0326266Y0043426D01*
X0325515Y0044176D01*
X0322513Y0042675D02*
X0324014Y0041174D01*
X0324014Y0039572D02*
X0322513Y0039572D01*
X0321762Y0038822D01*
X0321762Y0036570D01*
X0326266Y0036570D01*
X0324764Y0036570D02*
X0324764Y0038822D01*
X0324014Y0039572D01*
X0322513Y0042675D02*
X0321762Y0044176D01*
X0321762Y0034968D02*
X0321762Y0033467D01*
X0321762Y0034218D02*
X0325515Y0034218D01*
X0326266Y0033467D01*
X0326266Y0032716D01*
X0325515Y0031966D01*
X0023750Y0011308D02*
X0023750Y0008305D01*
X0023750Y0009806D02*
X0019246Y0009806D01*
X0020747Y0008305D01*
D16*
X0025000Y0080291D02*
X0002500Y0080291D01*
X0002500Y0090291D02*
X0025000Y0090291D01*
X0025000Y0100291D02*
X0002500Y0100291D01*
X0002500Y0110291D02*
X0025000Y0110291D01*
X0284016Y0025528D02*
X0284016Y0003028D01*
X0294016Y0003028D02*
X0294016Y0025528D01*
X0304016Y0025528D02*
X0304016Y0003028D01*
X0314016Y0003028D02*
X0314016Y0025528D01*
D17*
X0026500Y0080291D03*
X0026500Y0090291D03*
X0026500Y0100291D03*
X0026500Y0110291D03*
D18*
X0039500Y0110291D03*
X0039500Y0100291D03*
X0039500Y0090291D03*
X0039500Y0080291D03*
D19*
X0284016Y0027028D03*
X0294016Y0027028D03*
X0304016Y0027028D03*
X0314016Y0027028D03*
D20*
X0314016Y0040028D03*
X0304016Y0040028D03*
X0294016Y0040028D03*
X0284016Y0040028D03*
M02*
