%
M48
M72
T01C0.0236
T02C0.0315
T03C0.0320
T04C0.0360
T05C0.0400
T06C0.0520
T07C0.0866
T08C0.1614
%
T01
X9232Y8600
X11594Y8600
X10807Y11356
X8445Y13324
X7264Y12733
X6083Y13718
X9823Y15883
X9429Y16277
X11201Y17852
X12579Y17261
X12185Y15529
X12776Y15450
X7539Y18639
X5492Y18836
X1673Y17655
X7067Y10568
X6870Y9584
X21043Y10174
X22815Y10568
X26555Y18048
X27343Y20411
T02
X30728Y20308
X30728Y19521
X30728Y18733
X30728Y17946
X30728Y17159
X30728Y16371
X30728Y15584
X30728Y14796
X30728Y14009
X30728Y13222
X22067Y13222
X22067Y14009
X22067Y14796
X22067Y15584
X22067Y16371
X22067Y17159
X22067Y17946
X22067Y18733
X22067Y19521
X22067Y20308
T03
X3000Y6828
X3000Y5828
X3000Y4828
X3000Y3828
X3000Y2828
X3000Y1828
T04
X7673Y3210
X8673Y3210
X9673Y3210
X10673Y3210
X11673Y3210
X12673Y3210
X13673Y3210
X14673Y3210
X15673Y3210
X16673Y3210
X17673Y3210
X18673Y3210
X19673Y3210
X20673Y3210
X21673Y3210
X22673Y3210
X23673Y3210
X24673Y3210
X25673Y3210
X26673Y3210
X26673Y4210
X25673Y4210
X24673Y4210
X23673Y4210
X22673Y4210
X21673Y4210
X20673Y4210
X19673Y4210
X18673Y4210
X17673Y4210
X16673Y4210
X15673Y4210
X14673Y4210
X13673Y4210
X12673Y4210
X11673Y4210
X10673Y4210
X9673Y4210
X8673Y4210
X7673Y4210
X34102Y6639
X35102Y6639
X35102Y7639
X34102Y7639
X34102Y8639
X35102Y8639
X35102Y9639
X34102Y9639
X34102Y10639
X35102Y10639
X35102Y11639
X34102Y11639
X34102Y12639
X35102Y12639
X35102Y13639
X34102Y13639
X34102Y14639
X35102Y14639
X35102Y15639
X34102Y15639
X34102Y16639
X35102Y16639
X35102Y17639
X34102Y17639
X34102Y18639
X35102Y18639
X35102Y19639
X34102Y19639
X34102Y20639
X35102Y20639
T05
X1382Y1828
X1382Y2828
X1382Y3828
X1382Y4828
X1382Y5828
X1382Y6828
X4500Y8852
X4500Y9852
X4500Y10852
X4500Y11852
X13890Y17088
X14890Y17088
X15890Y17088
X15815Y18655
X14815Y18655
X13815Y18655
X12815Y18655
X11815Y18655
X10815Y18655
X9815Y18655
X9815Y19655
X10815Y19655
X11815Y19655
X12815Y19655
X13815Y19655
X14815Y19655
X15815Y19655
X23823Y19647
X23823Y20647
X23823Y18647
X23823Y17647
X23823Y16647
X23823Y15647
X23823Y14647
X23823Y13647
X23823Y12647
X23823Y11647
X29335Y11643
X29335Y12643
X29335Y13643
X29335Y14643
X29335Y15643
X29335Y16643
X29335Y17643
X29335Y18643
X29335Y19643
X29335Y20643
X32209Y20639
X32209Y19639
X32209Y18639
X32209Y17639
X32209Y16639
X32209Y15639
X32209Y14639
X32209Y13639
X32209Y12639
X32209Y11639
X32209Y10639
X32209Y9639
X32209Y8639
X32209Y7639
X32209Y6639
X30685Y5828
X29685Y5828
X28685Y5828
X26673Y5482
X25673Y5482
X24673Y5482
X23673Y5482
X22673Y5482
X21673Y5482
X20673Y5482
X19673Y5482
X18673Y5482
X17673Y5482
X16673Y5482
X15673Y5482
X14673Y5482
X13673Y5482
X12673Y5482
X11673Y5482
X10673Y5482
X9673Y5482
X8673Y5482
X7673Y5482
X7673Y1938
X8673Y1938
X9673Y1938
X10673Y1938
X11673Y1938
X12673Y1938
X13673Y1938
X14673Y1938
X15673Y1938
X16673Y1938
X17673Y1938
X18673Y1938
X19673Y1938
X20673Y1938
X21673Y1938
X22673Y1938
X23673Y1938
X24673Y1938
X25673Y1938
X26673Y1938
X36933Y6639
X36933Y7639
X36933Y8639
X36933Y9639
X36933Y10639
X36933Y11639
X36933Y12639
X36933Y13639
X36933Y14639
X36933Y15639
X36933Y16639
X36933Y17639
X36933Y18639
X36933Y19639
X36933Y20639
X14669Y13568
X14669Y12568
X14669Y11568
X14669Y10568
X14669Y9568
X14669Y8568
X14669Y7568
T06
X12567Y11411
X12929Y12592
X1260Y15151
X1283Y16529
T07
X20169Y13068
X20169Y8068
T08
X33898Y2922
X19386Y17202
M30
