G75*
%MOIN*%
%OFA0B0*%
%FSLAX25Y25*%
%IPPOS*%
%LPD*%
%AMOC8*
5,1,8,0,0,1.08239X$1,22.5*
%
%ADD10C,0.00000*%
%ADD11C,0.00400*%
%ADD12C,0.00800*%
%ADD13C,0.00100*%
%ADD14C,0.00600*%
%ADD15C,0.00500*%
%ADD16C,0.03000*%
%ADD17R,0.02000X0.03000*%
%ADD18R,0.04000X0.03000*%
%ADD19R,0.03000X0.02000*%
%ADD20R,0.03000X0.04000*%
D10*
X0001772Y0009224D02*
X0001772Y0213949D01*
X0383661Y0213949D01*
X0383661Y0009224D01*
X0001772Y0009224D01*
X0197362Y0080681D02*
X0197364Y0080812D01*
X0197370Y0080944D01*
X0197380Y0081075D01*
X0197394Y0081206D01*
X0197412Y0081336D01*
X0197434Y0081465D01*
X0197459Y0081594D01*
X0197489Y0081722D01*
X0197523Y0081849D01*
X0197560Y0081976D01*
X0197601Y0082100D01*
X0197646Y0082224D01*
X0197695Y0082346D01*
X0197747Y0082467D01*
X0197803Y0082585D01*
X0197863Y0082703D01*
X0197926Y0082818D01*
X0197993Y0082931D01*
X0198063Y0083043D01*
X0198136Y0083152D01*
X0198212Y0083258D01*
X0198292Y0083363D01*
X0198375Y0083465D01*
X0198461Y0083564D01*
X0198550Y0083661D01*
X0198642Y0083755D01*
X0198737Y0083846D01*
X0198834Y0083935D01*
X0198934Y0084020D01*
X0199037Y0084102D01*
X0199142Y0084181D01*
X0199249Y0084257D01*
X0199359Y0084329D01*
X0199471Y0084398D01*
X0199585Y0084464D01*
X0199700Y0084526D01*
X0199818Y0084585D01*
X0199937Y0084640D01*
X0200058Y0084692D01*
X0200181Y0084739D01*
X0200305Y0084783D01*
X0200430Y0084824D01*
X0200556Y0084860D01*
X0200684Y0084893D01*
X0200812Y0084921D01*
X0200941Y0084946D01*
X0201071Y0084967D01*
X0201201Y0084984D01*
X0201332Y0084997D01*
X0201463Y0085006D01*
X0201594Y0085011D01*
X0201726Y0085012D01*
X0201857Y0085009D01*
X0201989Y0085002D01*
X0202120Y0084991D01*
X0202250Y0084976D01*
X0202380Y0084957D01*
X0202510Y0084934D01*
X0202638Y0084908D01*
X0202766Y0084877D01*
X0202893Y0084842D01*
X0203019Y0084804D01*
X0203143Y0084762D01*
X0203267Y0084716D01*
X0203388Y0084666D01*
X0203508Y0084613D01*
X0203627Y0084556D01*
X0203744Y0084496D01*
X0203858Y0084432D01*
X0203971Y0084364D01*
X0204082Y0084293D01*
X0204191Y0084219D01*
X0204297Y0084142D01*
X0204401Y0084061D01*
X0204502Y0083978D01*
X0204601Y0083891D01*
X0204697Y0083801D01*
X0204790Y0083708D01*
X0204881Y0083613D01*
X0204968Y0083515D01*
X0205053Y0083414D01*
X0205134Y0083311D01*
X0205212Y0083205D01*
X0205287Y0083097D01*
X0205359Y0082987D01*
X0205427Y0082875D01*
X0205492Y0082761D01*
X0205553Y0082644D01*
X0205611Y0082526D01*
X0205665Y0082406D01*
X0205716Y0082285D01*
X0205763Y0082162D01*
X0205806Y0082038D01*
X0205845Y0081913D01*
X0205881Y0081786D01*
X0205912Y0081658D01*
X0205940Y0081530D01*
X0205964Y0081401D01*
X0205984Y0081271D01*
X0206000Y0081140D01*
X0206012Y0081009D01*
X0206020Y0080878D01*
X0206024Y0080747D01*
X0206024Y0080615D01*
X0206020Y0080484D01*
X0206012Y0080353D01*
X0206000Y0080222D01*
X0205984Y0080091D01*
X0205964Y0079961D01*
X0205940Y0079832D01*
X0205912Y0079704D01*
X0205881Y0079576D01*
X0205845Y0079449D01*
X0205806Y0079324D01*
X0205763Y0079200D01*
X0205716Y0079077D01*
X0205665Y0078956D01*
X0205611Y0078836D01*
X0205553Y0078718D01*
X0205492Y0078601D01*
X0205427Y0078487D01*
X0205359Y0078375D01*
X0205287Y0078265D01*
X0205212Y0078157D01*
X0205134Y0078051D01*
X0205053Y0077948D01*
X0204968Y0077847D01*
X0204881Y0077749D01*
X0204790Y0077654D01*
X0204697Y0077561D01*
X0204601Y0077471D01*
X0204502Y0077384D01*
X0204401Y0077301D01*
X0204297Y0077220D01*
X0204191Y0077143D01*
X0204082Y0077069D01*
X0203971Y0076998D01*
X0203859Y0076930D01*
X0203744Y0076866D01*
X0203627Y0076806D01*
X0203508Y0076749D01*
X0203388Y0076696D01*
X0203267Y0076646D01*
X0203143Y0076600D01*
X0203019Y0076558D01*
X0202893Y0076520D01*
X0202766Y0076485D01*
X0202638Y0076454D01*
X0202510Y0076428D01*
X0202380Y0076405D01*
X0202250Y0076386D01*
X0202120Y0076371D01*
X0201989Y0076360D01*
X0201857Y0076353D01*
X0201726Y0076350D01*
X0201594Y0076351D01*
X0201463Y0076356D01*
X0201332Y0076365D01*
X0201201Y0076378D01*
X0201071Y0076395D01*
X0200941Y0076416D01*
X0200812Y0076441D01*
X0200684Y0076469D01*
X0200556Y0076502D01*
X0200430Y0076538D01*
X0200305Y0076579D01*
X0200181Y0076623D01*
X0200058Y0076670D01*
X0199937Y0076722D01*
X0199818Y0076777D01*
X0199700Y0076836D01*
X0199585Y0076898D01*
X0199471Y0076964D01*
X0199359Y0077033D01*
X0199249Y0077105D01*
X0199142Y0077181D01*
X0199037Y0077260D01*
X0198934Y0077342D01*
X0198834Y0077427D01*
X0198737Y0077516D01*
X0198642Y0077607D01*
X0198550Y0077701D01*
X0198461Y0077798D01*
X0198375Y0077897D01*
X0198292Y0077999D01*
X0198212Y0078104D01*
X0198136Y0078210D01*
X0198063Y0078319D01*
X0197993Y0078431D01*
X0197926Y0078544D01*
X0197863Y0078659D01*
X0197803Y0078777D01*
X0197747Y0078895D01*
X0197695Y0079016D01*
X0197646Y0079138D01*
X0197601Y0079262D01*
X0197560Y0079386D01*
X0197523Y0079513D01*
X0197489Y0079640D01*
X0197459Y0079768D01*
X0197434Y0079897D01*
X0197412Y0080026D01*
X0197394Y0080156D01*
X0197380Y0080287D01*
X0197370Y0080418D01*
X0197364Y0080550D01*
X0197362Y0080681D01*
X0197362Y0130681D02*
X0197364Y0130812D01*
X0197370Y0130944D01*
X0197380Y0131075D01*
X0197394Y0131206D01*
X0197412Y0131336D01*
X0197434Y0131465D01*
X0197459Y0131594D01*
X0197489Y0131722D01*
X0197523Y0131849D01*
X0197560Y0131976D01*
X0197601Y0132100D01*
X0197646Y0132224D01*
X0197695Y0132346D01*
X0197747Y0132467D01*
X0197803Y0132585D01*
X0197863Y0132703D01*
X0197926Y0132818D01*
X0197993Y0132931D01*
X0198063Y0133043D01*
X0198136Y0133152D01*
X0198212Y0133258D01*
X0198292Y0133363D01*
X0198375Y0133465D01*
X0198461Y0133564D01*
X0198550Y0133661D01*
X0198642Y0133755D01*
X0198737Y0133846D01*
X0198834Y0133935D01*
X0198934Y0134020D01*
X0199037Y0134102D01*
X0199142Y0134181D01*
X0199249Y0134257D01*
X0199359Y0134329D01*
X0199471Y0134398D01*
X0199585Y0134464D01*
X0199700Y0134526D01*
X0199818Y0134585D01*
X0199937Y0134640D01*
X0200058Y0134692D01*
X0200181Y0134739D01*
X0200305Y0134783D01*
X0200430Y0134824D01*
X0200556Y0134860D01*
X0200684Y0134893D01*
X0200812Y0134921D01*
X0200941Y0134946D01*
X0201071Y0134967D01*
X0201201Y0134984D01*
X0201332Y0134997D01*
X0201463Y0135006D01*
X0201594Y0135011D01*
X0201726Y0135012D01*
X0201857Y0135009D01*
X0201989Y0135002D01*
X0202120Y0134991D01*
X0202250Y0134976D01*
X0202380Y0134957D01*
X0202510Y0134934D01*
X0202638Y0134908D01*
X0202766Y0134877D01*
X0202893Y0134842D01*
X0203019Y0134804D01*
X0203143Y0134762D01*
X0203267Y0134716D01*
X0203388Y0134666D01*
X0203508Y0134613D01*
X0203627Y0134556D01*
X0203744Y0134496D01*
X0203858Y0134432D01*
X0203971Y0134364D01*
X0204082Y0134293D01*
X0204191Y0134219D01*
X0204297Y0134142D01*
X0204401Y0134061D01*
X0204502Y0133978D01*
X0204601Y0133891D01*
X0204697Y0133801D01*
X0204790Y0133708D01*
X0204881Y0133613D01*
X0204968Y0133515D01*
X0205053Y0133414D01*
X0205134Y0133311D01*
X0205212Y0133205D01*
X0205287Y0133097D01*
X0205359Y0132987D01*
X0205427Y0132875D01*
X0205492Y0132761D01*
X0205553Y0132644D01*
X0205611Y0132526D01*
X0205665Y0132406D01*
X0205716Y0132285D01*
X0205763Y0132162D01*
X0205806Y0132038D01*
X0205845Y0131913D01*
X0205881Y0131786D01*
X0205912Y0131658D01*
X0205940Y0131530D01*
X0205964Y0131401D01*
X0205984Y0131271D01*
X0206000Y0131140D01*
X0206012Y0131009D01*
X0206020Y0130878D01*
X0206024Y0130747D01*
X0206024Y0130615D01*
X0206020Y0130484D01*
X0206012Y0130353D01*
X0206000Y0130222D01*
X0205984Y0130091D01*
X0205964Y0129961D01*
X0205940Y0129832D01*
X0205912Y0129704D01*
X0205881Y0129576D01*
X0205845Y0129449D01*
X0205806Y0129324D01*
X0205763Y0129200D01*
X0205716Y0129077D01*
X0205665Y0128956D01*
X0205611Y0128836D01*
X0205553Y0128718D01*
X0205492Y0128601D01*
X0205427Y0128487D01*
X0205359Y0128375D01*
X0205287Y0128265D01*
X0205212Y0128157D01*
X0205134Y0128051D01*
X0205053Y0127948D01*
X0204968Y0127847D01*
X0204881Y0127749D01*
X0204790Y0127654D01*
X0204697Y0127561D01*
X0204601Y0127471D01*
X0204502Y0127384D01*
X0204401Y0127301D01*
X0204297Y0127220D01*
X0204191Y0127143D01*
X0204082Y0127069D01*
X0203971Y0126998D01*
X0203859Y0126930D01*
X0203744Y0126866D01*
X0203627Y0126806D01*
X0203508Y0126749D01*
X0203388Y0126696D01*
X0203267Y0126646D01*
X0203143Y0126600D01*
X0203019Y0126558D01*
X0202893Y0126520D01*
X0202766Y0126485D01*
X0202638Y0126454D01*
X0202510Y0126428D01*
X0202380Y0126405D01*
X0202250Y0126386D01*
X0202120Y0126371D01*
X0201989Y0126360D01*
X0201857Y0126353D01*
X0201726Y0126350D01*
X0201594Y0126351D01*
X0201463Y0126356D01*
X0201332Y0126365D01*
X0201201Y0126378D01*
X0201071Y0126395D01*
X0200941Y0126416D01*
X0200812Y0126441D01*
X0200684Y0126469D01*
X0200556Y0126502D01*
X0200430Y0126538D01*
X0200305Y0126579D01*
X0200181Y0126623D01*
X0200058Y0126670D01*
X0199937Y0126722D01*
X0199818Y0126777D01*
X0199700Y0126836D01*
X0199585Y0126898D01*
X0199471Y0126964D01*
X0199359Y0127033D01*
X0199249Y0127105D01*
X0199142Y0127181D01*
X0199037Y0127260D01*
X0198934Y0127342D01*
X0198834Y0127427D01*
X0198737Y0127516D01*
X0198642Y0127607D01*
X0198550Y0127701D01*
X0198461Y0127798D01*
X0198375Y0127897D01*
X0198292Y0127999D01*
X0198212Y0128104D01*
X0198136Y0128210D01*
X0198063Y0128319D01*
X0197993Y0128431D01*
X0197926Y0128544D01*
X0197863Y0128659D01*
X0197803Y0128777D01*
X0197747Y0128895D01*
X0197695Y0129016D01*
X0197646Y0129138D01*
X0197601Y0129262D01*
X0197560Y0129386D01*
X0197523Y0129513D01*
X0197489Y0129640D01*
X0197459Y0129768D01*
X0197434Y0129897D01*
X0197412Y0130026D01*
X0197394Y0130156D01*
X0197380Y0130287D01*
X0197370Y0130418D01*
X0197364Y0130550D01*
X0197362Y0130681D01*
X0185787Y0172020D02*
X0185789Y0172218D01*
X0185797Y0172416D01*
X0185809Y0172614D01*
X0185826Y0172811D01*
X0185848Y0173008D01*
X0185874Y0173204D01*
X0185906Y0173400D01*
X0185942Y0173595D01*
X0185983Y0173788D01*
X0186029Y0173981D01*
X0186079Y0174173D01*
X0186135Y0174363D01*
X0186194Y0174552D01*
X0186259Y0174739D01*
X0186328Y0174925D01*
X0186401Y0175109D01*
X0186479Y0175291D01*
X0186562Y0175471D01*
X0186649Y0175649D01*
X0186740Y0175825D01*
X0186836Y0175998D01*
X0186935Y0176169D01*
X0187039Y0176338D01*
X0187147Y0176504D01*
X0187259Y0176667D01*
X0187375Y0176828D01*
X0187495Y0176986D01*
X0187619Y0177140D01*
X0187747Y0177292D01*
X0187878Y0177440D01*
X0188013Y0177585D01*
X0188151Y0177727D01*
X0188293Y0177865D01*
X0188438Y0178000D01*
X0188586Y0178131D01*
X0188738Y0178259D01*
X0188892Y0178383D01*
X0189050Y0178503D01*
X0189211Y0178619D01*
X0189374Y0178731D01*
X0189540Y0178839D01*
X0189709Y0178943D01*
X0189880Y0179042D01*
X0190053Y0179138D01*
X0190229Y0179229D01*
X0190407Y0179316D01*
X0190587Y0179399D01*
X0190769Y0179477D01*
X0190953Y0179550D01*
X0191139Y0179619D01*
X0191326Y0179684D01*
X0191515Y0179743D01*
X0191705Y0179799D01*
X0191897Y0179849D01*
X0192090Y0179895D01*
X0192283Y0179936D01*
X0192478Y0179972D01*
X0192674Y0180004D01*
X0192870Y0180030D01*
X0193067Y0180052D01*
X0193264Y0180069D01*
X0193462Y0180081D01*
X0193660Y0180089D01*
X0193858Y0180091D01*
X0194056Y0180089D01*
X0194254Y0180081D01*
X0194452Y0180069D01*
X0194649Y0180052D01*
X0194846Y0180030D01*
X0195042Y0180004D01*
X0195238Y0179972D01*
X0195433Y0179936D01*
X0195626Y0179895D01*
X0195819Y0179849D01*
X0196011Y0179799D01*
X0196201Y0179743D01*
X0196390Y0179684D01*
X0196577Y0179619D01*
X0196763Y0179550D01*
X0196947Y0179477D01*
X0197129Y0179399D01*
X0197309Y0179316D01*
X0197487Y0179229D01*
X0197663Y0179138D01*
X0197836Y0179042D01*
X0198007Y0178943D01*
X0198176Y0178839D01*
X0198342Y0178731D01*
X0198505Y0178619D01*
X0198666Y0178503D01*
X0198824Y0178383D01*
X0198978Y0178259D01*
X0199130Y0178131D01*
X0199278Y0178000D01*
X0199423Y0177865D01*
X0199565Y0177727D01*
X0199703Y0177585D01*
X0199838Y0177440D01*
X0199969Y0177292D01*
X0200097Y0177140D01*
X0200221Y0176986D01*
X0200341Y0176828D01*
X0200457Y0176667D01*
X0200569Y0176504D01*
X0200677Y0176338D01*
X0200781Y0176169D01*
X0200880Y0175998D01*
X0200976Y0175825D01*
X0201067Y0175649D01*
X0201154Y0175471D01*
X0201237Y0175291D01*
X0201315Y0175109D01*
X0201388Y0174925D01*
X0201457Y0174739D01*
X0201522Y0174552D01*
X0201581Y0174363D01*
X0201637Y0174173D01*
X0201687Y0173981D01*
X0201733Y0173788D01*
X0201774Y0173595D01*
X0201810Y0173400D01*
X0201842Y0173204D01*
X0201868Y0173008D01*
X0201890Y0172811D01*
X0201907Y0172614D01*
X0201919Y0172416D01*
X0201927Y0172218D01*
X0201929Y0172020D01*
X0201927Y0171822D01*
X0201919Y0171624D01*
X0201907Y0171426D01*
X0201890Y0171229D01*
X0201868Y0171032D01*
X0201842Y0170836D01*
X0201810Y0170640D01*
X0201774Y0170445D01*
X0201733Y0170252D01*
X0201687Y0170059D01*
X0201637Y0169867D01*
X0201581Y0169677D01*
X0201522Y0169488D01*
X0201457Y0169301D01*
X0201388Y0169115D01*
X0201315Y0168931D01*
X0201237Y0168749D01*
X0201154Y0168569D01*
X0201067Y0168391D01*
X0200976Y0168215D01*
X0200880Y0168042D01*
X0200781Y0167871D01*
X0200677Y0167702D01*
X0200569Y0167536D01*
X0200457Y0167373D01*
X0200341Y0167212D01*
X0200221Y0167054D01*
X0200097Y0166900D01*
X0199969Y0166748D01*
X0199838Y0166600D01*
X0199703Y0166455D01*
X0199565Y0166313D01*
X0199423Y0166175D01*
X0199278Y0166040D01*
X0199130Y0165909D01*
X0198978Y0165781D01*
X0198824Y0165657D01*
X0198666Y0165537D01*
X0198505Y0165421D01*
X0198342Y0165309D01*
X0198176Y0165201D01*
X0198007Y0165097D01*
X0197836Y0164998D01*
X0197663Y0164902D01*
X0197487Y0164811D01*
X0197309Y0164724D01*
X0197129Y0164641D01*
X0196947Y0164563D01*
X0196763Y0164490D01*
X0196577Y0164421D01*
X0196390Y0164356D01*
X0196201Y0164297D01*
X0196011Y0164241D01*
X0195819Y0164191D01*
X0195626Y0164145D01*
X0195433Y0164104D01*
X0195238Y0164068D01*
X0195042Y0164036D01*
X0194846Y0164010D01*
X0194649Y0163988D01*
X0194452Y0163971D01*
X0194254Y0163959D01*
X0194056Y0163951D01*
X0193858Y0163949D01*
X0193660Y0163951D01*
X0193462Y0163959D01*
X0193264Y0163971D01*
X0193067Y0163988D01*
X0192870Y0164010D01*
X0192674Y0164036D01*
X0192478Y0164068D01*
X0192283Y0164104D01*
X0192090Y0164145D01*
X0191897Y0164191D01*
X0191705Y0164241D01*
X0191515Y0164297D01*
X0191326Y0164356D01*
X0191139Y0164421D01*
X0190953Y0164490D01*
X0190769Y0164563D01*
X0190587Y0164641D01*
X0190407Y0164724D01*
X0190229Y0164811D01*
X0190053Y0164902D01*
X0189880Y0164998D01*
X0189709Y0165097D01*
X0189540Y0165201D01*
X0189374Y0165309D01*
X0189211Y0165421D01*
X0189050Y0165537D01*
X0188892Y0165657D01*
X0188738Y0165781D01*
X0188586Y0165909D01*
X0188438Y0166040D01*
X0188293Y0166175D01*
X0188151Y0166313D01*
X0188013Y0166455D01*
X0187878Y0166600D01*
X0187747Y0166748D01*
X0187619Y0166900D01*
X0187495Y0167054D01*
X0187375Y0167212D01*
X0187259Y0167373D01*
X0187147Y0167536D01*
X0187039Y0167702D01*
X0186935Y0167871D01*
X0186836Y0168042D01*
X0186740Y0168215D01*
X0186649Y0168391D01*
X0186562Y0168569D01*
X0186479Y0168749D01*
X0186401Y0168931D01*
X0186328Y0169115D01*
X0186259Y0169301D01*
X0186194Y0169488D01*
X0186135Y0169677D01*
X0186079Y0169867D01*
X0186029Y0170059D01*
X0185983Y0170252D01*
X0185942Y0170445D01*
X0185906Y0170640D01*
X0185874Y0170836D01*
X0185848Y0171032D01*
X0185826Y0171229D01*
X0185809Y0171426D01*
X0185797Y0171624D01*
X0185789Y0171822D01*
X0185787Y0172020D01*
X0330905Y0029224D02*
X0330907Y0029422D01*
X0330915Y0029620D01*
X0330927Y0029818D01*
X0330944Y0030015D01*
X0330966Y0030212D01*
X0330992Y0030408D01*
X0331024Y0030604D01*
X0331060Y0030799D01*
X0331101Y0030992D01*
X0331147Y0031185D01*
X0331197Y0031377D01*
X0331253Y0031567D01*
X0331312Y0031756D01*
X0331377Y0031943D01*
X0331446Y0032129D01*
X0331519Y0032313D01*
X0331597Y0032495D01*
X0331680Y0032675D01*
X0331767Y0032853D01*
X0331858Y0033029D01*
X0331954Y0033202D01*
X0332053Y0033373D01*
X0332157Y0033542D01*
X0332265Y0033708D01*
X0332377Y0033871D01*
X0332493Y0034032D01*
X0332613Y0034190D01*
X0332737Y0034344D01*
X0332865Y0034496D01*
X0332996Y0034644D01*
X0333131Y0034789D01*
X0333269Y0034931D01*
X0333411Y0035069D01*
X0333556Y0035204D01*
X0333704Y0035335D01*
X0333856Y0035463D01*
X0334010Y0035587D01*
X0334168Y0035707D01*
X0334329Y0035823D01*
X0334492Y0035935D01*
X0334658Y0036043D01*
X0334827Y0036147D01*
X0334998Y0036246D01*
X0335171Y0036342D01*
X0335347Y0036433D01*
X0335525Y0036520D01*
X0335705Y0036603D01*
X0335887Y0036681D01*
X0336071Y0036754D01*
X0336257Y0036823D01*
X0336444Y0036888D01*
X0336633Y0036947D01*
X0336823Y0037003D01*
X0337015Y0037053D01*
X0337208Y0037099D01*
X0337401Y0037140D01*
X0337596Y0037176D01*
X0337792Y0037208D01*
X0337988Y0037234D01*
X0338185Y0037256D01*
X0338382Y0037273D01*
X0338580Y0037285D01*
X0338778Y0037293D01*
X0338976Y0037295D01*
X0339174Y0037293D01*
X0339372Y0037285D01*
X0339570Y0037273D01*
X0339767Y0037256D01*
X0339964Y0037234D01*
X0340160Y0037208D01*
X0340356Y0037176D01*
X0340551Y0037140D01*
X0340744Y0037099D01*
X0340937Y0037053D01*
X0341129Y0037003D01*
X0341319Y0036947D01*
X0341508Y0036888D01*
X0341695Y0036823D01*
X0341881Y0036754D01*
X0342065Y0036681D01*
X0342247Y0036603D01*
X0342427Y0036520D01*
X0342605Y0036433D01*
X0342781Y0036342D01*
X0342954Y0036246D01*
X0343125Y0036147D01*
X0343294Y0036043D01*
X0343460Y0035935D01*
X0343623Y0035823D01*
X0343784Y0035707D01*
X0343942Y0035587D01*
X0344096Y0035463D01*
X0344248Y0035335D01*
X0344396Y0035204D01*
X0344541Y0035069D01*
X0344683Y0034931D01*
X0344821Y0034789D01*
X0344956Y0034644D01*
X0345087Y0034496D01*
X0345215Y0034344D01*
X0345339Y0034190D01*
X0345459Y0034032D01*
X0345575Y0033871D01*
X0345687Y0033708D01*
X0345795Y0033542D01*
X0345899Y0033373D01*
X0345998Y0033202D01*
X0346094Y0033029D01*
X0346185Y0032853D01*
X0346272Y0032675D01*
X0346355Y0032495D01*
X0346433Y0032313D01*
X0346506Y0032129D01*
X0346575Y0031943D01*
X0346640Y0031756D01*
X0346699Y0031567D01*
X0346755Y0031377D01*
X0346805Y0031185D01*
X0346851Y0030992D01*
X0346892Y0030799D01*
X0346928Y0030604D01*
X0346960Y0030408D01*
X0346986Y0030212D01*
X0347008Y0030015D01*
X0347025Y0029818D01*
X0347037Y0029620D01*
X0347045Y0029422D01*
X0347047Y0029224D01*
X0347045Y0029026D01*
X0347037Y0028828D01*
X0347025Y0028630D01*
X0347008Y0028433D01*
X0346986Y0028236D01*
X0346960Y0028040D01*
X0346928Y0027844D01*
X0346892Y0027649D01*
X0346851Y0027456D01*
X0346805Y0027263D01*
X0346755Y0027071D01*
X0346699Y0026881D01*
X0346640Y0026692D01*
X0346575Y0026505D01*
X0346506Y0026319D01*
X0346433Y0026135D01*
X0346355Y0025953D01*
X0346272Y0025773D01*
X0346185Y0025595D01*
X0346094Y0025419D01*
X0345998Y0025246D01*
X0345899Y0025075D01*
X0345795Y0024906D01*
X0345687Y0024740D01*
X0345575Y0024577D01*
X0345459Y0024416D01*
X0345339Y0024258D01*
X0345215Y0024104D01*
X0345087Y0023952D01*
X0344956Y0023804D01*
X0344821Y0023659D01*
X0344683Y0023517D01*
X0344541Y0023379D01*
X0344396Y0023244D01*
X0344248Y0023113D01*
X0344096Y0022985D01*
X0343942Y0022861D01*
X0343784Y0022741D01*
X0343623Y0022625D01*
X0343460Y0022513D01*
X0343294Y0022405D01*
X0343125Y0022301D01*
X0342954Y0022202D01*
X0342781Y0022106D01*
X0342605Y0022015D01*
X0342427Y0021928D01*
X0342247Y0021845D01*
X0342065Y0021767D01*
X0341881Y0021694D01*
X0341695Y0021625D01*
X0341508Y0021560D01*
X0341319Y0021501D01*
X0341129Y0021445D01*
X0340937Y0021395D01*
X0340744Y0021349D01*
X0340551Y0021308D01*
X0340356Y0021272D01*
X0340160Y0021240D01*
X0339964Y0021214D01*
X0339767Y0021192D01*
X0339570Y0021175D01*
X0339372Y0021163D01*
X0339174Y0021155D01*
X0338976Y0021153D01*
X0338778Y0021155D01*
X0338580Y0021163D01*
X0338382Y0021175D01*
X0338185Y0021192D01*
X0337988Y0021214D01*
X0337792Y0021240D01*
X0337596Y0021272D01*
X0337401Y0021308D01*
X0337208Y0021349D01*
X0337015Y0021395D01*
X0336823Y0021445D01*
X0336633Y0021501D01*
X0336444Y0021560D01*
X0336257Y0021625D01*
X0336071Y0021694D01*
X0335887Y0021767D01*
X0335705Y0021845D01*
X0335525Y0021928D01*
X0335347Y0022015D01*
X0335171Y0022106D01*
X0334998Y0022202D01*
X0334827Y0022301D01*
X0334658Y0022405D01*
X0334492Y0022513D01*
X0334329Y0022625D01*
X0334168Y0022741D01*
X0334010Y0022861D01*
X0333856Y0022985D01*
X0333704Y0023113D01*
X0333556Y0023244D01*
X0333411Y0023379D01*
X0333269Y0023517D01*
X0333131Y0023659D01*
X0332996Y0023804D01*
X0332865Y0023952D01*
X0332737Y0024104D01*
X0332613Y0024258D01*
X0332493Y0024416D01*
X0332377Y0024577D01*
X0332265Y0024740D01*
X0332157Y0024906D01*
X0332053Y0025075D01*
X0331954Y0025246D01*
X0331858Y0025419D01*
X0331767Y0025595D01*
X0331680Y0025773D01*
X0331597Y0025953D01*
X0331519Y0026135D01*
X0331446Y0026319D01*
X0331377Y0026505D01*
X0331312Y0026692D01*
X0331253Y0026881D01*
X0331197Y0027071D01*
X0331147Y0027263D01*
X0331101Y0027456D01*
X0331060Y0027649D01*
X0331024Y0027844D01*
X0330992Y0028040D01*
X0330966Y0028236D01*
X0330944Y0028433D01*
X0330927Y0028630D01*
X0330915Y0028828D01*
X0330907Y0029026D01*
X0330905Y0029224D01*
D11*
X0286710Y0148091D02*
X0283641Y0148091D01*
X0282873Y0148858D01*
X0282873Y0150393D01*
X0283641Y0151160D01*
X0283641Y0152695D02*
X0282873Y0153462D01*
X0282873Y0154997D01*
X0283641Y0155764D01*
X0284408Y0155764D01*
X0287477Y0152695D01*
X0287477Y0155764D01*
X0286710Y0151160D02*
X0287477Y0150393D01*
X0287477Y0148858D01*
X0286710Y0148091D01*
X0278068Y0148976D02*
X0278068Y0150511D01*
X0277300Y0151278D01*
X0275766Y0152813D02*
X0275766Y0155882D01*
X0278068Y0155115D02*
X0273464Y0155115D01*
X0275766Y0152813D01*
X0274231Y0151278D02*
X0273464Y0150511D01*
X0273464Y0148976D01*
X0274231Y0148209D01*
X0277300Y0148209D01*
X0278068Y0148976D01*
X0276421Y0161016D02*
X0265566Y0161016D01*
X0265127Y0161126D01*
X0264689Y0161454D01*
X0264415Y0161838D01*
X0264250Y0162441D01*
X0264250Y0162989D01*
X0264360Y0163867D01*
X0265456Y0168746D01*
X0265621Y0169349D01*
X0266279Y0170665D01*
X0266772Y0171378D01*
X0267649Y0171926D01*
X0268307Y0172145D01*
X0268636Y0172200D01*
X0277243Y0172200D01*
X0277846Y0171980D01*
X0278559Y0171432D01*
X0278778Y0171213D01*
X0278778Y0169294D01*
X0277846Y0165512D01*
X0268855Y0165512D01*
X0268417Y0163647D01*
X0268307Y0163319D01*
X0268362Y0162935D01*
X0268581Y0162770D01*
X0276476Y0162770D01*
X0277188Y0162880D01*
X0276421Y0161016D01*
X0278997Y0161838D02*
X0278833Y0162441D01*
X0278833Y0162989D01*
X0278943Y0163867D01*
X0280039Y0168746D01*
X0280204Y0169349D01*
X0280861Y0170665D01*
X0281355Y0171378D01*
X0282232Y0171926D01*
X0282890Y0172145D01*
X0283219Y0172200D01*
X0291826Y0172200D01*
X0292429Y0171980D01*
X0293142Y0171432D01*
X0293361Y0171213D01*
X0293361Y0169294D01*
X0292429Y0165512D01*
X0283438Y0165512D01*
X0282999Y0163647D01*
X0282890Y0163319D01*
X0282944Y0162935D01*
X0283164Y0162770D01*
X0291058Y0162770D01*
X0291771Y0162880D01*
X0291004Y0161016D01*
X0280148Y0161016D01*
X0279710Y0161126D01*
X0279271Y0161454D01*
X0278997Y0161838D01*
X0274118Y0167211D02*
X0269404Y0167211D01*
X0269349Y0167266D01*
X0269732Y0169513D01*
X0269897Y0169952D01*
X0270116Y0170336D01*
X0270445Y0170500D01*
X0274337Y0170500D01*
X0274557Y0170445D01*
X0274721Y0170281D01*
X0274721Y0169568D01*
X0274118Y0167211D01*
X0283931Y0167266D02*
X0283986Y0167211D01*
X0288701Y0167211D01*
X0289304Y0169568D01*
X0289304Y0170281D01*
X0289139Y0170445D01*
X0288920Y0170500D01*
X0285028Y0170500D01*
X0284699Y0170336D01*
X0284480Y0169952D01*
X0284315Y0169513D01*
X0283931Y0167266D01*
X0283016Y0178243D02*
X0279946Y0178243D01*
X0278412Y0178243D02*
X0275343Y0178243D01*
X0276877Y0178243D02*
X0276877Y0182847D01*
X0275343Y0181313D01*
X0273808Y0182080D02*
X0273808Y0180545D01*
X0273041Y0179778D01*
X0270739Y0179778D01*
X0272273Y0179778D02*
X0273808Y0178243D01*
X0270739Y0178243D02*
X0270739Y0182847D01*
X0273041Y0182847D01*
X0273808Y0182080D01*
X0279946Y0181313D02*
X0281481Y0182847D01*
X0281481Y0178243D01*
X0264853Y0174612D02*
X0264853Y0173680D01*
X0264689Y0173241D01*
X0264031Y0170500D01*
X0263811Y0169952D01*
X0262989Y0169130D01*
X0262331Y0168856D01*
X0261454Y0168636D01*
X0260358Y0168636D01*
X0261948Y0168417D01*
X0263099Y0167869D01*
X0263154Y0167759D01*
X0263154Y0166279D01*
X0262551Y0163867D01*
X0262167Y0163264D01*
X0262057Y0162606D01*
X0261235Y0161674D01*
X0260577Y0161345D01*
X0259535Y0161016D01*
X0240512Y0161016D01*
X0240841Y0161619D01*
X0240841Y0162003D01*
X0239087Y0166334D01*
X0234536Y0161893D01*
X0234043Y0161016D01*
X0230808Y0161016D01*
X0232179Y0162003D01*
X0238538Y0167978D01*
X0235413Y0175599D01*
X0234810Y0176202D01*
X0240841Y0176202D01*
X0240841Y0175873D01*
X0240676Y0175544D01*
X0240841Y0175270D01*
X0240841Y0174996D01*
X0242211Y0171542D01*
X0246104Y0175380D01*
X0246323Y0175654D01*
X0246487Y0175983D01*
X0246543Y0176202D01*
X0249996Y0176202D01*
X0249283Y0175708D01*
X0248735Y0175325D01*
X0247968Y0174667D01*
X0242815Y0169843D01*
X0245885Y0162277D01*
X0246762Y0161071D01*
X0246926Y0161071D01*
X0247255Y0161400D01*
X0247694Y0162715D01*
X0248352Y0165182D01*
X0249119Y0168308D01*
X0250544Y0174119D01*
X0250764Y0175106D01*
X0250764Y0176202D01*
X0263209Y0176202D01*
X0263867Y0176037D01*
X0264305Y0175763D01*
X0264634Y0175160D01*
X0264853Y0174612D01*
X0260467Y0174064D02*
X0260522Y0173187D01*
X0259755Y0170281D01*
X0259590Y0169897D01*
X0259261Y0169678D01*
X0253779Y0169678D01*
X0254930Y0174338D01*
X0259974Y0174338D01*
X0260467Y0174064D01*
X0259886Y0178243D02*
X0258352Y0178243D01*
X0257584Y0179011D01*
X0256050Y0178243D02*
X0254515Y0179778D01*
X0255282Y0179778D02*
X0252980Y0179778D01*
X0252980Y0178243D02*
X0252980Y0182847D01*
X0255282Y0182847D01*
X0256050Y0182080D01*
X0256050Y0180545D01*
X0255282Y0179778D01*
X0257584Y0182080D02*
X0258352Y0182847D01*
X0259886Y0182847D01*
X0260654Y0182080D01*
X0260654Y0181313D01*
X0259886Y0180545D01*
X0260654Y0179778D01*
X0260654Y0179011D01*
X0259886Y0178243D01*
X0259886Y0180545D02*
X0259119Y0180545D01*
X0258384Y0167704D02*
X0253395Y0167704D01*
X0252134Y0162880D01*
X0257452Y0162880D01*
X0257671Y0162989D01*
X0258055Y0163428D01*
X0258274Y0163757D01*
X0259097Y0166992D01*
X0259097Y0167156D01*
X0258823Y0167540D01*
X0258384Y0167704D01*
X0258649Y0201865D02*
X0258649Y0206469D01*
X0257114Y0204935D01*
X0255580Y0205702D02*
X0255580Y0204167D01*
X0254812Y0203400D01*
X0252510Y0203400D01*
X0252510Y0201865D02*
X0252510Y0206469D01*
X0254812Y0206469D01*
X0255580Y0205702D01*
X0254045Y0203400D02*
X0255580Y0201865D01*
X0257114Y0201865D02*
X0260183Y0201865D01*
X0261718Y0202633D02*
X0264787Y0205702D01*
X0264787Y0202633D01*
X0264020Y0201865D01*
X0262485Y0201865D01*
X0261718Y0202633D01*
X0261718Y0205702D01*
X0262485Y0206469D01*
X0264020Y0206469D01*
X0264787Y0205702D01*
X0276209Y0206469D02*
X0276209Y0201865D01*
X0276209Y0203400D02*
X0278511Y0203400D01*
X0279278Y0204167D01*
X0279278Y0205702D01*
X0278511Y0206469D01*
X0276209Y0206469D01*
X0277743Y0203400D02*
X0279278Y0201865D01*
X0280813Y0201865D02*
X0283882Y0204935D01*
X0283882Y0205702D01*
X0283115Y0206469D01*
X0281580Y0206469D01*
X0280813Y0205702D01*
X0280813Y0201865D02*
X0283882Y0201865D01*
X0181178Y0192988D02*
X0181178Y0189919D01*
X0181178Y0191454D02*
X0176574Y0191454D01*
X0178109Y0189919D01*
X0178876Y0188384D02*
X0179643Y0187617D01*
X0179643Y0185315D01*
X0179643Y0186850D02*
X0181178Y0188384D01*
X0178876Y0188384D02*
X0177341Y0188384D01*
X0176574Y0187617D01*
X0176574Y0185315D01*
X0181178Y0185315D01*
X0070942Y0120016D02*
X0066338Y0120016D01*
X0068640Y0117714D01*
X0068640Y0120784D01*
X0068640Y0116180D02*
X0069407Y0115412D01*
X0069407Y0113110D01*
X0070942Y0113110D02*
X0066338Y0113110D01*
X0066338Y0115412D01*
X0067105Y0116180D01*
X0068640Y0116180D01*
X0069407Y0114645D02*
X0070942Y0116180D01*
X0076613Y0084932D02*
X0077381Y0083398D01*
X0078915Y0081863D01*
X0078915Y0084165D01*
X0079683Y0084932D01*
X0080450Y0084932D01*
X0081217Y0084165D01*
X0081217Y0082630D01*
X0080450Y0081863D01*
X0078915Y0081863D01*
X0077381Y0080328D02*
X0076613Y0079561D01*
X0076613Y0078026D01*
X0077381Y0077259D01*
X0080450Y0077259D01*
X0081217Y0078026D01*
X0081217Y0079561D01*
X0080450Y0080328D01*
X0070942Y0081080D02*
X0070174Y0080313D01*
X0070942Y0081080D02*
X0070942Y0082615D01*
X0070174Y0083382D01*
X0068640Y0083382D01*
X0067872Y0082615D01*
X0067872Y0081847D01*
X0068640Y0080313D01*
X0066338Y0080313D01*
X0066338Y0083382D01*
X0067105Y0078778D02*
X0068640Y0078778D01*
X0069407Y0078011D01*
X0069407Y0075709D01*
X0069407Y0077243D02*
X0070942Y0078778D01*
X0067105Y0078778D02*
X0066338Y0078011D01*
X0066338Y0075709D01*
X0070942Y0075709D01*
X0112046Y0078026D02*
X0112814Y0077259D01*
X0115883Y0077259D01*
X0116650Y0078026D01*
X0116650Y0079561D01*
X0115883Y0080328D01*
X0115883Y0081863D02*
X0116650Y0082630D01*
X0116650Y0084165D01*
X0115883Y0084932D01*
X0114348Y0084932D01*
X0113581Y0084165D01*
X0113581Y0083398D01*
X0114348Y0081863D01*
X0112046Y0081863D01*
X0112046Y0084932D01*
X0112814Y0080328D02*
X0112046Y0079561D01*
X0112046Y0078026D01*
X0065154Y0173145D02*
X0060550Y0173145D01*
X0060550Y0175447D01*
X0061318Y0176214D01*
X0062852Y0176214D01*
X0063620Y0175447D01*
X0063620Y0173145D01*
X0063620Y0174680D02*
X0065154Y0176214D01*
X0064387Y0177749D02*
X0063620Y0177749D01*
X0062852Y0178516D01*
X0062852Y0180051D01*
X0063620Y0180818D01*
X0064387Y0180818D01*
X0065154Y0180051D01*
X0065154Y0178516D01*
X0064387Y0177749D01*
X0062852Y0178516D02*
X0062085Y0177749D01*
X0061318Y0177749D01*
X0060550Y0178516D01*
X0060550Y0180051D01*
X0061318Y0180818D01*
X0062085Y0180818D01*
X0062852Y0180051D01*
X0063620Y0199050D02*
X0063620Y0201352D01*
X0062852Y0202120D01*
X0061318Y0202120D01*
X0060550Y0201352D01*
X0060550Y0199050D01*
X0065154Y0199050D01*
X0063620Y0200585D02*
X0065154Y0202120D01*
X0064387Y0203654D02*
X0065154Y0204422D01*
X0065154Y0205956D01*
X0064387Y0206724D01*
X0063620Y0206724D01*
X0062852Y0205956D01*
X0062852Y0203654D01*
X0064387Y0203654D01*
X0062852Y0203654D02*
X0061318Y0205189D01*
X0060550Y0206724D01*
X0012005Y0203594D02*
X0012005Y0202060D01*
X0011237Y0201292D01*
X0009703Y0202060D02*
X0009703Y0204361D01*
X0011237Y0204361D02*
X0008168Y0204361D01*
X0007401Y0203594D01*
X0007401Y0202060D01*
X0008168Y0201292D01*
X0008935Y0201292D01*
X0009703Y0202060D01*
X0009703Y0199758D02*
X0010470Y0198990D01*
X0010470Y0196688D01*
X0012005Y0196688D02*
X0007401Y0196688D01*
X0007401Y0198990D01*
X0008168Y0199758D01*
X0009703Y0199758D01*
X0010470Y0198223D02*
X0012005Y0199758D01*
X0012005Y0203594D02*
X0011237Y0204361D01*
X0008168Y0190897D02*
X0007401Y0190897D01*
X0007401Y0187828D01*
X0008168Y0186293D02*
X0007401Y0185526D01*
X0007401Y0183224D01*
X0012005Y0183224D01*
X0010470Y0183224D02*
X0010470Y0185526D01*
X0009703Y0186293D01*
X0008168Y0186293D01*
X0010470Y0184758D02*
X0012005Y0186293D01*
X0012005Y0187828D02*
X0011237Y0187828D01*
X0008168Y0190897D01*
D12*
X0031614Y0191941D02*
X0031614Y0184067D01*
X0037126Y0184067D01*
X0039882Y0185642D02*
X0042244Y0188004D01*
X0039882Y0190366D01*
X0039882Y0185642D01*
X0042244Y0185248D02*
X0042244Y0188004D01*
X0042244Y0190760D01*
X0045000Y0191941D02*
X0050512Y0191941D01*
X0050512Y0184067D01*
X0045000Y0184067D01*
X0037126Y0191941D02*
X0031614Y0191941D01*
X0031299Y0195878D02*
X0036811Y0195878D01*
X0039567Y0197453D02*
X0041929Y0199815D01*
X0039567Y0202177D01*
X0039567Y0197453D01*
X0041929Y0197059D02*
X0041929Y0199815D01*
X0041929Y0202571D01*
X0044685Y0203752D02*
X0050197Y0203752D01*
X0050197Y0195878D01*
X0044685Y0195878D01*
X0036811Y0203752D02*
X0031299Y0203752D01*
X0031299Y0195878D01*
X0063976Y0193476D02*
X0063976Y0187177D01*
X0073425Y0187177D02*
X0073425Y0193476D01*
X0074443Y0193083D02*
X0074445Y0193130D01*
X0074451Y0193176D01*
X0074460Y0193222D01*
X0074474Y0193266D01*
X0074491Y0193310D01*
X0074512Y0193351D01*
X0074536Y0193391D01*
X0074563Y0193429D01*
X0074594Y0193464D01*
X0074627Y0193497D01*
X0074663Y0193527D01*
X0074702Y0193553D01*
X0074742Y0193577D01*
X0074784Y0193596D01*
X0074828Y0193613D01*
X0074873Y0193625D01*
X0074919Y0193634D01*
X0074965Y0193639D01*
X0075012Y0193640D01*
X0075058Y0193637D01*
X0075104Y0193630D01*
X0075150Y0193619D01*
X0075194Y0193605D01*
X0075237Y0193587D01*
X0075278Y0193565D01*
X0075318Y0193540D01*
X0075355Y0193512D01*
X0075390Y0193481D01*
X0075422Y0193447D01*
X0075451Y0193410D01*
X0075476Y0193372D01*
X0075499Y0193331D01*
X0075518Y0193288D01*
X0075533Y0193244D01*
X0075545Y0193199D01*
X0075553Y0193153D01*
X0075557Y0193106D01*
X0075557Y0193060D01*
X0075553Y0193013D01*
X0075545Y0192967D01*
X0075533Y0192922D01*
X0075518Y0192878D01*
X0075499Y0192835D01*
X0075476Y0192794D01*
X0075451Y0192756D01*
X0075422Y0192719D01*
X0075390Y0192685D01*
X0075355Y0192654D01*
X0075318Y0192626D01*
X0075279Y0192601D01*
X0075237Y0192579D01*
X0075194Y0192561D01*
X0075150Y0192547D01*
X0075104Y0192536D01*
X0075058Y0192529D01*
X0075012Y0192526D01*
X0074965Y0192527D01*
X0074919Y0192532D01*
X0074873Y0192541D01*
X0074828Y0192553D01*
X0074784Y0192570D01*
X0074742Y0192589D01*
X0074702Y0192613D01*
X0074663Y0192639D01*
X0074627Y0192669D01*
X0074594Y0192702D01*
X0074563Y0192737D01*
X0074536Y0192775D01*
X0074512Y0192815D01*
X0074491Y0192856D01*
X0074474Y0192900D01*
X0074460Y0192944D01*
X0074451Y0192990D01*
X0074445Y0193036D01*
X0074443Y0193083D01*
X0216339Y0203476D02*
X0216339Y0120504D01*
X0311614Y0120504D01*
X0311614Y0203476D01*
X0286713Y0228378D01*
X0241240Y0228378D01*
X0216339Y0203476D01*
X0066569Y0101980D02*
X0066571Y0102027D01*
X0066577Y0102073D01*
X0066586Y0102119D01*
X0066600Y0102163D01*
X0066617Y0102207D01*
X0066638Y0102248D01*
X0066662Y0102288D01*
X0066689Y0102326D01*
X0066720Y0102361D01*
X0066753Y0102394D01*
X0066789Y0102424D01*
X0066828Y0102450D01*
X0066868Y0102474D01*
X0066910Y0102493D01*
X0066954Y0102510D01*
X0066999Y0102522D01*
X0067045Y0102531D01*
X0067091Y0102536D01*
X0067138Y0102537D01*
X0067184Y0102534D01*
X0067230Y0102527D01*
X0067276Y0102516D01*
X0067320Y0102502D01*
X0067363Y0102484D01*
X0067404Y0102462D01*
X0067444Y0102437D01*
X0067481Y0102409D01*
X0067516Y0102378D01*
X0067548Y0102344D01*
X0067577Y0102307D01*
X0067602Y0102269D01*
X0067625Y0102228D01*
X0067644Y0102185D01*
X0067659Y0102141D01*
X0067671Y0102096D01*
X0067679Y0102050D01*
X0067683Y0102003D01*
X0067683Y0101957D01*
X0067679Y0101910D01*
X0067671Y0101864D01*
X0067659Y0101819D01*
X0067644Y0101775D01*
X0067625Y0101732D01*
X0067602Y0101691D01*
X0067577Y0101653D01*
X0067548Y0101616D01*
X0067516Y0101582D01*
X0067481Y0101551D01*
X0067444Y0101523D01*
X0067405Y0101498D01*
X0067363Y0101476D01*
X0067320Y0101458D01*
X0067276Y0101444D01*
X0067230Y0101433D01*
X0067184Y0101426D01*
X0067138Y0101423D01*
X0067091Y0101424D01*
X0067045Y0101429D01*
X0066999Y0101438D01*
X0066954Y0101450D01*
X0066910Y0101467D01*
X0066868Y0101486D01*
X0066828Y0101510D01*
X0066789Y0101536D01*
X0066753Y0101566D01*
X0066720Y0101599D01*
X0066689Y0101634D01*
X0066662Y0101672D01*
X0066638Y0101712D01*
X0066617Y0101753D01*
X0066600Y0101797D01*
X0066586Y0101841D01*
X0066577Y0101887D01*
X0066571Y0101933D01*
X0066569Y0101980D01*
X0065551Y0102374D02*
X0065551Y0096075D01*
X0056102Y0096075D02*
X0056102Y0102374D01*
D13*
X0040087Y0193554D02*
X0039086Y0193554D01*
X0039587Y0193554D02*
X0039587Y0195055D01*
X0039086Y0194555D01*
X0038614Y0194805D02*
X0038364Y0195055D01*
X0037613Y0195055D01*
X0037613Y0193554D01*
X0038364Y0193554D01*
X0038614Y0193804D01*
X0038614Y0194805D01*
X0038771Y0205365D02*
X0039772Y0206366D01*
X0039772Y0206616D01*
X0039522Y0206866D01*
X0039021Y0206866D01*
X0038771Y0206616D01*
X0038299Y0206616D02*
X0038049Y0206866D01*
X0037298Y0206866D01*
X0037298Y0205365D01*
X0038049Y0205365D01*
X0038299Y0205615D01*
X0038299Y0206616D01*
X0038771Y0205365D02*
X0039772Y0205365D01*
D14*
X0093150Y0199047D02*
X0093150Y0184047D01*
X0095650Y0181547D01*
X0100650Y0181547D01*
X0103150Y0184047D01*
X0103150Y0199047D01*
X0100650Y0201547D01*
X0095650Y0201547D01*
X0093150Y0199047D01*
X0103150Y0199047D02*
X0105650Y0201547D01*
X0110650Y0201547D01*
X0113150Y0199047D01*
X0113150Y0184047D01*
X0110650Y0181547D01*
X0105650Y0181547D01*
X0103150Y0184047D01*
X0113150Y0184047D02*
X0115650Y0181547D01*
X0120650Y0181547D01*
X0123150Y0184047D01*
X0123150Y0199047D01*
X0120650Y0201547D01*
X0115650Y0201547D01*
X0113150Y0199047D01*
X0123150Y0199047D02*
X0125650Y0201547D01*
X0130650Y0201547D01*
X0133150Y0199047D01*
X0133150Y0184047D01*
X0130650Y0181547D01*
X0125650Y0181547D01*
X0123150Y0184047D01*
X0133150Y0184047D02*
X0135650Y0181547D01*
X0140650Y0181547D01*
X0143150Y0184047D01*
X0143150Y0199047D01*
X0140650Y0201547D01*
X0135650Y0201547D01*
X0133150Y0199047D01*
X0143150Y0199047D02*
X0145650Y0201547D01*
X0150650Y0201547D01*
X0153150Y0199047D01*
X0153150Y0184047D01*
X0150650Y0181547D01*
X0145650Y0181547D01*
X0143150Y0184047D01*
X0153150Y0184047D02*
X0155650Y0181547D01*
X0160650Y0181547D01*
X0163150Y0184047D01*
X0163150Y0199047D01*
X0160650Y0201547D01*
X0155650Y0201547D01*
X0153150Y0199047D01*
X0151398Y0175878D02*
X0146398Y0175878D01*
X0143898Y0173378D01*
X0143898Y0168378D01*
X0146398Y0165878D01*
X0151398Y0165878D01*
X0153898Y0168378D01*
X0156398Y0165878D01*
X0161398Y0165878D01*
X0163898Y0168378D01*
X0163898Y0173378D01*
X0161398Y0175878D01*
X0156398Y0175878D01*
X0153898Y0173378D01*
X0153898Y0168378D01*
X0153898Y0173378D02*
X0151398Y0175878D01*
X0143898Y0173378D02*
X0141398Y0175878D01*
X0136398Y0175878D01*
X0133898Y0173378D01*
X0133898Y0168378D01*
X0136398Y0165878D01*
X0141398Y0165878D01*
X0143898Y0168378D01*
X0144193Y0140681D02*
X0141693Y0138181D01*
X0141693Y0133181D01*
X0144193Y0130681D01*
X0141693Y0128181D01*
X0141693Y0123181D01*
X0144193Y0120681D01*
X0149193Y0120681D01*
X0151693Y0123181D01*
X0151693Y0128181D01*
X0149193Y0130681D01*
X0144193Y0130681D01*
X0149193Y0130681D02*
X0151693Y0133181D01*
X0151693Y0138181D01*
X0149193Y0140681D01*
X0144193Y0140681D01*
X0144193Y0120681D02*
X0141693Y0118181D01*
X0141693Y0113181D01*
X0144193Y0110681D01*
X0141693Y0108181D01*
X0141693Y0103181D01*
X0144193Y0100681D01*
X0141693Y0098181D01*
X0141693Y0093181D01*
X0144193Y0090681D01*
X0149193Y0090681D01*
X0151693Y0093181D01*
X0151693Y0098181D01*
X0149193Y0100681D01*
X0144193Y0100681D01*
X0149193Y0100681D02*
X0151693Y0103181D01*
X0151693Y0108181D01*
X0149193Y0110681D01*
X0144193Y0110681D01*
X0149193Y0110681D02*
X0151693Y0113181D01*
X0151693Y0118181D01*
X0149193Y0120681D01*
X0149193Y0090681D02*
X0151693Y0088181D01*
X0151693Y0083181D01*
X0149193Y0080681D01*
X0151693Y0078181D01*
X0151693Y0073181D01*
X0149193Y0070681D01*
X0144193Y0070681D01*
X0141693Y0073181D01*
X0141693Y0078181D01*
X0144193Y0080681D01*
X0141693Y0083181D01*
X0141693Y0088181D01*
X0144193Y0090681D01*
X0144193Y0080681D02*
X0149193Y0080681D01*
X0149232Y0059815D02*
X0144232Y0059815D01*
X0141732Y0057315D01*
X0141732Y0052315D01*
X0144232Y0049815D01*
X0149232Y0049815D01*
X0151732Y0052315D01*
X0151732Y0057315D01*
X0149232Y0059815D01*
X0151732Y0057315D02*
X0154232Y0059815D01*
X0159232Y0059815D01*
X0161732Y0057315D01*
X0164232Y0059815D01*
X0169232Y0059815D01*
X0171732Y0057315D01*
X0174232Y0059815D01*
X0179232Y0059815D01*
X0181732Y0057315D01*
X0181732Y0052315D01*
X0179232Y0049815D01*
X0174232Y0049815D01*
X0171732Y0052315D01*
X0169232Y0049815D01*
X0164232Y0049815D01*
X0161732Y0052315D01*
X0159232Y0049815D01*
X0154232Y0049815D01*
X0151732Y0052315D01*
X0141732Y0052315D02*
X0139232Y0049815D01*
X0134232Y0049815D01*
X0131732Y0052315D01*
X0129232Y0049815D01*
X0124232Y0049815D01*
X0121732Y0052315D01*
X0119232Y0049815D01*
X0114232Y0049815D01*
X0111732Y0052315D01*
X0109232Y0049815D01*
X0104232Y0049815D01*
X0101732Y0052315D01*
X0099232Y0049815D01*
X0094232Y0049815D01*
X0091732Y0052315D01*
X0089232Y0049815D01*
X0084232Y0049815D01*
X0081732Y0052315D01*
X0079232Y0049815D01*
X0074232Y0049815D01*
X0071732Y0052315D01*
X0071732Y0057315D01*
X0074232Y0059815D01*
X0079232Y0059815D01*
X0081732Y0057315D01*
X0084232Y0059815D01*
X0089232Y0059815D01*
X0091732Y0057315D01*
X0091732Y0052315D01*
X0091732Y0057315D02*
X0094232Y0059815D01*
X0099232Y0059815D01*
X0101732Y0057315D01*
X0104232Y0059815D01*
X0109232Y0059815D01*
X0111732Y0057315D01*
X0114232Y0059815D01*
X0119232Y0059815D01*
X0121732Y0057315D01*
X0121732Y0052315D01*
X0121732Y0057315D02*
X0124232Y0059815D01*
X0129232Y0059815D01*
X0131732Y0057315D01*
X0134232Y0059815D01*
X0139232Y0059815D01*
X0141732Y0057315D01*
X0131732Y0057315D02*
X0131732Y0052315D01*
X0111732Y0052315D02*
X0111732Y0057315D01*
X0101732Y0057315D02*
X0101732Y0052315D01*
X0081732Y0052315D02*
X0081732Y0057315D01*
X0035000Y0054280D02*
X0035000Y0062280D01*
X0034000Y0063280D01*
X0035000Y0064280D01*
X0035000Y0073280D01*
X0025000Y0073280D01*
X0025000Y0064280D01*
X0026000Y0063280D01*
X0025000Y0062280D01*
X0025000Y0054280D01*
X0026000Y0053280D01*
X0025000Y0052280D01*
X0025000Y0044280D01*
X0026000Y0043280D01*
X0025000Y0042280D01*
X0025000Y0034280D01*
X0026000Y0033280D01*
X0025000Y0032280D01*
X0025000Y0024280D01*
X0026000Y0023280D01*
X0025000Y0022280D01*
X0025000Y0013280D01*
X0035000Y0013280D01*
X0035000Y0022280D01*
X0034000Y0023280D01*
X0035000Y0024280D01*
X0035000Y0032280D01*
X0034000Y0033280D01*
X0035000Y0034280D01*
X0035000Y0042280D01*
X0034000Y0043280D01*
X0035000Y0044280D01*
X0035000Y0052280D01*
X0034000Y0053280D01*
X0035000Y0054280D01*
X0037500Y0083516D02*
X0027500Y0083516D01*
X0027500Y0093516D01*
X0027500Y0103516D01*
X0027500Y0113516D01*
X0027500Y0123516D01*
X0037500Y0123516D01*
X0037500Y0113516D01*
X0027500Y0113516D01*
X0037500Y0113516D02*
X0037500Y0103516D01*
X0027500Y0103516D01*
X0037500Y0103516D02*
X0037500Y0093516D01*
X0027500Y0093516D01*
X0037500Y0093516D02*
X0037500Y0083516D01*
X0074232Y0024382D02*
X0071732Y0021882D01*
X0071732Y0016882D01*
X0074232Y0014382D01*
X0079232Y0014382D01*
X0081732Y0016882D01*
X0084232Y0014382D01*
X0089232Y0014382D01*
X0091732Y0016882D01*
X0091732Y0021882D01*
X0089232Y0024382D01*
X0084232Y0024382D01*
X0081732Y0021882D01*
X0081732Y0016882D01*
X0081732Y0021882D02*
X0079232Y0024382D01*
X0074232Y0024382D01*
X0091732Y0021882D02*
X0094232Y0024382D01*
X0099232Y0024382D01*
X0101732Y0021882D01*
X0104232Y0024382D01*
X0109232Y0024382D01*
X0111732Y0021882D01*
X0114232Y0024382D01*
X0119232Y0024382D01*
X0121732Y0021882D01*
X0121732Y0016882D01*
X0119232Y0014382D01*
X0114232Y0014382D01*
X0111732Y0016882D01*
X0109232Y0014382D01*
X0104232Y0014382D01*
X0101732Y0016882D01*
X0099232Y0014382D01*
X0094232Y0014382D01*
X0091732Y0016882D01*
X0101732Y0016882D02*
X0101732Y0021882D01*
X0111732Y0021882D02*
X0111732Y0016882D01*
X0121732Y0016882D02*
X0124232Y0014382D01*
X0129232Y0014382D01*
X0131732Y0016882D01*
X0134232Y0014382D01*
X0139232Y0014382D01*
X0141732Y0016882D01*
X0144232Y0014382D01*
X0149232Y0014382D01*
X0151732Y0016882D01*
X0151732Y0021882D01*
X0149232Y0024382D01*
X0144232Y0024382D01*
X0141732Y0021882D01*
X0141732Y0016882D01*
X0141732Y0021882D02*
X0139232Y0024382D01*
X0134232Y0024382D01*
X0131732Y0021882D01*
X0131732Y0016882D01*
X0131732Y0021882D02*
X0129232Y0024382D01*
X0124232Y0024382D01*
X0121732Y0021882D01*
X0151732Y0021882D02*
X0154232Y0024382D01*
X0159232Y0024382D01*
X0161732Y0021882D01*
X0164232Y0024382D01*
X0169232Y0024382D01*
X0171732Y0021882D01*
X0174232Y0024382D01*
X0179232Y0024382D01*
X0181732Y0021882D01*
X0181732Y0016882D01*
X0179232Y0014382D01*
X0174232Y0014382D01*
X0171732Y0016882D01*
X0169232Y0014382D01*
X0164232Y0014382D01*
X0161732Y0016882D01*
X0159232Y0014382D01*
X0154232Y0014382D01*
X0151732Y0016882D01*
X0161732Y0016882D02*
X0161732Y0021882D01*
X0171732Y0021882D02*
X0171732Y0016882D01*
X0181732Y0016882D02*
X0184232Y0014382D01*
X0189232Y0014382D01*
X0191732Y0016882D01*
X0194232Y0014382D01*
X0199232Y0014382D01*
X0201732Y0016882D01*
X0204232Y0014382D01*
X0209232Y0014382D01*
X0211732Y0016882D01*
X0211732Y0021882D01*
X0209232Y0024382D01*
X0204232Y0024382D01*
X0201732Y0021882D01*
X0201732Y0016882D01*
X0201732Y0021882D02*
X0199232Y0024382D01*
X0194232Y0024382D01*
X0191732Y0021882D01*
X0191732Y0016882D01*
X0191732Y0021882D02*
X0189232Y0024382D01*
X0184232Y0024382D01*
X0181732Y0021882D01*
X0211732Y0021882D02*
X0214232Y0024382D01*
X0219232Y0024382D01*
X0221732Y0021882D01*
X0224232Y0024382D01*
X0229232Y0024382D01*
X0231732Y0021882D01*
X0234232Y0024382D01*
X0239232Y0024382D01*
X0241732Y0021882D01*
X0241732Y0016882D01*
X0239232Y0014382D01*
X0234232Y0014382D01*
X0231732Y0016882D01*
X0229232Y0014382D01*
X0224232Y0014382D01*
X0221732Y0016882D01*
X0219232Y0014382D01*
X0214232Y0014382D01*
X0211732Y0016882D01*
X0221732Y0016882D02*
X0221732Y0021882D01*
X0231732Y0021882D02*
X0231732Y0016882D01*
X0241732Y0016882D02*
X0244232Y0014382D01*
X0249232Y0014382D01*
X0251732Y0016882D01*
X0254232Y0014382D01*
X0259232Y0014382D01*
X0261732Y0016882D01*
X0264232Y0014382D01*
X0269232Y0014382D01*
X0271732Y0016882D01*
X0271732Y0021882D01*
X0269232Y0024382D01*
X0264232Y0024382D01*
X0261732Y0021882D01*
X0261732Y0016882D01*
X0261732Y0021882D02*
X0259232Y0024382D01*
X0254232Y0024382D01*
X0251732Y0021882D01*
X0251732Y0016882D01*
X0251732Y0021882D02*
X0249232Y0024382D01*
X0244232Y0024382D01*
X0241732Y0021882D01*
X0281850Y0040780D02*
X0291850Y0040780D01*
X0301850Y0040780D01*
X0311850Y0040780D01*
X0311850Y0050780D01*
X0301850Y0050780D01*
X0291850Y0050780D01*
X0281850Y0050780D01*
X0281850Y0040780D01*
X0291850Y0040780D02*
X0291850Y0050780D01*
X0301850Y0050780D02*
X0301850Y0040780D01*
X0271732Y0052315D02*
X0269232Y0049815D01*
X0264232Y0049815D01*
X0261732Y0052315D01*
X0259232Y0049815D01*
X0254232Y0049815D01*
X0251732Y0052315D01*
X0249232Y0049815D01*
X0244232Y0049815D01*
X0241732Y0052315D01*
X0239232Y0049815D01*
X0234232Y0049815D01*
X0231732Y0052315D01*
X0229232Y0049815D01*
X0224232Y0049815D01*
X0221732Y0052315D01*
X0219232Y0049815D01*
X0214232Y0049815D01*
X0211732Y0052315D01*
X0209232Y0049815D01*
X0204232Y0049815D01*
X0201732Y0052315D01*
X0199232Y0049815D01*
X0194232Y0049815D01*
X0191732Y0052315D01*
X0189232Y0049815D01*
X0184232Y0049815D01*
X0181732Y0052315D01*
X0181732Y0057315D02*
X0184232Y0059815D01*
X0189232Y0059815D01*
X0191732Y0057315D01*
X0194232Y0059815D01*
X0199232Y0059815D01*
X0201732Y0057315D01*
X0204232Y0059815D01*
X0209232Y0059815D01*
X0211732Y0057315D01*
X0211732Y0052315D01*
X0211732Y0057315D02*
X0214232Y0059815D01*
X0219232Y0059815D01*
X0221732Y0057315D01*
X0224232Y0059815D01*
X0229232Y0059815D01*
X0231732Y0057315D01*
X0234232Y0059815D01*
X0239232Y0059815D01*
X0241732Y0057315D01*
X0241732Y0052315D01*
X0241732Y0057315D02*
X0244232Y0059815D01*
X0249232Y0059815D01*
X0251732Y0057315D01*
X0254232Y0059815D01*
X0259232Y0059815D01*
X0261732Y0057315D01*
X0264232Y0059815D01*
X0269232Y0059815D01*
X0271732Y0057315D01*
X0271732Y0052315D01*
X0261732Y0052315D02*
X0261732Y0057315D01*
X0251732Y0057315D02*
X0251732Y0052315D01*
X0231732Y0052315D02*
X0231732Y0057315D01*
X0221732Y0057315D02*
X0221732Y0052315D01*
X0201732Y0052315D02*
X0201732Y0057315D01*
X0191732Y0057315D02*
X0191732Y0052315D01*
X0171732Y0052315D02*
X0171732Y0057315D01*
X0161732Y0057315D02*
X0161732Y0052315D01*
X0233228Y0113969D02*
X0235728Y0111469D01*
X0240728Y0111469D01*
X0243228Y0113969D01*
X0243228Y0118969D01*
X0240728Y0121469D01*
X0235728Y0121469D01*
X0233228Y0118969D01*
X0233228Y0113969D01*
X0235728Y0121469D02*
X0233228Y0123969D01*
X0233228Y0128969D01*
X0235728Y0131469D01*
X0233228Y0133969D01*
X0233228Y0138969D01*
X0235728Y0141469D01*
X0233228Y0143969D01*
X0233228Y0148969D01*
X0235728Y0151469D01*
X0233228Y0153969D01*
X0233228Y0158969D01*
X0235728Y0161469D01*
X0233228Y0163969D01*
X0233228Y0168969D01*
X0235728Y0171469D01*
X0233228Y0173969D01*
X0233228Y0178969D01*
X0235728Y0181469D01*
X0233228Y0183969D01*
X0233228Y0188969D01*
X0235728Y0191469D01*
X0233228Y0193969D01*
X0233228Y0198969D01*
X0235728Y0201469D01*
X0233228Y0203969D01*
X0233228Y0208969D01*
X0235728Y0211469D01*
X0240728Y0211469D01*
X0243228Y0208969D01*
X0243228Y0203969D01*
X0240728Y0201469D01*
X0243228Y0198969D01*
X0243228Y0193969D01*
X0240728Y0191469D01*
X0235728Y0191469D01*
X0240728Y0191469D02*
X0243228Y0188969D01*
X0243228Y0183969D01*
X0240728Y0181469D01*
X0243228Y0178969D01*
X0243228Y0173969D01*
X0240728Y0171469D01*
X0243228Y0168969D01*
X0243228Y0163969D01*
X0240728Y0161469D01*
X0235728Y0161469D01*
X0240728Y0161469D02*
X0243228Y0158969D01*
X0243228Y0153969D01*
X0240728Y0151469D01*
X0243228Y0148969D01*
X0243228Y0143969D01*
X0240728Y0141469D01*
X0243228Y0138969D01*
X0243228Y0133969D01*
X0240728Y0131469D01*
X0235728Y0131469D01*
X0240728Y0131469D02*
X0243228Y0128969D01*
X0243228Y0123969D01*
X0240728Y0121469D01*
X0240728Y0141469D02*
X0235728Y0141469D01*
X0235728Y0151469D02*
X0240728Y0151469D01*
X0230973Y0158056D02*
X0293252Y0158056D01*
X0317087Y0158890D02*
X0317087Y0153890D01*
X0319587Y0151390D01*
X0317087Y0148890D01*
X0317087Y0143890D01*
X0319587Y0141390D01*
X0317087Y0138890D01*
X0317087Y0133890D01*
X0319587Y0131390D01*
X0324587Y0131390D01*
X0327087Y0133890D01*
X0327087Y0138890D01*
X0324587Y0141390D01*
X0319587Y0141390D01*
X0324587Y0141390D02*
X0327087Y0143890D01*
X0327087Y0148890D01*
X0324587Y0151390D01*
X0319587Y0151390D01*
X0324587Y0151390D02*
X0327087Y0153890D01*
X0327087Y0158890D01*
X0324587Y0161390D01*
X0319587Y0161390D01*
X0317087Y0163890D01*
X0317087Y0168890D01*
X0319587Y0171390D01*
X0317087Y0173890D01*
X0317087Y0178890D01*
X0319587Y0181390D01*
X0317087Y0183890D01*
X0317087Y0188890D01*
X0319587Y0191390D01*
X0317087Y0193890D01*
X0317087Y0198890D01*
X0319587Y0201390D01*
X0317087Y0203890D01*
X0317087Y0208890D01*
X0319587Y0211390D01*
X0324587Y0211390D01*
X0327087Y0208890D01*
X0327087Y0203890D01*
X0324587Y0201390D01*
X0327087Y0198890D01*
X0327087Y0193890D01*
X0324587Y0191390D01*
X0319587Y0191390D01*
X0324587Y0191390D02*
X0327087Y0188890D01*
X0327087Y0183890D01*
X0324587Y0181390D01*
X0327087Y0178890D01*
X0327087Y0173890D01*
X0324587Y0171390D01*
X0327087Y0168890D01*
X0327087Y0163890D01*
X0324587Y0161390D01*
X0319587Y0161390D02*
X0317087Y0158890D01*
X0319587Y0171390D02*
X0324587Y0171390D01*
X0324587Y0181390D02*
X0319587Y0181390D01*
X0293252Y0178943D02*
X0230973Y0178943D01*
X0235728Y0181469D02*
X0240728Y0181469D01*
X0240728Y0171469D02*
X0235728Y0171469D01*
X0185393Y0172020D02*
X0185396Y0172228D01*
X0185403Y0172435D01*
X0185416Y0172643D01*
X0185434Y0172850D01*
X0185457Y0173056D01*
X0185485Y0173262D01*
X0185518Y0173467D01*
X0185556Y0173671D01*
X0185599Y0173875D01*
X0185647Y0174077D01*
X0185700Y0174278D01*
X0185758Y0174477D01*
X0185820Y0174675D01*
X0185888Y0174872D01*
X0185960Y0175067D01*
X0186037Y0175259D01*
X0186119Y0175450D01*
X0186206Y0175639D01*
X0186297Y0175826D01*
X0186393Y0176010D01*
X0186493Y0176192D01*
X0186597Y0176372D01*
X0186706Y0176549D01*
X0186820Y0176723D01*
X0186937Y0176894D01*
X0187059Y0177063D01*
X0187185Y0177228D01*
X0187314Y0177390D01*
X0187448Y0177549D01*
X0187586Y0177705D01*
X0187727Y0177857D01*
X0187872Y0178006D01*
X0188021Y0178151D01*
X0188173Y0178292D01*
X0188329Y0178430D01*
X0188488Y0178564D01*
X0188650Y0178693D01*
X0188815Y0178819D01*
X0188984Y0178941D01*
X0189155Y0179058D01*
X0189329Y0179172D01*
X0189506Y0179281D01*
X0189686Y0179385D01*
X0189868Y0179485D01*
X0190052Y0179581D01*
X0190239Y0179672D01*
X0190428Y0179759D01*
X0190619Y0179841D01*
X0190811Y0179918D01*
X0191006Y0179990D01*
X0191203Y0180058D01*
X0191401Y0180120D01*
X0191600Y0180178D01*
X0191801Y0180231D01*
X0192003Y0180279D01*
X0192207Y0180322D01*
X0192411Y0180360D01*
X0192616Y0180393D01*
X0192822Y0180421D01*
X0193028Y0180444D01*
X0193235Y0180462D01*
X0193443Y0180475D01*
X0193650Y0180482D01*
X0193858Y0180485D01*
X0194066Y0180482D01*
X0194273Y0180475D01*
X0194481Y0180462D01*
X0194688Y0180444D01*
X0194894Y0180421D01*
X0195100Y0180393D01*
X0195305Y0180360D01*
X0195509Y0180322D01*
X0195713Y0180279D01*
X0195915Y0180231D01*
X0196116Y0180178D01*
X0196315Y0180120D01*
X0196513Y0180058D01*
X0196710Y0179990D01*
X0196905Y0179918D01*
X0197097Y0179841D01*
X0197288Y0179759D01*
X0197477Y0179672D01*
X0197664Y0179581D01*
X0197848Y0179485D01*
X0198030Y0179385D01*
X0198210Y0179281D01*
X0198387Y0179172D01*
X0198561Y0179058D01*
X0198732Y0178941D01*
X0198901Y0178819D01*
X0199066Y0178693D01*
X0199228Y0178564D01*
X0199387Y0178430D01*
X0199543Y0178292D01*
X0199695Y0178151D01*
X0199844Y0178006D01*
X0199989Y0177857D01*
X0200130Y0177705D01*
X0200268Y0177549D01*
X0200402Y0177390D01*
X0200531Y0177228D01*
X0200657Y0177063D01*
X0200779Y0176894D01*
X0200896Y0176723D01*
X0201010Y0176549D01*
X0201119Y0176372D01*
X0201223Y0176192D01*
X0201323Y0176010D01*
X0201419Y0175826D01*
X0201510Y0175639D01*
X0201597Y0175450D01*
X0201679Y0175259D01*
X0201756Y0175067D01*
X0201828Y0174872D01*
X0201896Y0174675D01*
X0201958Y0174477D01*
X0202016Y0174278D01*
X0202069Y0174077D01*
X0202117Y0173875D01*
X0202160Y0173671D01*
X0202198Y0173467D01*
X0202231Y0173262D01*
X0202259Y0173056D01*
X0202282Y0172850D01*
X0202300Y0172643D01*
X0202313Y0172435D01*
X0202320Y0172228D01*
X0202323Y0172020D01*
X0202320Y0171812D01*
X0202313Y0171605D01*
X0202300Y0171397D01*
X0202282Y0171190D01*
X0202259Y0170984D01*
X0202231Y0170778D01*
X0202198Y0170573D01*
X0202160Y0170369D01*
X0202117Y0170165D01*
X0202069Y0169963D01*
X0202016Y0169762D01*
X0201958Y0169563D01*
X0201896Y0169365D01*
X0201828Y0169168D01*
X0201756Y0168973D01*
X0201679Y0168781D01*
X0201597Y0168590D01*
X0201510Y0168401D01*
X0201419Y0168214D01*
X0201323Y0168030D01*
X0201223Y0167848D01*
X0201119Y0167668D01*
X0201010Y0167491D01*
X0200896Y0167317D01*
X0200779Y0167146D01*
X0200657Y0166977D01*
X0200531Y0166812D01*
X0200402Y0166650D01*
X0200268Y0166491D01*
X0200130Y0166335D01*
X0199989Y0166183D01*
X0199844Y0166034D01*
X0199695Y0165889D01*
X0199543Y0165748D01*
X0199387Y0165610D01*
X0199228Y0165476D01*
X0199066Y0165347D01*
X0198901Y0165221D01*
X0198732Y0165099D01*
X0198561Y0164982D01*
X0198387Y0164868D01*
X0198210Y0164759D01*
X0198030Y0164655D01*
X0197848Y0164555D01*
X0197664Y0164459D01*
X0197477Y0164368D01*
X0197288Y0164281D01*
X0197097Y0164199D01*
X0196905Y0164122D01*
X0196710Y0164050D01*
X0196513Y0163982D01*
X0196315Y0163920D01*
X0196116Y0163862D01*
X0195915Y0163809D01*
X0195713Y0163761D01*
X0195509Y0163718D01*
X0195305Y0163680D01*
X0195100Y0163647D01*
X0194894Y0163619D01*
X0194688Y0163596D01*
X0194481Y0163578D01*
X0194273Y0163565D01*
X0194066Y0163558D01*
X0193858Y0163555D01*
X0193650Y0163558D01*
X0193443Y0163565D01*
X0193235Y0163578D01*
X0193028Y0163596D01*
X0192822Y0163619D01*
X0192616Y0163647D01*
X0192411Y0163680D01*
X0192207Y0163718D01*
X0192003Y0163761D01*
X0191801Y0163809D01*
X0191600Y0163862D01*
X0191401Y0163920D01*
X0191203Y0163982D01*
X0191006Y0164050D01*
X0190811Y0164122D01*
X0190619Y0164199D01*
X0190428Y0164281D01*
X0190239Y0164368D01*
X0190052Y0164459D01*
X0189868Y0164555D01*
X0189686Y0164655D01*
X0189506Y0164759D01*
X0189329Y0164868D01*
X0189155Y0164982D01*
X0188984Y0165099D01*
X0188815Y0165221D01*
X0188650Y0165347D01*
X0188488Y0165476D01*
X0188329Y0165610D01*
X0188173Y0165748D01*
X0188021Y0165889D01*
X0187872Y0166034D01*
X0187727Y0166183D01*
X0187586Y0166335D01*
X0187448Y0166491D01*
X0187314Y0166650D01*
X0187185Y0166812D01*
X0187059Y0166977D01*
X0186937Y0167146D01*
X0186820Y0167317D01*
X0186706Y0167491D01*
X0186597Y0167668D01*
X0186493Y0167848D01*
X0186393Y0168030D01*
X0186297Y0168214D01*
X0186206Y0168401D01*
X0186119Y0168590D01*
X0186037Y0168781D01*
X0185960Y0168973D01*
X0185888Y0169168D01*
X0185820Y0169365D01*
X0185758Y0169563D01*
X0185700Y0169762D01*
X0185647Y0169963D01*
X0185599Y0170165D01*
X0185556Y0170369D01*
X0185518Y0170573D01*
X0185485Y0170778D01*
X0185457Y0170984D01*
X0185434Y0171190D01*
X0185416Y0171397D01*
X0185403Y0171605D01*
X0185396Y0171812D01*
X0185393Y0172020D01*
X0176158Y0172020D02*
X0176163Y0172454D01*
X0176179Y0172888D01*
X0176206Y0173322D01*
X0176243Y0173755D01*
X0176291Y0174187D01*
X0176350Y0174617D01*
X0176419Y0175046D01*
X0176498Y0175473D01*
X0176588Y0175898D01*
X0176688Y0176321D01*
X0176799Y0176741D01*
X0176920Y0177158D01*
X0177051Y0177572D01*
X0177193Y0177983D01*
X0177344Y0178390D01*
X0177505Y0178793D01*
X0177676Y0179193D01*
X0177857Y0179588D01*
X0178048Y0179978D01*
X0178248Y0180364D01*
X0178457Y0180744D01*
X0178676Y0181120D01*
X0178904Y0181489D01*
X0179141Y0181854D01*
X0179387Y0182212D01*
X0179641Y0182564D01*
X0179904Y0182910D01*
X0180176Y0183249D01*
X0180455Y0183581D01*
X0180743Y0183907D01*
X0181039Y0184225D01*
X0181342Y0184536D01*
X0181653Y0184839D01*
X0181971Y0185135D01*
X0182297Y0185423D01*
X0182629Y0185702D01*
X0182968Y0185974D01*
X0183314Y0186237D01*
X0183666Y0186491D01*
X0184024Y0186737D01*
X0184389Y0186974D01*
X0184758Y0187202D01*
X0185134Y0187421D01*
X0185514Y0187630D01*
X0185900Y0187830D01*
X0186290Y0188021D01*
X0186685Y0188202D01*
X0187085Y0188373D01*
X0187488Y0188534D01*
X0187895Y0188685D01*
X0188306Y0188827D01*
X0188720Y0188958D01*
X0189137Y0189079D01*
X0189557Y0189190D01*
X0189980Y0189290D01*
X0190405Y0189380D01*
X0190832Y0189459D01*
X0191261Y0189528D01*
X0191691Y0189587D01*
X0192123Y0189635D01*
X0192556Y0189672D01*
X0192990Y0189699D01*
X0193424Y0189715D01*
X0193858Y0189720D01*
X0194292Y0189715D01*
X0194726Y0189699D01*
X0195160Y0189672D01*
X0195593Y0189635D01*
X0196025Y0189587D01*
X0196455Y0189528D01*
X0196884Y0189459D01*
X0197311Y0189380D01*
X0197736Y0189290D01*
X0198159Y0189190D01*
X0198579Y0189079D01*
X0198996Y0188958D01*
X0199410Y0188827D01*
X0199821Y0188685D01*
X0200228Y0188534D01*
X0200631Y0188373D01*
X0201031Y0188202D01*
X0201426Y0188021D01*
X0201816Y0187830D01*
X0202202Y0187630D01*
X0202582Y0187421D01*
X0202958Y0187202D01*
X0203327Y0186974D01*
X0203692Y0186737D01*
X0204050Y0186491D01*
X0204402Y0186237D01*
X0204748Y0185974D01*
X0205087Y0185702D01*
X0205419Y0185423D01*
X0205745Y0185135D01*
X0206063Y0184839D01*
X0206374Y0184536D01*
X0206677Y0184225D01*
X0206973Y0183907D01*
X0207261Y0183581D01*
X0207540Y0183249D01*
X0207812Y0182910D01*
X0208075Y0182564D01*
X0208329Y0182212D01*
X0208575Y0181854D01*
X0208812Y0181489D01*
X0209040Y0181120D01*
X0209259Y0180744D01*
X0209468Y0180364D01*
X0209668Y0179978D01*
X0209859Y0179588D01*
X0210040Y0179193D01*
X0210211Y0178793D01*
X0210372Y0178390D01*
X0210523Y0177983D01*
X0210665Y0177572D01*
X0210796Y0177158D01*
X0210917Y0176741D01*
X0211028Y0176321D01*
X0211128Y0175898D01*
X0211218Y0175473D01*
X0211297Y0175046D01*
X0211366Y0174617D01*
X0211425Y0174187D01*
X0211473Y0173755D01*
X0211510Y0173322D01*
X0211537Y0172888D01*
X0211553Y0172454D01*
X0211558Y0172020D01*
X0211553Y0171586D01*
X0211537Y0171152D01*
X0211510Y0170718D01*
X0211473Y0170285D01*
X0211425Y0169853D01*
X0211366Y0169423D01*
X0211297Y0168994D01*
X0211218Y0168567D01*
X0211128Y0168142D01*
X0211028Y0167719D01*
X0210917Y0167299D01*
X0210796Y0166882D01*
X0210665Y0166468D01*
X0210523Y0166057D01*
X0210372Y0165650D01*
X0210211Y0165247D01*
X0210040Y0164847D01*
X0209859Y0164452D01*
X0209668Y0164062D01*
X0209468Y0163676D01*
X0209259Y0163296D01*
X0209040Y0162920D01*
X0208812Y0162551D01*
X0208575Y0162186D01*
X0208329Y0161828D01*
X0208075Y0161476D01*
X0207812Y0161130D01*
X0207540Y0160791D01*
X0207261Y0160459D01*
X0206973Y0160133D01*
X0206677Y0159815D01*
X0206374Y0159504D01*
X0206063Y0159201D01*
X0205745Y0158905D01*
X0205419Y0158617D01*
X0205087Y0158338D01*
X0204748Y0158066D01*
X0204402Y0157803D01*
X0204050Y0157549D01*
X0203692Y0157303D01*
X0203327Y0157066D01*
X0202958Y0156838D01*
X0202582Y0156619D01*
X0202202Y0156410D01*
X0201816Y0156210D01*
X0201426Y0156019D01*
X0201031Y0155838D01*
X0200631Y0155667D01*
X0200228Y0155506D01*
X0199821Y0155355D01*
X0199410Y0155213D01*
X0198996Y0155082D01*
X0198579Y0154961D01*
X0198159Y0154850D01*
X0197736Y0154750D01*
X0197311Y0154660D01*
X0196884Y0154581D01*
X0196455Y0154512D01*
X0196025Y0154453D01*
X0195593Y0154405D01*
X0195160Y0154368D01*
X0194726Y0154341D01*
X0194292Y0154325D01*
X0193858Y0154320D01*
X0193424Y0154325D01*
X0192990Y0154341D01*
X0192556Y0154368D01*
X0192123Y0154405D01*
X0191691Y0154453D01*
X0191261Y0154512D01*
X0190832Y0154581D01*
X0190405Y0154660D01*
X0189980Y0154750D01*
X0189557Y0154850D01*
X0189137Y0154961D01*
X0188720Y0155082D01*
X0188306Y0155213D01*
X0187895Y0155355D01*
X0187488Y0155506D01*
X0187085Y0155667D01*
X0186685Y0155838D01*
X0186290Y0156019D01*
X0185900Y0156210D01*
X0185514Y0156410D01*
X0185134Y0156619D01*
X0184758Y0156838D01*
X0184389Y0157066D01*
X0184024Y0157303D01*
X0183666Y0157549D01*
X0183314Y0157803D01*
X0182968Y0158066D01*
X0182629Y0158338D01*
X0182297Y0158617D01*
X0181971Y0158905D01*
X0181653Y0159201D01*
X0181342Y0159504D01*
X0181039Y0159815D01*
X0180743Y0160133D01*
X0180455Y0160459D01*
X0180176Y0160791D01*
X0179904Y0161130D01*
X0179641Y0161476D01*
X0179387Y0161828D01*
X0179141Y0162186D01*
X0178904Y0162551D01*
X0178676Y0162920D01*
X0178457Y0163296D01*
X0178248Y0163676D01*
X0178048Y0164062D01*
X0177857Y0164452D01*
X0177676Y0164847D01*
X0177505Y0165247D01*
X0177344Y0165650D01*
X0177193Y0166057D01*
X0177051Y0166468D01*
X0176920Y0166882D01*
X0176799Y0167299D01*
X0176688Y0167719D01*
X0176588Y0168142D01*
X0176498Y0168567D01*
X0176419Y0168994D01*
X0176350Y0169423D01*
X0176291Y0169853D01*
X0176243Y0170285D01*
X0176206Y0170718D01*
X0176179Y0171152D01*
X0176163Y0171586D01*
X0176158Y0172020D01*
X0235728Y0201469D02*
X0240728Y0201469D01*
X0319587Y0201390D02*
X0324587Y0201390D01*
X0364331Y0203890D02*
X0364331Y0208890D01*
X0366831Y0211390D01*
X0371831Y0211390D01*
X0374331Y0208890D01*
X0374331Y0203890D01*
X0371831Y0201390D01*
X0374331Y0198890D01*
X0374331Y0193890D01*
X0371831Y0191390D01*
X0366831Y0191390D01*
X0364331Y0193890D01*
X0364331Y0198890D01*
X0366831Y0201390D01*
X0364331Y0203890D01*
X0366831Y0201390D02*
X0371831Y0201390D01*
X0371831Y0191390D02*
X0374331Y0188890D01*
X0374331Y0183890D01*
X0371831Y0181390D01*
X0374331Y0178890D01*
X0374331Y0173890D01*
X0371831Y0171390D01*
X0374331Y0168890D01*
X0374331Y0163890D01*
X0371831Y0161390D01*
X0366831Y0161390D01*
X0364331Y0163890D01*
X0364331Y0168890D01*
X0366831Y0171390D01*
X0364331Y0173890D01*
X0364331Y0178890D01*
X0366831Y0181390D01*
X0364331Y0183890D01*
X0364331Y0188890D01*
X0366831Y0191390D01*
X0366831Y0181390D02*
X0371831Y0181390D01*
X0371831Y0171390D02*
X0366831Y0171390D01*
X0366831Y0161390D02*
X0364331Y0158890D01*
X0364331Y0153890D01*
X0366831Y0151390D01*
X0364331Y0148890D01*
X0364331Y0143890D01*
X0366831Y0141390D01*
X0364331Y0138890D01*
X0364331Y0133890D01*
X0366831Y0131390D01*
X0371831Y0131390D01*
X0374331Y0133890D01*
X0374331Y0138890D01*
X0371831Y0141390D01*
X0366831Y0141390D01*
X0371831Y0141390D02*
X0374331Y0143890D01*
X0374331Y0148890D01*
X0371831Y0151390D01*
X0366831Y0151390D01*
X0371831Y0151390D02*
X0374331Y0153890D01*
X0374331Y0158890D01*
X0371831Y0161390D01*
X0371831Y0131390D02*
X0374331Y0128890D01*
X0374331Y0123890D01*
X0371831Y0121390D01*
X0374331Y0118890D01*
X0374331Y0113890D01*
X0371831Y0111390D01*
X0374331Y0108890D01*
X0374331Y0103890D01*
X0371831Y0101390D01*
X0366831Y0101390D01*
X0364331Y0103890D01*
X0364331Y0108890D01*
X0366831Y0111390D01*
X0364331Y0113890D01*
X0364331Y0118890D01*
X0366831Y0121390D01*
X0364331Y0123890D01*
X0364331Y0128890D01*
X0366831Y0131390D01*
X0366831Y0121390D02*
X0371831Y0121390D01*
X0371831Y0111390D02*
X0366831Y0111390D01*
X0366831Y0101390D02*
X0364331Y0098890D01*
X0364331Y0093890D01*
X0366831Y0091390D01*
X0364331Y0088890D01*
X0364331Y0083890D01*
X0366831Y0081390D01*
X0364331Y0078890D01*
X0364331Y0073890D01*
X0366831Y0071390D01*
X0364331Y0068890D01*
X0364331Y0063890D01*
X0366831Y0061390D01*
X0371831Y0061390D01*
X0374331Y0063890D01*
X0374331Y0068890D01*
X0371831Y0071390D01*
X0366831Y0071390D01*
X0371831Y0071390D02*
X0374331Y0073890D01*
X0374331Y0078890D01*
X0371831Y0081390D01*
X0366831Y0081390D01*
X0371831Y0081390D02*
X0374331Y0083890D01*
X0374331Y0088890D01*
X0371831Y0091390D01*
X0366831Y0091390D01*
X0371831Y0091390D02*
X0374331Y0093890D01*
X0374331Y0098890D01*
X0371831Y0101390D01*
X0327087Y0103890D02*
X0324587Y0101390D01*
X0319587Y0101390D01*
X0317087Y0103890D01*
X0317087Y0108890D01*
X0319587Y0111390D01*
X0317087Y0113890D01*
X0317087Y0118890D01*
X0319587Y0121390D01*
X0317087Y0123890D01*
X0317087Y0128890D01*
X0319587Y0131390D01*
X0324587Y0131390D02*
X0327087Y0128890D01*
X0327087Y0123890D01*
X0324587Y0121390D01*
X0327087Y0118890D01*
X0327087Y0113890D01*
X0324587Y0111390D01*
X0327087Y0108890D01*
X0327087Y0103890D01*
X0324587Y0101390D02*
X0327087Y0098890D01*
X0327087Y0093890D01*
X0324587Y0091390D01*
X0327087Y0088890D01*
X0327087Y0083890D01*
X0324587Y0081390D01*
X0327087Y0078890D01*
X0327087Y0073890D01*
X0324587Y0071390D01*
X0327087Y0068890D01*
X0327087Y0063890D01*
X0324587Y0061390D01*
X0319587Y0061390D01*
X0317087Y0063890D01*
X0317087Y0068890D01*
X0319587Y0071390D01*
X0317087Y0073890D01*
X0317087Y0078890D01*
X0319587Y0081390D01*
X0317087Y0083890D01*
X0317087Y0088890D01*
X0319587Y0091390D01*
X0317087Y0093890D01*
X0317087Y0098890D01*
X0319587Y0101390D01*
X0319587Y0111390D02*
X0324587Y0111390D01*
X0324587Y0121390D02*
X0319587Y0121390D01*
X0319587Y0091390D02*
X0324587Y0091390D01*
X0324587Y0081390D02*
X0319587Y0081390D01*
X0319587Y0071390D02*
X0324587Y0071390D01*
X0330511Y0029224D02*
X0330514Y0029432D01*
X0330521Y0029639D01*
X0330534Y0029847D01*
X0330552Y0030054D01*
X0330575Y0030260D01*
X0330603Y0030466D01*
X0330636Y0030671D01*
X0330674Y0030875D01*
X0330717Y0031079D01*
X0330765Y0031281D01*
X0330818Y0031482D01*
X0330876Y0031681D01*
X0330938Y0031879D01*
X0331006Y0032076D01*
X0331078Y0032271D01*
X0331155Y0032463D01*
X0331237Y0032654D01*
X0331324Y0032843D01*
X0331415Y0033030D01*
X0331511Y0033214D01*
X0331611Y0033396D01*
X0331715Y0033576D01*
X0331824Y0033753D01*
X0331938Y0033927D01*
X0332055Y0034098D01*
X0332177Y0034267D01*
X0332303Y0034432D01*
X0332432Y0034594D01*
X0332566Y0034753D01*
X0332704Y0034909D01*
X0332845Y0035061D01*
X0332990Y0035210D01*
X0333139Y0035355D01*
X0333291Y0035496D01*
X0333447Y0035634D01*
X0333606Y0035768D01*
X0333768Y0035897D01*
X0333933Y0036023D01*
X0334102Y0036145D01*
X0334273Y0036262D01*
X0334447Y0036376D01*
X0334624Y0036485D01*
X0334804Y0036589D01*
X0334986Y0036689D01*
X0335170Y0036785D01*
X0335357Y0036876D01*
X0335546Y0036963D01*
X0335737Y0037045D01*
X0335929Y0037122D01*
X0336124Y0037194D01*
X0336321Y0037262D01*
X0336519Y0037324D01*
X0336718Y0037382D01*
X0336919Y0037435D01*
X0337121Y0037483D01*
X0337325Y0037526D01*
X0337529Y0037564D01*
X0337734Y0037597D01*
X0337940Y0037625D01*
X0338146Y0037648D01*
X0338353Y0037666D01*
X0338561Y0037679D01*
X0338768Y0037686D01*
X0338976Y0037689D01*
X0339184Y0037686D01*
X0339391Y0037679D01*
X0339599Y0037666D01*
X0339806Y0037648D01*
X0340012Y0037625D01*
X0340218Y0037597D01*
X0340423Y0037564D01*
X0340627Y0037526D01*
X0340831Y0037483D01*
X0341033Y0037435D01*
X0341234Y0037382D01*
X0341433Y0037324D01*
X0341631Y0037262D01*
X0341828Y0037194D01*
X0342023Y0037122D01*
X0342215Y0037045D01*
X0342406Y0036963D01*
X0342595Y0036876D01*
X0342782Y0036785D01*
X0342966Y0036689D01*
X0343148Y0036589D01*
X0343328Y0036485D01*
X0343505Y0036376D01*
X0343679Y0036262D01*
X0343850Y0036145D01*
X0344019Y0036023D01*
X0344184Y0035897D01*
X0344346Y0035768D01*
X0344505Y0035634D01*
X0344661Y0035496D01*
X0344813Y0035355D01*
X0344962Y0035210D01*
X0345107Y0035061D01*
X0345248Y0034909D01*
X0345386Y0034753D01*
X0345520Y0034594D01*
X0345649Y0034432D01*
X0345775Y0034267D01*
X0345897Y0034098D01*
X0346014Y0033927D01*
X0346128Y0033753D01*
X0346237Y0033576D01*
X0346341Y0033396D01*
X0346441Y0033214D01*
X0346537Y0033030D01*
X0346628Y0032843D01*
X0346715Y0032654D01*
X0346797Y0032463D01*
X0346874Y0032271D01*
X0346946Y0032076D01*
X0347014Y0031879D01*
X0347076Y0031681D01*
X0347134Y0031482D01*
X0347187Y0031281D01*
X0347235Y0031079D01*
X0347278Y0030875D01*
X0347316Y0030671D01*
X0347349Y0030466D01*
X0347377Y0030260D01*
X0347400Y0030054D01*
X0347418Y0029847D01*
X0347431Y0029639D01*
X0347438Y0029432D01*
X0347441Y0029224D01*
X0347438Y0029016D01*
X0347431Y0028809D01*
X0347418Y0028601D01*
X0347400Y0028394D01*
X0347377Y0028188D01*
X0347349Y0027982D01*
X0347316Y0027777D01*
X0347278Y0027573D01*
X0347235Y0027369D01*
X0347187Y0027167D01*
X0347134Y0026966D01*
X0347076Y0026767D01*
X0347014Y0026569D01*
X0346946Y0026372D01*
X0346874Y0026177D01*
X0346797Y0025985D01*
X0346715Y0025794D01*
X0346628Y0025605D01*
X0346537Y0025418D01*
X0346441Y0025234D01*
X0346341Y0025052D01*
X0346237Y0024872D01*
X0346128Y0024695D01*
X0346014Y0024521D01*
X0345897Y0024350D01*
X0345775Y0024181D01*
X0345649Y0024016D01*
X0345520Y0023854D01*
X0345386Y0023695D01*
X0345248Y0023539D01*
X0345107Y0023387D01*
X0344962Y0023238D01*
X0344813Y0023093D01*
X0344661Y0022952D01*
X0344505Y0022814D01*
X0344346Y0022680D01*
X0344184Y0022551D01*
X0344019Y0022425D01*
X0343850Y0022303D01*
X0343679Y0022186D01*
X0343505Y0022072D01*
X0343328Y0021963D01*
X0343148Y0021859D01*
X0342966Y0021759D01*
X0342782Y0021663D01*
X0342595Y0021572D01*
X0342406Y0021485D01*
X0342215Y0021403D01*
X0342023Y0021326D01*
X0341828Y0021254D01*
X0341631Y0021186D01*
X0341433Y0021124D01*
X0341234Y0021066D01*
X0341033Y0021013D01*
X0340831Y0020965D01*
X0340627Y0020922D01*
X0340423Y0020884D01*
X0340218Y0020851D01*
X0340012Y0020823D01*
X0339806Y0020800D01*
X0339599Y0020782D01*
X0339391Y0020769D01*
X0339184Y0020762D01*
X0338976Y0020759D01*
X0338768Y0020762D01*
X0338561Y0020769D01*
X0338353Y0020782D01*
X0338146Y0020800D01*
X0337940Y0020823D01*
X0337734Y0020851D01*
X0337529Y0020884D01*
X0337325Y0020922D01*
X0337121Y0020965D01*
X0336919Y0021013D01*
X0336718Y0021066D01*
X0336519Y0021124D01*
X0336321Y0021186D01*
X0336124Y0021254D01*
X0335929Y0021326D01*
X0335737Y0021403D01*
X0335546Y0021485D01*
X0335357Y0021572D01*
X0335170Y0021663D01*
X0334986Y0021759D01*
X0334804Y0021859D01*
X0334624Y0021963D01*
X0334447Y0022072D01*
X0334273Y0022186D01*
X0334102Y0022303D01*
X0333933Y0022425D01*
X0333768Y0022551D01*
X0333606Y0022680D01*
X0333447Y0022814D01*
X0333291Y0022952D01*
X0333139Y0023093D01*
X0332990Y0023238D01*
X0332845Y0023387D01*
X0332704Y0023539D01*
X0332566Y0023695D01*
X0332432Y0023854D01*
X0332303Y0024016D01*
X0332177Y0024181D01*
X0332055Y0024350D01*
X0331938Y0024521D01*
X0331824Y0024695D01*
X0331715Y0024872D01*
X0331611Y0025052D01*
X0331511Y0025234D01*
X0331415Y0025418D01*
X0331324Y0025605D01*
X0331237Y0025794D01*
X0331155Y0025985D01*
X0331078Y0026177D01*
X0331006Y0026372D01*
X0330938Y0026569D01*
X0330876Y0026767D01*
X0330818Y0026966D01*
X0330765Y0027167D01*
X0330717Y0027369D01*
X0330674Y0027573D01*
X0330636Y0027777D01*
X0330603Y0027982D01*
X0330575Y0028188D01*
X0330552Y0028394D01*
X0330534Y0028601D01*
X0330521Y0028809D01*
X0330514Y0029016D01*
X0330511Y0029224D01*
X0321276Y0029224D02*
X0321281Y0029658D01*
X0321297Y0030092D01*
X0321324Y0030526D01*
X0321361Y0030959D01*
X0321409Y0031391D01*
X0321468Y0031821D01*
X0321537Y0032250D01*
X0321616Y0032677D01*
X0321706Y0033102D01*
X0321806Y0033525D01*
X0321917Y0033945D01*
X0322038Y0034362D01*
X0322169Y0034776D01*
X0322311Y0035187D01*
X0322462Y0035594D01*
X0322623Y0035997D01*
X0322794Y0036397D01*
X0322975Y0036792D01*
X0323166Y0037182D01*
X0323366Y0037568D01*
X0323575Y0037948D01*
X0323794Y0038324D01*
X0324022Y0038693D01*
X0324259Y0039058D01*
X0324505Y0039416D01*
X0324759Y0039768D01*
X0325022Y0040114D01*
X0325294Y0040453D01*
X0325573Y0040785D01*
X0325861Y0041111D01*
X0326157Y0041429D01*
X0326460Y0041740D01*
X0326771Y0042043D01*
X0327089Y0042339D01*
X0327415Y0042627D01*
X0327747Y0042906D01*
X0328086Y0043178D01*
X0328432Y0043441D01*
X0328784Y0043695D01*
X0329142Y0043941D01*
X0329507Y0044178D01*
X0329876Y0044406D01*
X0330252Y0044625D01*
X0330632Y0044834D01*
X0331018Y0045034D01*
X0331408Y0045225D01*
X0331803Y0045406D01*
X0332203Y0045577D01*
X0332606Y0045738D01*
X0333013Y0045889D01*
X0333424Y0046031D01*
X0333838Y0046162D01*
X0334255Y0046283D01*
X0334675Y0046394D01*
X0335098Y0046494D01*
X0335523Y0046584D01*
X0335950Y0046663D01*
X0336379Y0046732D01*
X0336809Y0046791D01*
X0337241Y0046839D01*
X0337674Y0046876D01*
X0338108Y0046903D01*
X0338542Y0046919D01*
X0338976Y0046924D01*
X0339410Y0046919D01*
X0339844Y0046903D01*
X0340278Y0046876D01*
X0340711Y0046839D01*
X0341143Y0046791D01*
X0341573Y0046732D01*
X0342002Y0046663D01*
X0342429Y0046584D01*
X0342854Y0046494D01*
X0343277Y0046394D01*
X0343697Y0046283D01*
X0344114Y0046162D01*
X0344528Y0046031D01*
X0344939Y0045889D01*
X0345346Y0045738D01*
X0345749Y0045577D01*
X0346149Y0045406D01*
X0346544Y0045225D01*
X0346934Y0045034D01*
X0347320Y0044834D01*
X0347700Y0044625D01*
X0348076Y0044406D01*
X0348445Y0044178D01*
X0348810Y0043941D01*
X0349168Y0043695D01*
X0349520Y0043441D01*
X0349866Y0043178D01*
X0350205Y0042906D01*
X0350537Y0042627D01*
X0350863Y0042339D01*
X0351181Y0042043D01*
X0351492Y0041740D01*
X0351795Y0041429D01*
X0352091Y0041111D01*
X0352379Y0040785D01*
X0352658Y0040453D01*
X0352930Y0040114D01*
X0353193Y0039768D01*
X0353447Y0039416D01*
X0353693Y0039058D01*
X0353930Y0038693D01*
X0354158Y0038324D01*
X0354377Y0037948D01*
X0354586Y0037568D01*
X0354786Y0037182D01*
X0354977Y0036792D01*
X0355158Y0036397D01*
X0355329Y0035997D01*
X0355490Y0035594D01*
X0355641Y0035187D01*
X0355783Y0034776D01*
X0355914Y0034362D01*
X0356035Y0033945D01*
X0356146Y0033525D01*
X0356246Y0033102D01*
X0356336Y0032677D01*
X0356415Y0032250D01*
X0356484Y0031821D01*
X0356543Y0031391D01*
X0356591Y0030959D01*
X0356628Y0030526D01*
X0356655Y0030092D01*
X0356671Y0029658D01*
X0356676Y0029224D01*
X0356671Y0028790D01*
X0356655Y0028356D01*
X0356628Y0027922D01*
X0356591Y0027489D01*
X0356543Y0027057D01*
X0356484Y0026627D01*
X0356415Y0026198D01*
X0356336Y0025771D01*
X0356246Y0025346D01*
X0356146Y0024923D01*
X0356035Y0024503D01*
X0355914Y0024086D01*
X0355783Y0023672D01*
X0355641Y0023261D01*
X0355490Y0022854D01*
X0355329Y0022451D01*
X0355158Y0022051D01*
X0354977Y0021656D01*
X0354786Y0021266D01*
X0354586Y0020880D01*
X0354377Y0020500D01*
X0354158Y0020124D01*
X0353930Y0019755D01*
X0353693Y0019390D01*
X0353447Y0019032D01*
X0353193Y0018680D01*
X0352930Y0018334D01*
X0352658Y0017995D01*
X0352379Y0017663D01*
X0352091Y0017337D01*
X0351795Y0017019D01*
X0351492Y0016708D01*
X0351181Y0016405D01*
X0350863Y0016109D01*
X0350537Y0015821D01*
X0350205Y0015542D01*
X0349866Y0015270D01*
X0349520Y0015007D01*
X0349168Y0014753D01*
X0348810Y0014507D01*
X0348445Y0014270D01*
X0348076Y0014042D01*
X0347700Y0013823D01*
X0347320Y0013614D01*
X0346934Y0013414D01*
X0346544Y0013223D01*
X0346149Y0013042D01*
X0345749Y0012871D01*
X0345346Y0012710D01*
X0344939Y0012559D01*
X0344528Y0012417D01*
X0344114Y0012286D01*
X0343697Y0012165D01*
X0343277Y0012054D01*
X0342854Y0011954D01*
X0342429Y0011864D01*
X0342002Y0011785D01*
X0341573Y0011716D01*
X0341143Y0011657D01*
X0340711Y0011609D01*
X0340278Y0011572D01*
X0339844Y0011545D01*
X0339410Y0011529D01*
X0338976Y0011524D01*
X0338542Y0011529D01*
X0338108Y0011545D01*
X0337674Y0011572D01*
X0337241Y0011609D01*
X0336809Y0011657D01*
X0336379Y0011716D01*
X0335950Y0011785D01*
X0335523Y0011864D01*
X0335098Y0011954D01*
X0334675Y0012054D01*
X0334255Y0012165D01*
X0333838Y0012286D01*
X0333424Y0012417D01*
X0333013Y0012559D01*
X0332606Y0012710D01*
X0332203Y0012871D01*
X0331803Y0013042D01*
X0331408Y0013223D01*
X0331018Y0013414D01*
X0330632Y0013614D01*
X0330252Y0013823D01*
X0329876Y0014042D01*
X0329507Y0014270D01*
X0329142Y0014507D01*
X0328784Y0014753D01*
X0328432Y0015007D01*
X0328086Y0015270D01*
X0327747Y0015542D01*
X0327415Y0015821D01*
X0327089Y0016109D01*
X0326771Y0016405D01*
X0326460Y0016708D01*
X0326157Y0017019D01*
X0325861Y0017337D01*
X0325573Y0017663D01*
X0325294Y0017995D01*
X0325022Y0018334D01*
X0324759Y0018680D01*
X0324505Y0019032D01*
X0324259Y0019390D01*
X0324022Y0019755D01*
X0323794Y0020124D01*
X0323575Y0020500D01*
X0323366Y0020880D01*
X0323166Y0021266D01*
X0322975Y0021656D01*
X0322794Y0022051D01*
X0322623Y0022451D01*
X0322462Y0022854D01*
X0322311Y0023261D01*
X0322169Y0023672D01*
X0322038Y0024086D01*
X0321917Y0024503D01*
X0321806Y0024923D01*
X0321706Y0025346D01*
X0321616Y0025771D01*
X0321537Y0026198D01*
X0321468Y0026627D01*
X0321409Y0027057D01*
X0321361Y0027489D01*
X0321324Y0027922D01*
X0321297Y0028356D01*
X0321281Y0028790D01*
X0321276Y0029224D01*
D15*
X0211693Y0070681D02*
X0136693Y0070681D01*
X0136693Y0140681D01*
X0211693Y0140681D01*
X0211693Y0070681D01*
X0158643Y0069199D02*
X0158643Y0068448D01*
X0157892Y0067697D01*
X0158643Y0069199D02*
X0157892Y0069949D01*
X0154139Y0069949D01*
X0154139Y0069199D02*
X0154139Y0070700D01*
X0154139Y0072301D02*
X0154139Y0074553D01*
X0154890Y0075304D01*
X0156391Y0075304D01*
X0157142Y0074553D01*
X0157142Y0072301D01*
X0158643Y0072301D02*
X0154139Y0072301D01*
X0155640Y0076905D02*
X0154139Y0078406D01*
X0158643Y0078406D01*
X0158643Y0076905D02*
X0158643Y0079908D01*
X0157892Y0081509D02*
X0154890Y0081509D01*
X0154139Y0082260D01*
X0154139Y0083761D01*
X0154890Y0084512D01*
X0157892Y0081509D01*
X0158643Y0082260D01*
X0158643Y0083761D01*
X0157892Y0084512D01*
X0154890Y0084512D01*
X0127356Y0102858D02*
X0124354Y0102858D01*
X0122753Y0104359D02*
X0122002Y0103608D01*
X0120501Y0103608D01*
X0119750Y0104359D01*
X0119750Y0107362D01*
X0120501Y0108112D01*
X0122002Y0108112D01*
X0122753Y0107362D01*
X0118149Y0107362D02*
X0117398Y0108112D01*
X0115897Y0108112D01*
X0115146Y0107362D01*
X0113578Y0108112D02*
X0112077Y0108112D01*
X0112827Y0108112D02*
X0112827Y0103608D01*
X0112077Y0103608D02*
X0113578Y0103608D01*
X0115146Y0103608D02*
X0118149Y0106611D01*
X0118149Y0107362D01*
X0118149Y0103608D02*
X0115146Y0103608D01*
X0128958Y0103608D02*
X0131210Y0103608D01*
X0131960Y0104359D01*
X0131960Y0107362D01*
X0131210Y0108112D01*
X0128958Y0108112D01*
X0128958Y0103608D01*
X0133562Y0103608D02*
X0133562Y0106611D01*
X0135063Y0108112D01*
X0136564Y0106611D01*
X0136564Y0103608D01*
X0136564Y0105860D02*
X0133562Y0105860D01*
X0138166Y0108112D02*
X0141168Y0108112D01*
X0139667Y0108112D02*
X0139667Y0103608D01*
X0140853Y0133136D02*
X0138601Y0135388D01*
X0137851Y0134637D02*
X0140853Y0137640D01*
X0137851Y0137640D02*
X0137851Y0133136D01*
X0136249Y0133136D02*
X0133247Y0133136D01*
X0133247Y0137640D01*
X0131645Y0136889D02*
X0130895Y0137640D01*
X0129394Y0137640D01*
X0128643Y0136889D01*
X0128643Y0133887D01*
X0129394Y0133136D01*
X0130895Y0133136D01*
X0131645Y0133887D01*
X0127041Y0132385D02*
X0124039Y0132385D01*
X0122438Y0133887D02*
X0121687Y0133136D01*
X0120186Y0133136D01*
X0119435Y0133887D01*
X0119435Y0136889D01*
X0120186Y0137640D01*
X0121687Y0137640D01*
X0122438Y0136889D01*
X0117834Y0136889D02*
X0117083Y0137640D01*
X0115582Y0137640D01*
X0114831Y0136889D01*
X0113263Y0137640D02*
X0111762Y0137640D01*
X0112512Y0137640D02*
X0112512Y0133136D01*
X0111762Y0133136D02*
X0113263Y0133136D01*
X0114831Y0133136D02*
X0117834Y0136138D01*
X0117834Y0136889D01*
X0117834Y0133136D02*
X0114831Y0133136D01*
X0067126Y0101980D02*
X0066732Y0101980D01*
X0066732Y0102374D01*
X0023750Y0068782D02*
X0022999Y0069532D01*
X0022249Y0069532D01*
X0021498Y0068782D01*
X0021498Y0066530D01*
X0022999Y0066530D01*
X0023750Y0067280D01*
X0023750Y0068782D01*
X0021498Y0066530D02*
X0019997Y0068031D01*
X0019246Y0069532D01*
X0023750Y0019532D02*
X0023750Y0016530D01*
X0023750Y0018031D02*
X0019246Y0018031D01*
X0020747Y0016530D01*
X0074606Y0193083D02*
X0074606Y0193476D01*
X0074606Y0193083D02*
X0075000Y0193083D01*
X0329533Y0199629D02*
X0329533Y0201131D01*
X0329533Y0200380D02*
X0333286Y0200380D01*
X0334037Y0199629D01*
X0334037Y0198879D01*
X0333286Y0198128D01*
X0334037Y0202732D02*
X0329533Y0202732D01*
X0329533Y0204984D01*
X0330283Y0205735D01*
X0331785Y0205735D01*
X0332535Y0204984D01*
X0332535Y0202732D01*
X0331034Y0207336D02*
X0329533Y0208837D01*
X0334037Y0208837D01*
X0334037Y0207336D02*
X0334037Y0210338D01*
D16*
X0306850Y0038280D02*
X0306850Y0015780D01*
X0296850Y0015780D02*
X0296850Y0038280D01*
X0286850Y0038280D02*
X0286850Y0015780D01*
X0025000Y0088516D02*
X0002500Y0088516D01*
X0002500Y0098516D02*
X0025000Y0098516D01*
X0025000Y0108516D02*
X0002500Y0108516D01*
X0002500Y0118516D02*
X0025000Y0118516D01*
D17*
X0026500Y0118516D03*
X0026500Y0108516D03*
X0026500Y0098516D03*
X0026500Y0088516D03*
D18*
X0039500Y0088516D03*
X0039500Y0098516D03*
X0039500Y0108516D03*
X0039500Y0118516D03*
D19*
X0286850Y0039780D03*
X0296850Y0039780D03*
X0306850Y0039780D03*
D20*
X0306850Y0052780D03*
X0296850Y0052780D03*
X0286850Y0052780D03*
M02*
